<svg width="30" height="30" viewBox="0 0 30 30" fill="none" xmlns="http://www.w3.org/2000/svg">
<path d="M9.00074 15C7.25426 15 5.00024 17 5.00024 17C5.00024 17 4.00048 27.5 15.0002 27C26 26.5 23.5007 15 23.5007 15C23.5007 15 22.7472 17 21.0007 17C19.2543 17 18.7472 15 17.0007 15C15.2543 15 14.7472 17 13.0007 17C11.2543 17 10.7472 15 9.00074 15Z" fill="#92DBFF" stroke="black" stroke-width="1.2" stroke-linecap="round" stroke-linejoin="round"/>
<path d="M24.0109 18.2699C24.0109 23.0905 19.7552 27 14.5055 27C9.25573 27 5 23.0919 5 18.2699C5 12.1321 11.3062 5.56928 13.6459 3.34636C13.8769 3.12413 14.1849 3 14.5055 3C14.826 3 15.134 3.12413 15.365 3.34636C17.7047 5.56792 24.0109 12.1321 24.0109 18.2699Z" stroke="black" stroke-width="1.5"/>
<path d="M17.29 12.5C17.7691 12.5 18.0555 13.0339 17.79 13.4326L16.2529 15.7383H17.2637C17.7724 15.7383 18.0503 16.3319 17.7246 16.7227L12.7158 22.7334C12.3175 23.2114 11.544 22.8416 11.666 22.2314L12.5488 17.8184H11.2002C10.7059 17.8184 10.4234 17.2539 10.7197 16.8584L13.8086 12.7402C13.9219 12.5892 14.1002 12.5 14.2891 12.5H17.29Z" fill="#FCB717" stroke="black" stroke-linecap="round" stroke-linejoin="round"/>
</svg>
