<svg width="17" height="20" viewBox="0 0 17 20" fill="none" xmlns="http://www.w3.org/2000/svg">
<path d="M14.0996 16.6001L15.5996 18.6001" stroke="black" stroke-width="1.5" stroke-linecap="round"/>
<path d="M14.361 11.6535C14.361 15.143 11.2804 17.9729 7.48029 17.9729C3.68019 17.9729 0.599609 15.1439 0.599609 11.6535C0.599609 7.21052 5.16445 2.45991 6.85808 0.850814C7.02528 0.689954 7.24827 0.600098 7.48029 0.600098C7.7123 0.600098 7.9353 0.689954 8.1025 0.850814C9.79613 2.45893 14.361 7.21052 14.361 11.6535Z" stroke="black" stroke-width="1.2"/>
<path d="M3.49512 11.2168C3.49512 12.3963 4.24588 13.7191 5.42543 14.1123" stroke="black" stroke-width="1.2" stroke-linecap="round" stroke-linejoin="round"/>
<path d="M11.6631 9.6001C13.9071 9.6003 15.7263 11.4196 15.7266 13.6636C15.7266 15.9077 13.9072 17.7269 11.6631 17.7271C9.41887 17.727 7.59961 15.9078 7.59961 13.6636C7.59983 11.4195 9.41901 9.60019 11.6631 9.6001ZM13.1973 11.98C13.0055 11.8708 12.7609 11.9378 12.6514 12.1294L11.1904 14.6851L10.6592 13.8872C10.5366 13.7037 10.2882 13.6544 10.1045 13.7769C9.92094 13.8994 9.87082 14.1478 9.99316 14.3315L10.7051 15.3989C10.9525 15.7693 11.5032 15.7502 11.7246 15.3638L13.3467 12.5259C13.456 12.3341 13.389 12.0895 13.1973 11.98Z" fill="black"/>
</svg>
