<svg width="40" height="40" viewBox="0 0 40 40" fill="none" xmlns="http://www.w3.org/2000/svg">
<g filter="url(#filter0_d_1770_9164)">
<path d="M31.3073 5.9724C34.3545 9.0192 36.0972 13.1317 36.1671 17.4402C36.237 21.7487 34.6285 25.9155 31.6817 29.0595L31.3073 29.4467L23.4825 37.2697C22.4897 38.2619 21.1568 38.8396 19.7539 38.8859C18.351 38.9321 16.983 38.4433 15.927 37.5186L15.6614 37.2697L7.83482 29.4449C4.72218 26.3323 2.97351 22.1106 2.97351 17.7086C2.97351 13.3067 4.72218 9.08504 7.83482 5.9724C10.9475 2.85975 15.1691 1.11108 19.5711 1.11108C23.973 1.11108 28.1947 2.85975 31.3073 5.9724Z" fill="white"/>
</g>
<path d="M33.0159 17.3016C33.0159 24.7531 26.9753 30.7937 19.5238 30.7937C12.0723 30.7937 6.03174 24.7531 6.03174 17.3016C6.03174 9.85017 12.0723 3.80957 19.5238 3.80957C26.9753 3.80957 33.0159 9.85017 33.0159 17.3016Z" fill="black"/>
<path d="M25.5 24L27 26" stroke="white" stroke-width="1.5" stroke-linecap="round"/>
<path d="M25.7614 19.0534C25.7614 22.5429 22.6808 25.3728 18.8807 25.3728C15.0806 25.3728 12 22.5438 12 19.0534C12 14.6104 16.5648 9.85981 18.2585 8.25072C18.4257 8.08986 18.6487 8 18.8807 8C19.1127 8 19.3357 8.08986 19.5029 8.25072C21.1965 9.85883 25.7614 14.6104 25.7614 19.0534Z" stroke="white" stroke-width="1.5"/>
<path d="M14.8955 18.6167C14.8955 19.7962 15.6463 21.119 16.8258 21.5122" stroke="white" stroke-width="1.5" stroke-linecap="round" stroke-linejoin="round"/>
<path d="M23.0635 17C25.3075 17.0002 27.1267 18.8195 27.127 21.0635C27.127 23.3076 25.3076 25.1268 23.0635 25.127C20.8193 25.1269 19 23.3077 19 21.0635C19.0002 18.8194 20.8194 17.0001 23.0635 17ZM24.5977 19.3799C24.4059 19.2707 24.1613 19.3377 24.0518 19.5293L22.5908 22.085L22.0596 21.2871C21.937 21.1036 21.6886 21.0543 21.5049 21.1768C21.3213 21.2993 21.2712 21.5477 21.3936 21.7314L22.1055 22.7988C22.3529 23.1692 22.9036 23.1501 23.125 22.7637L24.7471 19.9258C24.8564 19.734 24.7893 19.4894 24.5977 19.3799Z" fill="white"/>
<defs>
<filter id="filter0_d_1770_9164" x="1.97351" y="0.111084" width="35.1958" height="39.7778" filterUnits="userSpaceOnUse" color-interpolation-filters="sRGB">
<feFlood flood-opacity="0" result="BackgroundImageFix"/>
<feColorMatrix in="SourceAlpha" type="matrix" values="0 0 0 0 0 0 0 0 0 0 0 0 0 0 0 0 0 0 127 0" result="hardAlpha"/>
<feOffset/>
<feGaussianBlur stdDeviation="0.5"/>
<feComposite in2="hardAlpha" operator="out"/>
<feColorMatrix type="matrix" values="0 0 0 0 0 0 0 0 0 0 0 0 0 0 0 0 0 0 0.25 0"/>
<feBlend mode="normal" in2="BackgroundImageFix" result="effect1_dropShadow_1770_9164"/>
<feBlend mode="normal" in="SourceGraphic" in2="effect1_dropShadow_1770_9164" result="shape"/>
</filter>
</defs>
</svg>
