<svg width="30" height="30" viewBox="0 0 30 30" fill="none" xmlns="http://www.w3.org/2000/svg">
<path d="M20.4464 20.9068C20.4464 24.8236 16.9886 28 12.7232 28C8.45778 28 5 24.8247 5 20.9068C5 15.9198 10.1238 10.5875 12.0248 8.78142C12.2125 8.60086 12.4628 8.5 12.7232 8.5C12.9836 8.5 13.2339 8.60086 13.4216 8.78142C15.3226 10.5864 20.4464 15.9198 20.4464 20.9068Z" fill="#46BAE5" stroke="black" stroke-width="1.2"/>
<path d="M8.25 20.4167C8.25 21.7407 9.09269 23.2254 10.4167 23.6667" stroke="white" stroke-width="1.5" stroke-linecap="round" stroke-linejoin="round"/>
<path d="M18 4V18.0429C18 18.1755 18.0527 18.3027 18.1464 18.3964L18.9369 19.1869C19.0307 19.2807 19.0833 19.4078 19.0833 19.5404V23.1667C19.0833 23.4428 19.3072 23.6667 19.5833 23.6667H22.9167C23.1928 23.6667 23.4167 23.4428 23.4167 23.1667V19.5404C23.4167 19.4078 23.4693 19.2807 23.5631 19.1869L24.3536 18.3964C24.4473 18.3027 24.5 18.1755 24.5 18.0429V4C24.5 2.89543 23.6046 2 22.5 2H20C18.8954 2 18 2.89543 18 4Z" fill="#F6D44F" stroke="black" stroke-linecap="round" stroke-linejoin="round"/>
<path d="M22.3337 16.0834V8.50002C22.3337 7.90171 21.8486 7.41669 21.2503 7.41669C20.652 7.41669 20.167 7.90171 20.167 8.50002V16.0834H22.3337Z" fill="#AEAEAE" stroke="black" stroke-width="0.89" stroke-linecap="round" stroke-linejoin="round"/>
<path d="M22.3337 11.75V8.50002C22.3337 7.90171 21.8486 7.41669 21.2503 7.41669C20.652 7.41669 20.167 7.90171 20.167 8.50002V11.75C20.167 12.3483 20.652 12.8334 21.2503 12.8334C21.8486 12.8334 22.3337 12.3483 22.3337 11.75Z" fill="#46BAE5" stroke="black" stroke-width="0.89" stroke-linecap="round" stroke-linejoin="round"/>
<path d="M19.625 17.7083H20.7083M21.7917 17.7083H22.875" stroke="black" stroke-linejoin="round"/>
<path d="M21.4051 4.16663V5.71425H21.7147V5.0952H22.0242V5.71425H22.3337V4.16663H22.0242V4.78567H21.7147V4.16663H21.4051ZM21.0956 5.40472V5.0952C21.0956 5.01311 21.063 4.93438 21.005 4.87633C20.9469 4.81828 20.8682 4.78567 20.7861 4.78567H20.167V6.33329H20.4766V5.71425H20.7861C20.9579 5.71425 21.0956 5.57651 21.0956 5.40472ZM20.7861 5.40472H20.4766V5.0952H20.7861V5.40472Z" fill="black"/>
</svg>
