<svg width="30" height="30" viewBox="0 0 30 30" fill="none" xmlns="http://www.w3.org/2000/svg">
<path d="M24.0109 18.2699C24.0109 23.0905 19.7552 27 14.5055 27C9.25573 27 5 23.0919 5 18.2699C5 12.1321 11.3062 5.56928 13.6459 3.34636C13.8769 3.12413 14.1849 3 14.5055 3C14.826 3 15.134 3.12413 15.365 3.34636C17.7047 5.56792 24.0109 12.1321 24.0109 18.2699Z" fill="#92DBFF" stroke="black" stroke-width="1.5"/>
<path d="M10.1159 15.4108C8.78431 15.4108 7.221 16.2378 7.221 16.2378C5.98058 21.1998 9.93179 25 14.4995 25C19.8747 25 23.4995 20.5 21.6936 15.4108C21.6936 15.4108 20.9017 16.1203 20.0401 16.2378C18.7206 16.4177 18.0637 15.4108 16.732 15.4108C15.4004 15.4108 14.7556 16.2378 13.424 16.2378C12.0923 16.2378 11.4476 15.4108 10.1159 15.4108Z" fill="#EAEAEA" stroke="black" stroke-linecap="round" stroke-linejoin="round"/>
<circle cx="14.5" cy="19.5" r="0.5" fill="#59544F"/>
<circle cx="13.5" cy="21.5" r="0.5" fill="#59544F"/>
<circle cx="15.5" cy="22.5" r="0.5" fill="#59544F"/>
<circle cx="11.5" cy="18.5" r="0.5" fill="#59544F"/>
<circle cx="16.5" cy="17.5" r="0.5" fill="#59544F"/>
<circle cx="10.5" cy="21.5" r="0.5" fill="#59544F"/>
<circle cx="17.5" cy="19.5" r="0.5" fill="#59544F"/>
<circle cx="20.5" cy="17.5" r="0.5" fill="#59544F"/>
<circle cx="9.5" cy="17.5" r="0.5" fill="#59544F"/>
<circle cx="18.5" cy="21.5" r="0.5" fill="#59544F"/>
</svg>
