<svg width="30" height="30" viewBox="0 0 30 30" fill="none" xmlns="http://www.w3.org/2000/svg">
<path d="M20.4464 20.9068C20.4464 24.8236 16.9886 28 12.7232 28C8.45778 28 5 24.8247 5 20.9068C5 15.9198 10.1238 10.5875 12.0248 8.78142C12.2125 8.60086 12.4628 8.5 12.7232 8.5C12.9836 8.5 13.2339 8.60086 13.4216 8.78142C15.3226 10.5864 20.4464 15.9198 20.4464 20.9068Z" fill="#46BAE5" stroke="black" stroke-width="1.2"/>
<path d="M8.25 20.4167C8.25 21.7407 9.09269 23.2254 10.4167 23.6667" stroke="white" stroke-width="1.5" stroke-linecap="round" stroke-linejoin="round"/>
<path d="M20.25 24.2896C21.1158 24.2896 21.9596 24.0172 22.6619 23.5109C23.3643 23.0047 23.8895 22.2903 24.1633 21.469C24.4371 20.6477 24.4455 19.761 24.1874 18.9346C23.9292 18.1082 23.4176 17.384 22.725 16.8646V5.26458C22.725 4.49568 22.725 4.11123 22.5996 3.80763C22.4321 3.40351 21.7069 2.91498 21.7069 2.91498C21.7069 2.91498 21.0189 2.37708 20.25 2.37708C19.4811 2.37708 18.7931 2.91498 18.7931 2.91498C18.7931 2.91498 18.0679 3.40351 17.9004 3.80763C17.775 4.11123 17.775 4.49568 17.775 5.26458V16.8646C17.0824 17.384 16.5708 18.1082 16.3126 18.9346C16.0545 19.761 16.0629 20.6477 16.3367 21.469C16.6105 22.2903 17.1357 23.0047 17.8381 23.5109C18.5404 24.0172 19.3842 24.2896 20.25 24.2896Z" fill="#DDEAFB" stroke="black" stroke-width="1.2" stroke-linejoin="round"/>
<path d="M21 6.5C21 6.08579 20.6642 5.75 20.25 5.75C19.8358 5.75 19.5 6.08579 19.5 6.5H20.25H21ZM20.25 6.5H19.5V17.6896H20.25H21V6.5H20.25Z" fill="#DA4A54"/>
<path d="M22.7254 20.1646C22.7254 21.5315 21.6173 22.6396 20.2504 22.6396C18.8835 22.6396 17.7754 21.5315 17.7754 20.1646C17.7754 18.7977 18.8835 17.2771 20.2504 17.2771C21.6173 17.2771 22.7254 18.7977 22.7254 20.1646Z" fill="#DA4A54"/>
</svg>
