<svg width="30" height="30" viewBox="0 0 30 30" fill="none" xmlns="http://www.w3.org/2000/svg">
<path d="M4 25.9V4.1C4 3.49249 4.49249 3 5.1 3H11.6273C12.2348 3 12.7273 3.49249 12.7273 4.1V25.9C12.7273 26.5075 12.2348 27 11.6273 27H5.1C4.49249 27 4 26.5075 4 25.9Z" fill="#FCB717" stroke="black" stroke-width="1.5" stroke-linecap="round" stroke-linejoin="round"/>
<path d="M4 8.14282H9.14286M4 11.5714H7.42857M4 15H9.14286M4 18.4285H7.42857M4 21.8571H9.14286" stroke="black" stroke-width="1.32" stroke-linecap="round" stroke-linejoin="round"/>
<path d="M10.5459 27H26.3641" stroke="black" stroke-width="1.5" stroke-linecap="round" stroke-linejoin="round"/>
<path d="M17.0908 6.27273L20.3635 3M20.3635 3L23.6363 6.27273M20.3635 3V24.8182M20.3635 24.8182L23.6363 21.5455M20.3635 24.8182L17.0908 21.5455" stroke="black" stroke-width="1.2" stroke-linecap="round" stroke-linejoin="round"/>
</svg>
