<svg width="30" height="30" viewBox="0 0 30 30" fill="none" xmlns="http://www.w3.org/2000/svg">
<path d="M24.0109 18.2699C24.0109 23.0905 19.7552 27 14.5055 27C9.25573 27 5 23.0919 5 18.2699C5 12.1321 11.3062 5.56928 13.6459 3.34636C13.8769 3.12413 14.1849 3 14.5055 3C14.826 3 15.134 3.12413 15.365 3.34636C17.7047 5.56792 24.0109 12.1321 24.0109 18.2699Z" fill="#78BAD3" stroke="black" stroke-width="1.5"/>
<path d="M9.00151 15C7.39134 15 5.50104 16 5.50104 16C4.00114 22 8.97726 27 14.5004 27C21 27 25.5001 21 23.0009 15C23.0009 15 22.0434 15.8579 21.0015 16C19.4061 16.2176 18.6117 15 17.0015 15C15.3913 15 14.6117 16 13.0015 16C11.3913 16 10.6117 15 9.00151 15Z" fill="#9C856F" stroke="black" stroke-width="1.5" stroke-linecap="round" stroke-linejoin="round"/>
<circle cx="10.5" cy="19.5" r="1.5" fill="#675747"/>
<circle cx="15.5" cy="22.5" r="1.5" fill="#675747"/>
<circle cx="12.5" cy="21.5" r="0.5" fill="#675747"/>
<circle cx="21.5" cy="18.5" r="0.5" fill="#675747"/>
<circle cx="19.5" cy="22.5" r="0.5" fill="#675747"/>
<circle cx="8" cy="18" r="1" fill="#675747"/>
<circle cx="14" cy="19" r="1" fill="#675747"/>
<circle cx="10" cy="23" r="1" fill="#675747"/>
<circle cx="18" cy="19" r="2" fill="#675747"/>
</svg>
