<svg width="40" height="40" viewBox="0 0 40 40" fill="none" xmlns="http://www.w3.org/2000/svg">
<g filter="url(#filter0_d_606_15552)">
<path d="M31.3073 5.9724C34.3545 9.0192 36.0972 13.1317 36.1671 17.4402C36.237 21.7487 34.6285 25.9155 31.6817 29.0595L31.3073 29.4467L23.4825 37.2697C22.4897 38.2619 21.1568 38.8396 19.7539 38.8859C18.351 38.9321 16.983 38.4433 15.927 37.5186L15.6614 37.2697L7.83482 29.4449C4.72218 26.3323 2.97351 22.1106 2.97351 17.7086C2.97351 13.3067 4.72218 9.08504 7.83482 5.9724C10.9475 2.85975 15.1691 1.11108 19.5711 1.11108C23.973 1.11108 28.1947 2.85975 31.3073 5.9724Z" fill="white"/>
</g>
<path d="M33.0159 17.3016C33.0159 24.7531 26.9753 30.7937 19.5238 30.7937C12.0723 30.7937 6.03174 24.7531 6.03174 17.3016C6.03174 9.85017 12.0723 3.80957 19.5238 3.80957C26.9753 3.80957 33.0159 9.85017 33.0159 17.3016Z" fill="#F2A501"/>
<path d="M20.4444 19.2593L19.5555 20.9877M24.4444 19.2593L23.5555 20.9877M21.3333 22.7161L20.4444 24.4445M16.4444 19.2593L15.5555 20.9877M17.3333 22.7161L16.4444 24.4445M24.8693 13.986H24.8889C27.0978 13.986 28.8889 15.6971 28.8889 17.8083C28.8876 18.4401 28.7243 19.0617 28.4139 19.6168C28.1036 20.1719 27.6558 20.643 27.1111 20.9877M24.8693 13.986C24.8818 13.846 24.8883 13.7042 24.8889 13.5608C24.8889 10.9811 22.7004 8.88892 20 8.88892C17.4426 8.88892 15.344 10.7651 15.1289 13.1555M24.8693 13.986C24.7802 14.9247 24.3971 15.8142 23.7715 16.5345M15.1289 13.1555C12.8746 13.3611 11.1111 15.1751 11.1111 17.384C11.1121 18.0463 11.2736 18.6991 11.5825 19.2894C11.8914 19.8798 12.3389 20.3911 12.8889 20.782M15.1289 13.1555C15.2693 13.1428 15.4115 13.1364 15.5555 13.1364C16.5564 13.1364 17.48 13.4527 18.2222 13.986" stroke="white" stroke-width="1.5" stroke-linecap="round" stroke-linejoin="round"/>
<defs>
<filter id="filter0_d_606_15552" x="1.97351" y="0.111084" width="35.1958" height="39.7778" filterUnits="userSpaceOnUse" color-interpolation-filters="sRGB">
<feFlood flood-opacity="0" result="BackgroundImageFix"/>
<feColorMatrix in="SourceAlpha" type="matrix" values="0 0 0 0 0 0 0 0 0 0 0 0 0 0 0 0 0 0 127 0" result="hardAlpha"/>
<feOffset/>
<feGaussianBlur stdDeviation="0.5"/>
<feComposite in2="hardAlpha" operator="out"/>
<feColorMatrix type="matrix" values="0 0 0 0 0 0 0 0 0 0 0 0 0 0 0 0 0 0 0.25 0"/>
<feBlend mode="normal" in2="BackgroundImageFix" result="effect1_dropShadow_606_15552"/>
<feBlend mode="normal" in="SourceGraphic" in2="effect1_dropShadow_606_15552" result="shape"/>
</filter>
</defs>
</svg>
