<svg width="24" height="24" viewBox="0 0 24 24" fill="none" xmlns="http://www.w3.org/2000/svg">
<path d="M12.525 14.75L11.475 16.9167M17.25 14.75L16.2 16.9167M13.575 19.0833L12.525 21.25M7.8 14.75L6.75 16.9167M8.85 19.0833L7.8 21.25M17.7519 8.1395H17.775C20.3842 8.1395 22.5 10.2845 22.5 12.9311C22.4985 13.7231 22.3057 14.5023 21.939 15.1981C21.5724 15.894 21.0434 16.4846 20.4 16.9167M17.7519 8.1395C17.7666 7.964 17.7743 7.78633 17.775 7.6065C17.775 4.37275 15.1899 1.75 12 1.75C8.97915 1.75 6.5001 4.10192 6.246 7.09842M17.7519 8.1395C17.6467 9.31623 17.1941 10.4313 16.4551 11.3342M6.246 7.09842C3.5832 7.35625 1.5 9.63017 1.5 12.3992C1.50124 13.2294 1.69201 14.0477 2.05685 14.7878C2.4217 15.5278 2.95035 16.1688 3.6 16.6588M6.246 7.09842C6.4119 7.08253 6.5799 7.07458 6.75 7.07458C7.9323 7.07458 9.02325 7.47108 9.9 8.1395" stroke="black" stroke-width="1.2" stroke-linecap="round" stroke-linejoin="round"/>
</svg>
