<svg width="42" height="42" viewBox="0 0 42 42" fill="none" xmlns="http://www.w3.org/2000/svg">
<rect width="42" height="42" rx="8" fill="#F8F8F8"/>
<path d="M25.5426 10.1755H15.5C14.3954 10.1755 13.5 11.071 13.5 12.1755V32.75C13.5 33.8546 14.3954 34.75 15.5 34.75H25.5426C26.6471 34.75 27.5426 33.8546 27.5426 32.75V12.1755C27.5426 11.071 26.6471 10.1755 25.5426 10.1755Z" stroke="#999999" stroke-width="1.5"/>
<path d="M24.202 19.5372H16.8403C16.288 19.5372 15.8403 19.9849 15.8403 20.5372V31.4096C15.8403 31.9619 16.288 32.4096 16.8403 32.4096H24.202C24.7543 32.4096 25.202 31.9619 25.202 31.4096V20.5372C25.202 19.9849 24.7543 19.5372 24.202 19.5372Z" fill="#999999"/>
<path d="M18.1809 7.75V9.09043C18.1809 9.36657 18.4048 9.59043 18.6809 9.59043H22.9469C23.223 9.59043 23.4469 9.36657 23.4469 9.09043V7.75C23.4469 7.47386 23.223 7.25 22.9469 7.25H18.6809C18.4048 7.25 18.1809 7.47386 18.1809 7.75Z" fill="#999999"/>
</svg>
