<svg width="16" height="16" viewBox="0 0 16 16" fill="none" xmlns="http://www.w3.org/2000/svg">
<g clip-path="url(#clip0_1360_663)">
<path d="M2.2963 7.99996H0.666672L8.00001 0.666626L15.3333 7.99996H13.7037M2.2963 7.99996V13.7037C2.2963 14.1359 2.46799 14.5504 2.77361 14.856C3.07922 15.1616 3.49373 15.3333 3.92593 15.3333H12.0741C12.5063 15.3333 12.9208 15.1616 13.2264 14.856C13.532 14.5504 13.7037 14.1359 13.7037 13.7037V7.99996" stroke="#404040" stroke-width="1.2" stroke-linecap="round" stroke-linejoin="round"/>
<path d="M2.2963 7.99996H0.666672L8.00001 0.666626L15.3333 7.99996H13.7037M2.2963 7.99996V13.7037C2.2963 14.1359 2.46799 14.5504 2.77361 14.856C3.07922 15.1616 3.49373 15.3333 3.92593 15.3333H12.0741C12.5063 15.3333 12.9208 15.1616 13.2264 14.856C13.532 14.5504 13.7037 14.1359 13.7037 13.7037V7.99996" stroke="black" stroke-opacity="0.2" stroke-width="1.2" stroke-linecap="round" stroke-linejoin="round"/>
<path d="M2.2963 7.99996H0.666672L8.00001 0.666626L15.3333 7.99996H13.7037M2.2963 7.99996V13.7037C2.2963 14.1359 2.46799 14.5504 2.77361 14.856C3.07922 15.1616 3.49373 15.3333 3.92593 15.3333H12.0741C12.5063 15.3333 12.9208 15.1616 13.2264 14.856C13.532 14.5504 13.7037 14.1359 13.7037 13.7037V7.99996" stroke="black" stroke-opacity="0.2" stroke-width="1.2" stroke-linecap="round" stroke-linejoin="round"/>
<path d="M2.2963 7.99996H0.666672L8.00001 0.666626L15.3333 7.99996H13.7037M2.2963 7.99996V13.7037C2.2963 14.1359 2.46799 14.5504 2.77361 14.856C3.07922 15.1616 3.49373 15.3333 3.92593 15.3333H12.0741C12.5063 15.3333 12.9208 15.1616 13.2264 14.856C13.532 14.5504 13.7037 14.1359 13.7037 13.7037V7.99996" stroke="black" stroke-opacity="0.2" stroke-width="1.2" stroke-linecap="round" stroke-linejoin="round"/>
<path d="M2.2963 7.99996H0.666672L8.00001 0.666626L15.3333 7.99996H13.7037M2.2963 7.99996V13.7037C2.2963 14.1359 2.46799 14.5504 2.77361 14.856C3.07922 15.1616 3.49373 15.3333 3.92593 15.3333H12.0741C12.5063 15.3333 12.9208 15.1616 13.2264 14.856C13.532 14.5504 13.7037 14.1359 13.7037 13.7037V7.99996" stroke="black" stroke-opacity="0.2" stroke-width="1.2" stroke-linecap="round" stroke-linejoin="round"/>
<path d="M5.55556 15.3333V10.4444C5.55556 10.0122 5.72725 9.59774 6.03287 9.29213C6.33848 8.98651 6.75298 8.81482 7.18519 8.81482H8.81482C9.24702 8.81482 9.66152 8.98651 9.96714 9.29213C10.2728 9.59774 10.4444 10.0122 10.4444 10.4444V15.3333" stroke="#404040" stroke-width="1.2" stroke-linecap="round" stroke-linejoin="round"/>
<path d="M5.55556 15.3333V10.4444C5.55556 10.0122 5.72725 9.59774 6.03287 9.29213C6.33848 8.98651 6.75298 8.81482 7.18519 8.81482H8.81482C9.24702 8.81482 9.66152 8.98651 9.96714 9.29213C10.2728 9.59774 10.4444 10.0122 10.4444 10.4444V15.3333" stroke="black" stroke-opacity="0.2" stroke-width="1.2" stroke-linecap="round" stroke-linejoin="round"/>
<path d="M5.55556 15.3333V10.4444C5.55556 10.0122 5.72725 9.59774 6.03287 9.29213C6.33848 8.98651 6.75298 8.81482 7.18519 8.81482H8.81482C9.24702 8.81482 9.66152 8.98651 9.96714 9.29213C10.2728 9.59774 10.4444 10.0122 10.4444 10.4444V15.3333" stroke="black" stroke-opacity="0.2" stroke-width="1.2" stroke-linecap="round" stroke-linejoin="round"/>
<path d="M5.55556 15.3333V10.4444C5.55556 10.0122 5.72725 9.59774 6.03287 9.29213C6.33848 8.98651 6.75298 8.81482 7.18519 8.81482H8.81482C9.24702 8.81482 9.66152 8.98651 9.96714 9.29213C10.2728 9.59774 10.4444 10.0122 10.4444 10.4444V15.3333" stroke="black" stroke-opacity="0.2" stroke-width="1.2" stroke-linecap="round" stroke-linejoin="round"/>
<path d="M5.55556 15.3333V10.4444C5.55556 10.0122 5.72725 9.59774 6.03287 9.29213C6.33848 8.98651 6.75298 8.81482 7.18519 8.81482H8.81482C9.24702 8.81482 9.66152 8.98651 9.96714 9.29213C10.2728 9.59774 10.4444 10.0122 10.4444 10.4444V15.3333" stroke="black" stroke-opacity="0.2" stroke-width="1.2" stroke-linecap="round" stroke-linejoin="round"/>
</g>
<defs>
<clipPath id="clip0_1360_663">
<rect width="16" height="16" fill="white"/>
</clipPath>
</defs>
</svg>
