<svg width="42" height="42" viewBox="0 0 42 42" fill="none" xmlns="http://www.w3.org/2000/svg">
<rect width="42" height="42" rx="8" fill="#F8F8F8"/>
<path d="M13.7206 17.8383C15.7568 13.5298 21.6618 8.57355 21.6618 8.57355C21.6618 8.57355 27.5669 13.5298 29.603 17.8383C30.7559 20.2777 31.5883 20.4853 31.5883 24.4559C31.5883 28.4265 26.7916 33.0588 21.6618 33.0588C16.532 33.0588 12.555 29.9867 11.7354 24.4559C11.7354 24.4559 12.5678 20.2777 13.7206 17.8383Z" fill="#5C9BCF"/>
<mask id="mask0_761_2460" style="mask-type:luminance" maskUnits="userSpaceOnUse" x="9" y="7" width="24" height="28">
<path d="M9.75 7.25H32.25V34.75H9.75V7.25Z" fill="white"/>
<path d="M29.75 24.2137C29.75 28.6512 25.8325 32.25 21 32.25C16.1675 32.25 12.25 28.6525 12.25 24.2137C12.25 18.5637 18.055 12.5225 20.2088 10.4762C20.4214 10.2717 20.705 10.1574 21 10.1574C21.295 10.1574 21.5786 10.2717 21.7913 10.4762C23.945 12.5212 29.75 18.5637 29.75 24.2137Z" fill="black"/>
</mask>
<g mask="url(#mask0_761_2460)">
<path d="M29.75 24.2137C29.75 28.6512 25.8325 32.25 21 32.25C16.1675 32.25 12.25 28.6525 12.25 24.2137C12.25 18.5637 18.055 12.5225 20.2088 10.4762C20.4214 10.2717 20.705 10.1574 21 10.1574C21.295 10.1574 21.5786 10.2717 21.7913 10.4762C23.945 12.5212 29.75 18.5637 29.75 24.2137Z" stroke="black" stroke-width="3.2"/>
</g>
<circle cx="18.2501" cy="18.7499" r="1.5" fill="black"/>
<circle cx="23.25" cy="26.75" r="1.5" fill="black"/>
<path d="M23.75 18.25L17.75 27.25" stroke="black" stroke-width="1.8" stroke-linecap="round" stroke-linejoin="round"/>
</svg>
