<svg width="42" height="42" viewBox="0 0 42 42" fill="none" xmlns="http://www.w3.org/2000/svg">
<rect width="42" height="42" rx="8" fill="#F8F8F8"/>
<mask id="mask0_761_2886" style="mask-type:luminance" maskUnits="userSpaceOnUse" x="9" y="7" width="24" height="28">
<path d="M9.75 7.25H32.25V34.75H9.75V7.25Z" fill="white"/>
<path d="M29.75 24.2138C29.75 28.6513 25.8325 32.2501 21 32.2501C16.1675 32.2501 12.25 28.6525 12.25 24.2138C12.25 18.5638 18.055 12.5226 20.2088 10.4763C20.4214 10.2717 20.705 10.1575 21 10.1575C21.295 10.1575 21.5786 10.2717 21.7913 10.4763C23.945 12.5213 29.75 18.5638 29.75 24.2138Z" fill="black"/>
</mask>
<g mask="url(#mask0_761_2886)">
<path d="M29.75 24.2138C29.75 28.6513 25.8325 32.2501 21 32.2501C16.1675 32.2501 12.25 28.6526 12.25 24.2138C12.25 18.5638 18.055 12.5226 20.2088 10.4763C20.4214 10.2717 20.705 10.1575 21 10.1575C21.295 10.1575 21.5786 10.2717 21.7913 10.4763C23.945 12.5213 29.75 18.5638 29.75 24.2138Z" stroke="#999999" stroke-width="3.2"/>
</g>
<circle cx="18.2501" cy="18.75" r="1.5" fill="#999999"/>
<circle cx="23.25" cy="26.75" r="1.5" fill="#999999"/>
<path d="M23.75 18.25L17.75 27.25" stroke="#999999" stroke-width="1.8" stroke-linecap="round" stroke-linejoin="round"/>
</svg>
