<svg width="42" height="42" viewBox="0 0 42 42" fill="none" xmlns="http://www.w3.org/2000/svg">
<rect width="42" height="42" rx="8" fill="#F8F8F8"/>
<g clip-path="url(#clip0_761_2847)">
<path d="M22.4573 13.9573C22.4573 13.405 22.0096 12.9573 21.4573 12.9573C20.905 12.9573 20.4573 13.405 20.4573 13.9573H21.4573H22.4573ZM21.4573 13.9573H20.4573V24.0183H21.4573H22.4573V13.9573H21.4573Z" fill="#999999"/>
<path d="M25.4818 28.0427C25.4818 30.2653 23.68 32.067 21.4574 32.067C19.2348 32.067 17.433 30.2653 17.433 28.0427C17.433 25.82 19.2348 23.3475 21.4574 23.3475C23.68 23.3475 25.4818 25.82 25.4818 28.0427Z" fill="#999999"/>
<path d="M21.4573 34.75C22.8651 34.75 24.2371 34.3071 25.3792 33.4839C26.5212 32.6608 27.3753 31.4992 27.8204 30.1637C28.2656 28.8282 28.2793 27.3865 27.8595 26.0428C27.4398 24.6991 26.6079 23.5215 25.4817 22.6768V11.9451C25.4817 10.6949 25.4817 10.0698 25.2778 9.5761C25.0055 8.919 23.8263 8.12463 23.8263 8.12463C23.8263 8.12463 22.7076 7.25 21.4573 7.25C20.2071 7.25 19.0883 8.12463 19.0883 8.12463C19.0883 8.12463 17.9091 8.919 17.6368 9.5761C17.4329 10.0698 17.4329 10.6949 17.4329 11.9451V22.6768C16.3067 23.5215 15.4748 24.6991 15.0551 26.0428C14.6353 27.3865 14.649 28.8282 15.0942 30.1637C15.5394 31.4992 16.3935 32.6608 17.5355 33.4839C18.6775 34.3071 20.0496 34.75 21.4573 34.75Z" stroke="#999999" stroke-width="1.5" stroke-linejoin="round"/>
</g>
<defs>
<clipPath id="clip0_761_2847">
<rect width="30" height="30" fill="white" transform="translate(6 6)"/>
</clipPath>
</defs>
</svg>
