<svg width="30" height="30" viewBox="0 0 30 30" fill="none" xmlns="http://www.w3.org/2000/svg">
<path d="M9 9C10.2686 6.0855 14.5 3 14.5 3C14.5 3 18.0993 6.29056 19.5 9C20.2662 10.482 20.8878 11.3355 21 13C21.1371 15.034 20.8646 16.4855 19.5 18C18.0923 19.5624 16.603 20 14.5 20C12.397 20 10.9077 19.5624 9.5 18C8.13541 16.4855 7.98161 15.0385 8 13C8.01453 11.3899 8.35736 10.4764 9 9Z" fill="#5C9BCF"/>
<path d="M8.125 14.375C7.40292 8.59836 14.2163 2.5 14.2163 2.5C14.2163 2.5 21.3471 8.59836 20.625 14.375C20.1488 18.1845 17.8982 20 14.2163 20C10.5344 20 8.6012 18.1845 8.125 14.375Z" stroke="black" stroke-width="1.2" stroke-linejoin="round"/>
<path d="M11.4162 12.5C10.7912 14.375 12.0412 16.25 13.2912 16.875" stroke="black" stroke-width="1.2" stroke-linecap="round"/>
<path d="M3.75 24.375C3.75 24.375 4.73958 22.5 6.25 22.5C7.76042 22.5 8.48958 24.375 10 24.375C11.5104 24.375 11.6146 22.5 13.125 22.5C14.6354 22.5 14.7396 24.375 16.25 24.375C17.7604 24.375 17.8646 22.5 19.375 22.5C20.8854 22.5 20.9896 22.5 22.5 22.5C24.0104 22.5 24.1146 22.5 25.625 22.5" stroke="black" stroke-width="1.2" stroke-linecap="round"/>
<path d="M3.75 28.125C3.75 28.125 4.73958 26.25 6.25 26.25C7.76042 26.25 8.48958 28.125 10 28.125C11.5104 28.125 11.6146 26.25 13.125 26.25C14.6354 26.25 14.7396 28.125 16.25 28.125C17.7604 28.125 17.8646 26.25 19.375 26.25C20.8854 26.25 20.9896 26.25 22.5 26.25" stroke="black" stroke-width="1.2" stroke-linecap="round"/>
<path d="M23.75 20.625L26.25 22.5L23.75 24.375" stroke="black" stroke-width="1.25" stroke-linecap="round" stroke-linejoin="round"/>
<path d="M21.25 24.375L23.75 26.25L21.25 28.125" stroke="black" stroke-width="1.25" stroke-linecap="round" stroke-linejoin="round"/>
</svg>
