<svg width="30" height="30" viewBox="0 0 30 30" fill="none" xmlns="http://www.w3.org/2000/svg">
<path d="M26.3758 21.125H3C2.44772 21.125 2 20.6773 2 20.125V13.6459C2 13.3194 2.15881 13.0124 2.44113 12.8486C2.95104 12.5526 3.81308 12.125 4.53758 12.125C5.64554 12.125 5.96721 13.125 7.07516 13.125C8.18312 13.125 8.50479 12.125 9.61275 12.125C10.7207 12.125 11.0424 13.125 12.1503 13.125C13.2583 13.125 13.58 12.125 14.6879 12.125C15.7959 12.125 16.1175 13.125 17.2255 13.125C18.3335 13.125 18.6551 12.125 19.7631 12.125C20.871 12.125 21.1927 13.125 22.3007 13.125C23.4086 13.125 23.7303 12.125 24.8382 12.125C25.5627 12.125 26.4248 12.5526 26.9347 12.8486C27.217 13.0124 27.3758 13.3194 27.3758 13.6459V20.125C27.3758 20.6773 26.9281 21.125 26.3758 21.125Z" fill="#7ED5FF" stroke="black" stroke-width="1.2"/>
<path d="M26.3758 25H3C2.44772 25 2 24.5523 2 24V17.5209C2 17.1944 2.15881 16.8874 2.44113 16.7236C2.95104 16.4276 3.81308 16 4.53758 16C5.64554 16 5.96721 17 7.07516 17C8.18312 17 8.50479 16 9.61275 16C10.7207 16 11.0424 17 12.1503 17C13.2583 17 13.58 16 14.6879 16C15.7959 16 16.1175 17 17.2255 17C18.3335 17 18.6551 16 19.7631 16C20.871 16 21.1927 17 22.3007 17C23.4086 17 23.7303 16 24.8382 16C25.5627 16 26.4248 16.4276 26.9347 16.7236C27.217 16.8874 27.3758 17.1944 27.3758 17.5209V24C27.3758 24.5523 26.9281 25 26.3758 25Z" fill="#40C1FF" stroke="black" stroke-width="1.2"/>
<path d="M26.3758 27H4C2.89543 27 2 26.1046 2 25V21.3721C2 21.0058 2.19974 20.6678 2.53531 20.5209C3.05265 20.2944 3.85598 20 4.53758 20C5.64554 20 5.96721 20.7778 7.07516 20.7778C8.18312 20.7778 8.50479 20 9.61275 20C10.7207 20 11.0424 20.7778 12.1503 20.7778C13.2583 20.7778 13.58 20 14.6879 20C15.7959 20 16.1175 20.7778 17.2255 20.7778C18.3335 20.7778 18.6551 20 19.7631 20C20.871 20 21.1927 20.7778 22.3007 20.7778C23.4086 20.7778 23.7303 20 24.8382 20C25.5198 20 26.3232 20.2944 26.8405 20.5209C27.1761 20.6678 27.3758 21.0058 27.3758 21.3721V26C27.3758 26.5523 26.9281 27 26.3758 27Z" fill="#00ACFF" stroke="black" stroke-width="1.2"/>
<path d="M22.0078 25.9V4.1C22.0078 3.49249 22.5003 3 23.1078 3H26.9C27.5075 3 28 3.49249 28 4.1V25.9C28 26.5075 27.5075 27 26.9 27H23.1078C22.5003 27 22.0078 26.5075 22.0078 25.9Z" fill="#3D68AC" stroke="black" stroke-width="1.2" stroke-linecap="round" stroke-linejoin="round"/>
<path d="M22.0078 8.14301H25.2763M22.0078 11.5716H24.1868M22.0078 15.0001H25.2763M22.0078 18.4287H24.1868M22.0078 21.8573H25.2763" stroke="black" stroke-width="1.2" stroke-linecap="round" stroke-linejoin="round"/>
<path d="M16.1523 5L18.1043 3M18.1043 3L20.0563 5M18.1043 3V11" stroke="black" stroke-width="1.2" stroke-linecap="round" stroke-linejoin="round"/>
<path d="M12.248 9L14.2 11M14.2 11L16.152 9M14.2 11V3" stroke="black" stroke-width="1.2" stroke-linecap="round" stroke-linejoin="round"/>
</svg>
