<svg width="36" height="40" viewBox="0 0 36 40" fill="none" xmlns="http://www.w3.org/2000/svg">
<g filter="url(#filter0_d_606_15589)">
<path d="M29.3338 5.86131C32.381 8.90811 34.1237 13.0206 34.1936 17.3291C34.2635 21.6376 32.6549 25.8044 29.7082 28.9484L29.3338 29.3357L21.509 37.1586C20.5162 38.1508 19.1833 38.7285 17.7804 38.7748C16.3775 38.821 15.0095 38.3323 13.9535 37.4076L13.6879 37.1586L5.86131 29.3338C2.74867 26.2212 1 21.9995 1 17.5976C1 13.1956 2.74867 8.97396 5.86131 5.86131C8.97396 2.74867 13.1956 1 17.5976 1C21.9995 1 26.2212 2.74867 29.3338 5.86131Z" fill="white"/>
</g>
<path d="M31.0424 17.1905C31.0424 24.642 25.0018 30.6826 17.5503 30.6826C10.0988 30.6826 4.05823 24.642 4.05823 17.1905C4.05823 9.73909 10.0988 3.69849 17.5503 3.69849C25.0018 3.69849 31.0424 9.73909 31.0424 17.1905Z" fill="black"/>
<path d="M12.6896 14.8095C13.9456 14.8095 14.6096 14.0981 15.094 13.5781C15.5296 13.1114 15.7438 12.9048 16.2425 12.9048C16.7411 12.9048 16.9554 13.1114 17.3909 13.5781C17.8754 14.0981 18.5394 14.8095 19.7962 14.8095C21.054 14.8095 21.7189 14.0981 22.2051 13.5781C22.6416 13.1114 22.8558 12.9048 23.3562 12.9048C23.8567 12.9048 24.0709 13.1114 24.5074 13.5781C24.9927 14.0981 25.6576 14.8095 26.9154 14.8095V12.9048C26.4149 12.9048 26.2007 12.6981 25.7642 12.2314C25.2789 11.7114 24.614 11 23.3562 11C22.0985 11 21.4345 11.7114 20.9482 12.2305C20.5118 12.6981 20.2985 12.9048 19.7962 12.9048C19.2967 12.9048 19.0834 12.6981 18.6478 12.2314C18.1634 11.7114 17.4994 11 16.2425 11C14.9856 11 14.3216 11.7114 13.8371 12.2314C13.4016 12.6981 13.1882 12.9048 12.6896 12.9048C12.1909 12.9048 11.9776 12.6981 11.542 12.2314C11.0576 11.7114 10.3936 11 9.13757 11V12.9048C9.63624 12.9048 9.84957 13.1114 10.2851 13.5781C10.7696 14.0981 11.4336 14.8095 12.6896 14.8095ZM12.6896 19.5714C13.9456 19.5714 14.6096 18.86 15.094 18.34C15.5296 17.8733 15.7438 17.6667 16.2425 17.6667C16.7411 17.6667 16.9554 17.8733 17.3909 18.34C17.8754 18.86 18.5394 19.5714 19.7962 19.5714C21.054 19.5714 21.7189 18.86 22.2051 18.34C22.6416 17.8733 22.8558 17.6667 23.3562 17.6667C23.8567 17.6667 24.0709 17.8733 24.5074 18.34C24.9927 18.86 25.6576 19.5714 26.9154 19.5714V17.6667C26.4149 17.6667 26.2007 17.46 25.7642 16.9933C25.2789 16.4733 24.614 15.7619 23.3562 15.7619C22.0985 15.7619 21.4345 16.4733 20.9482 16.9924C20.5118 17.46 20.2985 17.6667 19.7962 17.6667C19.2967 17.6667 19.0834 17.46 18.6478 16.9933C18.1634 16.4733 17.4994 15.7619 16.2425 15.7619C14.9856 15.7619 14.3216 16.4733 13.8371 16.9933C13.4016 17.46 13.1882 17.6667 12.6896 17.6667C12.1909 17.6667 11.9776 17.46 11.542 16.9933C11.0576 16.4733 10.3936 15.7619 9.13757 15.7619V17.6667C9.63624 17.6667 9.84957 17.8733 10.2851 18.34C10.7696 18.86 11.4336 19.5714 12.6896 19.5714ZM12.6896 24.3333C13.9456 24.3333 14.6096 23.6219 15.094 23.1019C15.5296 22.6352 15.7438 22.4286 16.2425 22.4286C16.7411 22.4286 16.9554 22.6352 17.3909 23.1019C17.8754 23.6219 18.5394 24.3333 19.7962 24.3333C21.054 24.3333 21.7189 23.6219 22.2051 23.1019C22.6416 22.6352 22.8558 22.4286 23.3562 22.4286C23.8567 22.4286 24.0709 22.6352 24.5074 23.1019C24.9927 23.6219 25.6576 24.3333 26.9154 24.3333V22.4286C26.4149 22.4286 26.2007 22.2219 25.7642 21.7552C25.2789 21.2352 24.614 20.5238 23.3562 20.5238C22.0985 20.5238 21.4345 21.2352 20.9482 21.7543C20.5118 22.2219 20.2985 22.4286 19.7962 22.4286C19.2967 22.4286 19.0834 22.2219 18.6478 21.7552C18.1634 21.2352 17.4994 20.5238 16.2425 20.5238C14.9856 20.5238 14.3216 21.2352 13.8371 21.7552C13.4016 22.2219 13.1882 22.4286 12.6896 22.4286C12.1909 22.4286 11.9776 22.2219 11.542 21.7552C11.0576 21.2352 10.3936 20.5238 9.13757 20.5238V22.4286C9.63624 22.4286 9.84957 22.6352 10.2851 23.1019C10.7696 23.6219 11.4336 24.3333 12.6896 24.3333Z" fill="white"/>
<defs>
<filter id="filter0_d_606_15589" x="0" y="0" width="35.1958" height="39.7778" filterUnits="userSpaceOnUse" color-interpolation-filters="sRGB">
<feFlood flood-opacity="0" result="BackgroundImageFix"/>
<feColorMatrix in="SourceAlpha" type="matrix" values="0 0 0 0 0 0 0 0 0 0 0 0 0 0 0 0 0 0 127 0" result="hardAlpha"/>
<feOffset/>
<feGaussianBlur stdDeviation="0.5"/>
<feComposite in2="hardAlpha" operator="out"/>
<feColorMatrix type="matrix" values="0 0 0 0 0 0 0 0 0 0 0 0 0 0 0 0 0 0 0.25 0"/>
<feBlend mode="normal" in2="BackgroundImageFix" result="effect1_dropShadow_606_15589"/>
<feBlend mode="normal" in="SourceGraphic" in2="effect1_dropShadow_606_15589" result="shape"/>
</filter>
</defs>
</svg>
