<svg width="40" height="40" viewBox="0 0 40 40" fill="none" xmlns="http://www.w3.org/2000/svg">
<g filter="url(#filter0_d_606_15583)">
<path d="M31.3073 5.9724C34.3545 9.0192 36.0972 13.1317 36.1671 17.4402C36.237 21.7487 34.6285 25.9155 31.6817 29.0595L31.3073 29.4467L23.4825 37.2697C22.4897 38.2619 21.1568 38.8396 19.7539 38.8859C18.351 38.9321 16.983 38.4433 15.927 37.5186L15.6614 37.2697L7.83482 29.4449C4.72218 26.3323 2.97351 22.1106 2.97351 17.7086C2.97351 13.3067 4.72218 9.08504 7.83482 5.9724C10.9475 2.85975 15.1691 1.11108 19.5711 1.11108C23.973 1.11108 28.1947 2.85975 31.3073 5.9724Z" fill="white"/>
</g>
<path d="M33.0159 17.3016C33.0159 24.7531 26.9753 30.7937 19.5238 30.7937C12.0723 30.7937 6.03174 24.7531 6.03174 17.3016C6.03174 9.85017 12.0723 3.80957 19.5238 3.80957C26.9753 3.80957 33.0159 9.85017 33.0159 17.3016Z" fill="#4FA03A"/>
<path d="M14.6631 14.9206C15.9191 14.9206 16.5831 14.2092 17.0675 13.6892C17.5031 13.2225 17.7173 13.0158 18.216 13.0158C18.7146 13.0158 18.9289 13.2225 19.3644 13.6892C19.8489 14.2092 20.5129 14.9206 21.7698 14.9206C23.0275 14.9206 23.6924 14.2092 24.1786 13.6892C24.6151 13.2225 24.8293 13.0158 25.3298 13.0158C25.8302 13.0158 26.0444 13.2225 26.4809 13.6892C26.9662 14.2092 27.6311 14.9206 28.8889 14.9206V13.0158C28.3884 13.0158 28.1742 12.8092 27.7378 12.3425C27.2524 11.8225 26.5875 11.1111 25.3298 11.1111C24.072 11.1111 23.408 11.8225 22.9218 12.3416C22.4853 12.8092 22.272 13.0158 21.7698 13.0158C21.2702 13.0158 21.0569 12.8092 20.6213 12.3425C20.1369 11.8225 19.4729 11.1111 18.216 11.1111C16.9591 11.1111 16.2951 11.8225 15.8106 12.3425C15.3751 12.8092 15.1618 13.0158 14.6631 13.0158C14.1644 13.0158 13.9511 12.8092 13.5155 12.3425C13.0311 11.8225 12.3671 11.1111 11.1111 11.1111V13.0158C11.6098 13.0158 11.8231 13.2225 12.2586 13.6892C12.7431 14.2092 13.4071 14.9206 14.6631 14.9206ZM14.6631 19.6825C15.9191 19.6825 16.5831 18.9711 17.0675 18.4511C17.5031 17.9844 17.7173 17.7778 18.216 17.7778C18.7146 17.7778 18.9289 17.9844 19.3644 18.4511C19.8489 18.9711 20.5129 19.6825 21.7698 19.6825C23.0275 19.6825 23.6924 18.9711 24.1786 18.4511C24.6151 17.9844 24.8293 17.7778 25.3298 17.7778C25.8302 17.7778 26.0444 17.9844 26.4809 18.4511C26.9662 18.9711 27.6311 19.6825 28.8889 19.6825V17.7778C28.3884 17.7778 28.1742 17.5711 27.7378 17.1044C27.2524 16.5844 26.5875 15.873 25.3298 15.873C24.072 15.873 23.408 16.5844 22.9218 17.1035C22.4853 17.5711 22.272 17.7778 21.7698 17.7778C21.2702 17.7778 21.0569 17.5711 20.6213 17.1044C20.1369 16.5844 19.4729 15.873 18.216 15.873C16.9591 15.873 16.2951 16.5844 15.8106 17.1044C15.3751 17.5711 15.1618 17.7778 14.6631 17.7778C14.1644 17.7778 13.9511 17.5711 13.5155 17.1044C13.0311 16.5844 12.3671 15.873 11.1111 15.873V17.7778C11.6098 17.7778 11.8231 17.9844 12.2586 18.4511C12.7431 18.9711 13.4071 19.6825 14.6631 19.6825ZM14.6631 24.4444C15.9191 24.4444 16.5831 23.733 17.0675 23.213C17.5031 22.7463 17.7173 22.5397 18.216 22.5397C18.7146 22.5397 18.9289 22.7463 19.3644 23.213C19.8489 23.733 20.5129 24.4444 21.7698 24.4444C23.0275 24.4444 23.6924 23.733 24.1786 23.213C24.6151 22.7463 24.8293 22.5397 25.3298 22.5397C25.8302 22.5397 26.0444 22.7463 26.4809 23.213C26.9662 23.733 27.6311 24.4444 28.8889 24.4444V22.5397C28.3884 22.5397 28.1742 22.333 27.7378 21.8663C27.2524 21.3463 26.5875 20.6349 25.3298 20.6349C24.072 20.6349 23.408 21.3463 22.9218 21.8654C22.4853 22.333 22.272 22.5397 21.7698 22.5397C21.2702 22.5397 21.0569 22.333 20.6213 21.8663C20.1369 21.3463 19.4729 20.6349 18.216 20.6349C16.9591 20.6349 16.2951 21.3463 15.8106 21.8663C15.3751 22.333 15.1618 22.5397 14.6631 22.5397C14.1644 22.5397 13.9511 22.333 13.5155 21.8663C13.0311 21.3463 12.3671 20.6349 11.1111 20.6349V22.5397C11.6098 22.5397 11.8231 22.7463 12.2586 23.213C12.7431 23.733 13.4071 24.4444 14.6631 24.4444Z" fill="white"/>
<defs>
<filter id="filter0_d_606_15583" x="1.97351" y="0.111084" width="35.1958" height="39.7778" filterUnits="userSpaceOnUse" color-interpolation-filters="sRGB">
<feFlood flood-opacity="0" result="BackgroundImageFix"/>
<feColorMatrix in="SourceAlpha" type="matrix" values="0 0 0 0 0 0 0 0 0 0 0 0 0 0 0 0 0 0 127 0" result="hardAlpha"/>
<feOffset/>
<feGaussianBlur stdDeviation="0.5"/>
<feComposite in2="hardAlpha" operator="out"/>
<feColorMatrix type="matrix" values="0 0 0 0 0 0 0 0 0 0 0 0 0 0 0 0 0 0 0.25 0"/>
<feBlend mode="normal" in2="BackgroundImageFix" result="effect1_dropShadow_606_15583"/>
<feBlend mode="normal" in="SourceGraphic" in2="effect1_dropShadow_606_15583" result="shape"/>
</filter>
</defs>
</svg>
