<svg width="97" height="14" viewBox="0 0 97 14" fill="none" xmlns="http://www.w3.org/2000/svg">
<path d="M23.2069 0.5H72.57" stroke="black"/>
<path d="M96.2643 4.20374V13H92.6974H89.6974H86.6974H83.6974H80.6974H77.6974H74.6974H71.6974H68.6974H65.6974H62.6974V4.20374H65.6974H68.6974H71.6974H74.6974H77.6974H80.6974H83.6974H86.6974H89.6974H92.6974H95.6974H96.2643Z" fill="#C5C7CE"/>
<path d="M62.6974 13V4.20374H65.6974M62.6974 13H65.6974M62.6974 13L65.6974 4.20374M65.6974 13L68.6974 4.20374M65.6974 13H68.6974M68.6974 4.20374H71.6974M68.6974 4.20374H65.6974M68.6974 13L71.6974 4.20374M68.6974 13H71.6974M71.6974 4.20374H74.6974M71.6974 13L74.6974 4.20374M71.6974 13H74.6974M74.6974 4.20374H77.6974M74.6974 13L77.6974 4.20374M74.6974 13H77.6974M77.6974 4.20374H80.6974M77.6974 13L80.6974 4.20374M77.6974 13H80.6974M80.6974 4.20374H83.6974M80.6974 13L83.6974 4.20374M80.6974 13H83.6974M83.6974 4.20374H86.6974M83.6974 13L86.6974 4.20374M83.6974 13H86.6974M86.6974 4.20374H89.6974M86.6974 13L89.6974 4.20374M86.6974 13H89.6974M89.6974 4.20374H92.6974M89.6974 13L92.6974 4.20374M89.6974 13H92.6974M92.6974 4.20374H95.6974M92.6974 13H96.2643V4.20374H95.6974M92.6974 13L95.6974 4.20374" stroke="black"/>
<path d="M34.0669 4.20374V13H30.5H27.5H24.5H21.5H18.5H15.5H12.5H9.5H6.5H3.5H0.5V4.20374H3.5H6.5H9.5H12.5H15.5H18.5H21.5H24.5H27.5H30.5H33.5H34.0669Z" fill="#C5C7CE"/>
<path d="M0.5 13V4.20374H3.5M0.5 13H3.5M0.5 13L3.5 4.20374M3.5 13L6.5 4.20374M3.5 13H6.5M6.5 4.20374H9.5M6.5 4.20374H3.5M6.5 13L9.5 4.20374M6.5 13H9.5M9.5 4.20374H12.5M9.5 13L12.5 4.20374M9.5 13H12.5M12.5 4.20374H15.5M12.5 13L15.5 4.20374M12.5 13H15.5M15.5 4.20374H18.5M15.5 13L18.5 4.20374M15.5 13H18.5M18.5 4.20374H21.5M18.5 13L21.5 4.20374M18.5 13H21.5M21.5 4.20374H24.5M21.5 13L24.5 4.20374M21.5 13H24.5M24.5 4.20374H27.5M24.5 13L27.5 4.20374M24.5 13H27.5M27.5 4.20374H30.5M27.5 13L30.5 4.20374M27.5 13H30.5M30.5 4.20374H33.5M30.5 13H34.0669V4.20374H33.5M30.5 13L33.5 4.20374" stroke="black"/>
</svg>
