<svg width="250" height="250" viewBox="0 0 250 250" fill="none" xmlns="http://www.w3.org/2000/svg">
<line x1="125.5" y1="24.619" x2="125.5" y2="226.365" stroke="#D0D0D0"/>
<line x1="225.381" y1="125.5" x2="23.6348" y2="125.5" stroke="#D0D0D0"/>
<line x1="198.391" y1="57.3001" x2="52.5163" y2="194.253" stroke="#D0D0D0"/>
<line x1="51.5309" y1="55.7454" x2="198.39" y2="192.696" stroke="#D0D0D0"/>
<line x1="125.516" y1="20.6825" x2="125.516" y2="35.4458" stroke="black" stroke-width="3"/>
<line x1="156.168" y1="24.7736" x2="153.968" y2="32.3337" stroke="black"/>
<line x1="180.718" y1="36.69" x2="176.6" y2="43.4013" stroke="black"/>
<line x1="216.855" y1="75.197" x2="209.897" y2="78.8827" stroke="black"/>
<line x1="40.6676" y1="171.696" x2="33.7098" y2="175.382" stroke="black"/>
<line x1="226.248" y1="99.8975" x2="218.613" y2="101.823" stroke="black"/>
<line x1="227.057" y1="146.878" x2="219.358" y2="145.229" stroke="black"/>
<line x1="218.264" y1="172.529" x2="211.362" y2="168.74" stroke="black"/>
<line x1="154.133" y1="226.222" x2="152.073" y2="218.622" stroke="black"/>
<line x1="95.8646" y1="224.933" x2="98.1416" y2="217.396" stroke="black"/>
<line x1="70.4421" y1="214.2" x2="74.4335" y2="207.413" stroke="black"/>
<line x1="23.5144" y1="150.03" x2="31.1564" y2="148.134" stroke="black"/>
<line x1="22.7611" y1="101.877" x2="30.4412" y2="103.613" stroke="black"/>
<line x1="32.7144" y1="75.3456" x2="39.7681" y2="78.8444" stroke="black"/>
<line x1="71.3003" y1="35.1849" x2="75.3894" y2="41.9136" stroke="black"/>
<line x1="97.9271" y1="23.5065" x2="99.9502" y2="31.1159" stroke="black"/>
<path d="M183.065 212.095L179.127 205.698" stroke="black"/>
<line x1="125.516" y1="214.556" x2="125.516" y2="229.319" stroke="black" stroke-width="3"/>
<line x1="229.317" y1="125.516" x2="214.554" y2="125.516" stroke="black" stroke-width="3"/>
<line x1="35.4438" y1="125.516" x2="20.6805" y2="125.516" stroke="black" stroke-width="3"/>
<line x1="202.029" y1="54.0926" x2="191.265" y2="64.1975" stroke="black" stroke-width="3"/>
<line x1="60.3763" y1="187.109" x2="49.6131" y2="197.214" stroke="black" stroke-width="3"/>
<line x1="49.2608" y1="53.0458" x2="60.0579" y2="63.1145" stroke="black" stroke-width="3"/>
<line x1="190.975" y1="185.903" x2="201.772" y2="195.972" stroke="black" stroke-width="3"/>
<g>
<path d="M249 125C249 193.483 193.483 249 125 249C56.5167 249 1 193.483 1 125C1 56.5167 56.5167 1 125 1C193.483 1 249 56.5167 249 125ZM19.9552 125C19.9552 183.015 66.9853 230.045 125 230.045C183.015 230.045 230.045 183.015 230.045 125C230.045 66.9853 183.015 19.9552 125 19.9552C66.9853 19.9552 19.9552 66.9853 19.9552 125Z" fill="#EAEAEA"/>
</g>
<path d="M249 125C249 193.483 193.483 249 125 249C56.5167 249 1 193.483 1 125C1 56.5167 56.5167 1 125 1C193.483 1 249 56.5167 249 125ZM19.9552 125C19.9552 183.015 66.9853 230.045 125 230.045C183.015 230.045 230.045 183.015 230.045 125C230.045 66.9853 183.015 19.9552 125 19.9552C66.9853 19.9552 19.9552 66.9853 19.9552 125Z" stroke="black" stroke-width="2"/>
<path d="M120.031 11.4183C120.031 10.7423 120.083 10.1226 120.187 9.55926C120.291 8.98726 120.464 8.49759 120.707 8.09026C120.949 7.67426 121.287 7.35359 121.721 7.12826C122.154 6.89426 122.696 6.77726 123.346 6.77726C124.004 6.77726 124.546 6.89426 124.971 7.12826C125.395 7.35359 125.729 7.67426 125.972 8.09026C126.223 8.49759 126.396 8.98726 126.492 9.55926C126.596 10.1226 126.648 10.7423 126.648 11.4183C126.648 12.1029 126.596 12.7313 126.492 13.3033C126.396 13.8666 126.223 14.3563 125.972 14.7723C125.729 15.1796 125.395 15.4959 124.971 15.7213C124.546 15.9466 124.004 16.0593 123.346 16.0593C122.696 16.0593 122.154 15.9466 121.721 15.7213C121.287 15.4959 120.949 15.1796 120.707 14.7723C120.464 14.3563 120.291 13.8666 120.187 13.3033C120.083 12.7313 120.031 12.1029 120.031 11.4183ZM125.335 11.4183C125.335 10.9503 125.313 10.5039 125.27 10.0793C125.226 9.65459 125.14 9.27759 125.01 8.94826C124.888 8.61893 124.693 8.36326 124.425 8.18126C124.156 7.99059 123.796 7.89526 123.346 7.89526C122.895 7.89526 122.535 7.99059 122.267 8.18126C121.998 8.36326 121.799 8.61893 121.669 8.94826C121.539 9.27759 121.452 9.65459 121.409 10.0793C121.374 10.5039 121.357 10.9503 121.357 11.4183C121.357 11.9123 121.374 12.3716 121.409 12.7963C121.452 13.2209 121.539 13.5936 121.669 13.9143C121.799 14.2349 121.998 14.4863 122.267 14.6683C122.535 14.8503 122.895 14.9413 123.346 14.9413C123.796 14.9413 124.156 14.8503 124.425 14.6683C124.693 14.4863 124.888 14.2349 125.01 13.9143C125.14 13.5936 125.226 13.2209 125.27 12.7963C125.313 12.3716 125.335 11.9123 125.335 11.4183ZM127.763 9.14326C127.763 8.66659 127.867 8.25926 128.075 7.92126C128.283 7.58326 128.56 7.32326 128.907 7.14126C129.262 6.95926 129.661 6.86826 130.103 6.86826C130.553 6.86826 130.956 6.95926 131.312 7.14126C131.667 7.32326 131.94 7.58326 132.131 7.92126C132.33 8.25926 132.43 8.66659 132.43 9.14326C132.43 9.61126 132.33 10.0143 132.131 10.3523C131.931 10.6903 131.65 10.9546 131.286 11.1453C130.93 11.3273 130.527 11.4183 130.077 11.4183C129.392 11.4183 128.833 11.2146 128.4 10.8073C127.975 10.3913 127.763 9.83659 127.763 9.14326ZM131.39 9.14326C131.39 8.63193 131.26 8.25059 131 7.99926C130.748 7.74793 130.445 7.62226 130.09 7.62226C129.743 7.62226 129.44 7.74793 129.18 7.99926C128.92 8.25059 128.79 8.63193 128.79 9.14326C128.79 9.65459 128.915 10.0359 129.167 10.2873C129.418 10.5299 129.721 10.6513 130.077 10.6513C130.423 10.6513 130.727 10.5299 130.987 10.2873C131.255 10.0359 131.39 9.65459 131.39 9.14326Z" fill="black"/>
<path d="M34.4582 52.1298C34.0966 51.7192 33.876 51.2841 33.7963 50.8245C33.7228 50.3588 33.7749 49.8961 33.9526 49.4365C34.1303 48.9768 34.4245 48.5417 34.8351 48.1311C35.2702 47.696 35.7206 47.4111 36.1864 47.2763C36.6521 47.1414 37.0995 47.1353 37.5285 47.2579C37.9574 47.3682 38.3313 47.5827 38.6499 47.9013C38.8828 48.1342 39.0483 48.3977 39.1463 48.6919C39.2382 48.9799 39.2658 49.2771 39.2291 49.5835C39.1984 49.8838 39.1034 50.1688 38.9441 50.4384L38.99 50.4844C39.2965 50.3006 39.609 50.1841 39.9277 50.1351C40.2463 50.0738 40.5619 50.0953 40.8745 50.1994C41.1809 50.2975 41.4781 50.4905 41.7662 50.7786C42.1155 51.1279 42.3453 51.517 42.4556 51.946C42.5598 52.3688 42.5291 52.8162 42.3637 53.2881C42.1982 53.7477 41.8826 54.2104 41.4168 54.6761C40.9695 55.1235 40.5099 55.4483 40.038 55.6505C39.5661 55.8528 39.0881 55.9079 38.604 55.816C38.126 55.7179 37.6449 55.4514 37.1608 55.0162L38.0432 54.1338C38.4538 54.4831 38.8705 54.6486 39.2934 54.6302C39.7101 54.6057 40.1544 54.3575 40.6263 53.8856C40.9021 53.6098 41.0859 53.3402 41.1778 53.0767C41.2698 52.8131 41.279 52.5649 41.2054 52.3321C41.1319 52.0869 40.9848 51.8541 40.7642 51.6334C40.3475 51.2167 39.9215 51.0788 39.4864 51.2198C39.0513 51.3485 38.5458 51.7009 37.9697 52.2769L37.7399 52.5067L36.9585 51.7254L37.1975 51.4864C37.5407 51.1309 37.795 50.8031 37.9605 50.5028C38.1321 50.1964 38.2087 49.9175 38.1903 49.6663C38.1719 49.4028 38.0494 49.1576 37.8226 48.9309C37.5162 48.6245 37.1638 48.4559 36.7655 48.4253C36.3672 48.3947 35.978 48.5693 35.5981 48.9493C35.3407 49.2067 35.1691 49.4702 35.0833 49.7398C34.9914 50.0033 34.9699 50.2638 35.0189 50.5212C35.068 50.7786 35.1783 51.0176 35.3499 51.2382L34.4582 52.1298ZM39.6306 45.0087L38.7573 45.882L37.9851 45.1098L39.7776 43.3173L46.2123 49.752L45.2931 50.6712L39.6306 45.0087ZM45.2513 37.8436L46.0234 38.6158L42.9164 41.7228L44.8376 43.644C44.7886 43.3376 44.8315 43.0067 44.9663 42.6513C45.1011 42.2958 45.3248 41.9618 45.6374 41.6493C46.0357 41.251 46.4371 40.9844 46.8416 40.8496C47.246 40.7147 47.6382 40.6718 48.0182 40.7209C48.4043 40.7638 48.7597 40.8741 49.0845 41.0518C49.4093 41.2173 49.6851 41.4134 49.9118 41.6401C50.3285 42.0568 50.6196 42.5256 50.7851 43.0465C50.9567 43.5613 50.9751 44.0945 50.8403 44.646C50.6993 45.1914 50.3837 45.7093 49.8934 46.1995C49.4522 46.6408 48.9895 46.9502 48.5054 47.128C48.0213 47.2934 47.5463 47.3394 47.0806 47.2658C46.6148 47.18 46.1797 46.9901 45.7753 46.6959L46.6669 45.8043C47.0653 46.0433 47.4789 46.1321 47.9079 46.0708C48.3369 45.9973 48.7383 45.7736 49.1121 45.3998C49.4185 45.0934 49.6115 44.7778 49.6912 44.453C49.7709 44.1282 49.7494 43.8126 49.6269 43.5062C49.5043 43.1875 49.2959 42.8811 49.0018 42.5869C48.5728 42.1579 48.1224 41.9404 47.6505 41.9343C47.1786 41.9281 46.7282 42.1396 46.2992 42.5685C45.9744 42.8933 45.7753 43.2457 45.7017 43.6257C45.6282 44.0056 45.6741 44.3764 45.8396 44.7379L44.9755 45.602L41.2342 41.8607L45.2513 37.8436ZM48.0554 38.2569C47.7183 37.9198 47.5039 37.5582 47.4119 37.1722C47.32 36.7861 47.3323 36.4061 47.4487 36.0323C47.5713 35.6524 47.7888 35.3061 48.1014 34.9936C48.42 34.6749 48.7693 34.4543 49.1493 34.3317C49.5292 34.2092 49.9061 34.2 50.28 34.3041C50.6599 34.4022 51.0184 34.6197 51.3555 34.9568C51.6864 35.2877 51.9009 35.6432 51.9989 36.0231C52.097 36.4031 52.0847 36.7892 51.9622 37.1814C51.8396 37.5613 51.619 37.9106 51.3003 38.2293C50.8162 38.7134 50.2769 38.9647 49.6824 38.9831C49.088 38.9892 48.5457 38.7471 48.0554 38.2569ZM50.6201 35.6922C50.2585 35.3306 49.8969 35.1529 49.5354 35.159C49.1799 35.159 48.8766 35.2847 48.6253 35.5359C48.3802 35.7811 48.2546 36.0844 48.2484 36.446C48.2423 36.8075 48.42 37.1691 48.7816 37.5307C49.1432 37.8922 49.5017 38.073 49.8571 38.073C50.2064 38.0669 50.5067 37.9382 50.758 37.6869C51.0031 37.4418 51.1318 37.1415 51.144 36.7861C51.1563 36.4184 50.9816 36.0538 50.6201 35.6922Z" fill="black"/>
<path d="M205.37 46.8284L202.282 43.1914L203.006 42.5772L210.537 42.0669L211.555 43.266L207.046 47.0943L207.853 48.0457L207.011 48.7608L206.203 47.8095L204.618 49.1557L203.785 48.1746L205.37 46.8284ZM206.23 46.133L209.718 43.1714L204.084 43.606L206.23 46.133ZM217.144 49.8492L216.312 50.556L213.468 47.2064L211.396 48.9649C211.706 48.9409 212.032 49.0106 212.375 49.1739C212.719 49.3372 213.033 49.5874 213.32 49.9243C213.684 50.3537 213.917 50.7755 214.019 51.1896C214.12 51.6037 214.131 51.9981 214.051 52.3728C213.977 52.7541 213.838 53.0994 213.634 53.4086C213.443 53.7189 213.225 53.9778 212.981 54.1853C212.532 54.5667 212.041 54.8187 211.508 54.9412C210.981 55.0704 210.448 55.0453 209.909 54.866C209.377 54.6812 208.887 54.3245 208.438 53.7959C208.034 53.3203 207.763 52.8339 207.626 52.3369C207.5 51.8409 207.493 51.3638 207.604 50.9056C207.728 50.4484 207.952 50.0302 208.278 49.651L209.095 50.6123C208.824 50.9898 208.702 51.3949 208.728 51.8274C208.766 52.261 208.957 52.6793 209.299 53.0823C209.579 53.4126 209.878 53.6307 210.195 53.7365C210.512 53.8424 210.829 53.8467 211.144 53.7494C211.472 53.6532 211.794 53.4705 212.111 53.2012C212.574 52.8086 212.827 52.3774 212.872 51.9076C212.916 51.4377 212.742 50.9716 212.349 50.5091C212.052 50.159 211.717 49.9318 211.344 49.8276C210.972 49.7234 210.598 49.739 210.225 49.8745L209.434 48.9429L213.467 45.5185L217.144 49.8492ZM216.504 52.6104C216.867 52.3019 217.245 52.1175 217.637 52.0573C218.03 51.9971 218.407 52.0403 218.77 52.1868C219.139 52.3398 219.467 52.5848 219.753 52.9218C220.044 53.2653 220.236 53.6314 220.327 54.0201C220.418 54.4088 220.397 54.7852 220.262 55.1493C220.134 55.52 219.888 55.8596 219.524 56.1681C219.168 56.471 218.796 56.6558 218.409 56.7226C218.023 56.7894 217.639 56.7458 217.258 56.5917C216.889 56.4386 216.559 56.1903 216.267 55.8468C215.824 55.3249 215.618 54.7669 215.648 54.1729C215.69 53.58 215.975 53.0591 216.504 52.6104ZM218.851 55.3753C219.241 55.0443 219.448 54.6984 219.471 54.3376C219.5 53.9833 219.399 53.6707 219.169 53.3999C218.945 53.1356 218.653 52.9857 218.293 52.9502C217.933 52.9146 217.558 53.0623 217.169 53.3933C216.779 53.7242 216.569 54.0668 216.54 54.4211C216.518 54.7697 216.622 55.0795 216.852 55.3504C217.076 55.6146 217.365 55.7673 217.718 55.8085C218.084 55.8506 218.462 55.7062 218.851 55.3753Z" fill="black"/>
<path d="M52.6818 207.881L49.0232 207.753C48.3307 207.722 47.7608 207.722 47.3134 207.753C46.8661 207.783 46.4953 207.854 46.2012 207.964C45.9009 208.081 45.6404 208.249 45.4198 208.47C45.095 208.795 44.9234 209.156 44.905 209.554C44.8805 209.947 45.0766 210.351 45.4933 210.768C45.7569 211.031 46.0388 211.197 46.339 211.264C46.6393 211.332 46.9457 211.307 47.2583 211.191C47.5647 211.08 47.8619 210.887 48.1499 210.612L49.0324 211.494C48.5299 211.972 48.0213 212.278 47.5065 212.413C46.9917 212.548 46.4953 212.536 46.0173 212.376C45.5271 212.217 45.0858 211.941 44.6936 211.549C44.2524 211.108 43.9552 210.651 43.8019 210.18C43.6426 209.702 43.6242 209.236 43.7468 208.782C43.8632 208.335 44.1114 207.921 44.4914 207.541C44.7671 207.266 45.0889 207.048 45.4566 206.889C45.812 206.729 46.2624 206.622 46.8079 206.567C47.3471 206.518 48.0243 206.509 48.8394 206.539L51.2386 206.64L48.1408 203.543L48.9129 202.77L53.3528 207.21L52.6818 207.881ZM47.1879 202.388L43.5293 202.259C42.8368 202.228 42.2669 202.228 41.8196 202.259C41.3722 202.289 41.0014 202.36 40.7073 202.47C40.407 202.587 40.1465 202.755 39.9259 202.976C39.6011 203.301 39.4295 203.662 39.4111 204.061C39.3866 204.453 39.5827 204.857 39.9995 205.274C40.263 205.537 40.5449 205.703 40.8452 205.77C41.1454 205.838 41.4519 205.813 41.7644 205.697C42.0708 205.586 42.368 205.393 42.6561 205.118L43.5385 206C43.036 206.478 42.5274 206.785 42.0126 206.919C41.4978 207.054 41.0014 207.042 40.5234 206.883C40.0332 206.723 39.5919 206.448 39.1997 206.055C38.7585 205.614 38.4613 205.158 38.3081 204.686C38.1487 204.208 38.1303 203.742 38.2529 203.288C38.3693 202.841 38.6175 202.427 38.9975 202.047C39.2733 201.772 39.595 201.554 39.9627 201.395C40.3181 201.235 40.7686 201.128 41.314 201.073C41.8533 201.024 42.5304 201.015 43.3455 201.045L45.7447 201.147L42.6469 198.049L43.419 197.277L47.859 201.716L47.1879 202.388ZM31.6835 198.41L32.4557 197.638L35.5627 200.745L37.4839 198.824C37.1775 198.873 36.8466 198.83 36.4911 198.695C36.1357 198.561 35.8017 198.337 35.4892 198.024C35.0908 197.626 34.8242 197.225 34.6894 196.82C34.5546 196.416 34.5117 196.023 34.5607 195.643C34.6036 195.257 34.7139 194.902 34.8917 194.577C35.0571 194.252 35.2532 193.977 35.48 193.75C35.8967 193.333 36.3655 193.042 36.8864 192.877C37.4012 192.705 37.9343 192.687 38.4859 192.821C39.0313 192.962 39.5491 193.278 40.0394 193.768C40.4806 194.209 40.7901 194.672 40.9678 195.156C41.1333 195.64 41.1792 196.115 41.1057 196.581C41.0199 197.047 40.8299 197.482 40.5358 197.886L39.6441 196.995C39.8831 196.596 39.972 196.183 39.9107 195.754C39.8372 195.325 39.6135 194.923 39.2397 194.55C38.9332 194.243 38.6176 194.05 38.2928 193.97C37.968 193.891 37.6524 193.912 37.346 194.035C37.0273 194.157 36.7209 194.366 36.4268 194.66C35.9978 195.089 35.7802 195.539 35.7741 196.011C35.768 196.483 35.9794 196.933 36.4084 197.362C36.7332 197.687 37.0856 197.886 37.4655 197.96C37.8455 198.033 38.2162 197.988 38.5778 197.822L39.4419 198.686L35.7006 202.427L31.6835 198.41ZM32.0967 195.606C31.7597 195.943 31.3981 196.158 31.012 196.25C30.626 196.342 30.246 196.329 29.8722 196.213C29.4922 196.09 29.146 195.873 28.8334 195.56C28.5148 195.242 28.2942 194.892 28.1716 194.512C28.049 194.132 28.0398 193.756 28.144 193.382C28.2421 193.002 28.4596 192.643 28.7967 192.306C29.1276 191.975 29.483 191.761 29.863 191.663C30.2429 191.565 30.629 191.577 31.0212 191.7C31.4012 191.822 31.7505 192.043 32.0692 192.361C32.5533 192.845 32.8045 193.385 32.8229 193.979C32.8291 194.574 32.587 195.116 32.0967 195.606ZM29.5321 193.042C29.1705 193.403 28.9928 193.765 28.9989 194.126C28.9989 194.482 29.1245 194.785 29.3758 195.036C29.6209 195.281 29.9243 195.407 30.2858 195.413C30.6474 195.419 31.009 195.242 31.3705 194.88C31.7321 194.519 31.9129 194.16 31.9129 193.805C31.9068 193.455 31.7781 193.155 31.5268 192.904C31.2817 192.659 30.9814 192.53 30.626 192.518C30.2583 192.505 29.8936 192.68 29.5321 193.042Z" fill="black"/>
<path d="M218.053 196.784L218.926 195.911L219.698 196.683L217.906 198.476L211.471 192.041L212.39 191.122L218.053 196.784ZM214.849 198.039C215.211 198.449 215.432 198.884 215.511 199.344C215.585 199.81 215.533 200.272 215.355 200.732C215.177 201.192 214.883 201.627 214.473 202.037C214.037 202.472 213.587 202.757 213.121 202.892C212.656 203.027 212.208 203.033 211.779 202.911C211.35 202.8 210.976 202.586 210.658 202.267C210.425 202.034 210.259 201.771 210.161 201.477C210.069 201.189 210.042 200.891 210.079 200.585C210.109 200.285 210.204 200 210.364 199.73L210.318 199.684C210.011 199.868 209.699 199.984 209.38 200.033C209.061 200.095 208.746 200.073 208.433 199.969C208.127 199.871 207.83 199.678 207.542 199.39C207.192 199.041 206.962 198.651 206.852 198.223C206.748 197.8 206.779 197.352 206.944 196.88C207.109 196.421 207.425 195.958 207.891 195.492C208.338 195.045 208.798 194.72 209.27 194.518C209.742 194.316 210.22 194.261 210.704 194.353C211.182 194.451 211.663 194.717 212.147 195.152L211.264 196.035C210.854 195.685 210.437 195.52 210.014 195.538C209.598 195.563 209.153 195.811 208.681 196.283C208.406 196.559 208.222 196.828 208.13 197.092C208.038 197.355 208.029 197.604 208.102 197.836C208.176 198.082 208.323 198.314 208.543 198.535C208.96 198.952 209.386 199.09 209.821 198.949C210.256 198.82 210.762 198.468 211.338 197.892L211.568 197.662L212.349 198.443L212.11 198.682C211.767 199.038 211.513 199.365 211.347 199.666C211.176 199.972 211.099 200.251 211.117 200.502C211.136 200.766 211.258 201.011 211.485 201.238C211.791 201.544 212.144 201.713 212.542 201.743C212.941 201.774 213.33 201.599 213.71 201.219C213.967 200.962 214.139 200.698 214.224 200.429C214.316 200.165 214.338 199.905 214.289 199.647C214.24 199.39 214.129 199.151 213.958 198.93L214.849 198.039ZM206.947 209.434L206.175 208.662L209.282 205.555L207.361 203.634C207.41 203.94 207.367 204.271 207.232 204.627C207.097 204.982 206.873 205.316 206.561 205.629C206.163 206.027 205.761 206.294 205.357 206.428C204.952 206.563 204.56 206.606 204.18 206.557C203.794 206.514 203.439 206.404 203.114 206.226C202.789 206.061 202.513 205.865 202.286 205.638C201.87 205.221 201.579 204.752 201.413 204.231C201.242 203.717 201.223 203.183 201.358 202.632C201.499 202.086 201.815 201.569 202.305 201.078C202.746 200.637 203.209 200.328 203.693 200.15C204.177 199.985 204.652 199.939 205.118 200.012C205.583 200.098 206.019 200.288 206.423 200.582L205.531 201.474C205.133 201.235 204.719 201.146 204.29 201.207C203.861 201.281 203.46 201.504 203.086 201.878C202.78 202.185 202.587 202.5 202.507 202.825C202.427 203.15 202.449 203.465 202.571 203.772C202.694 204.09 202.902 204.397 203.196 204.691C203.625 205.12 204.076 205.338 204.548 205.344C205.02 205.35 205.47 205.138 205.899 204.709C206.224 204.385 206.423 204.032 206.497 203.652C206.57 203.272 206.524 202.902 206.359 202.54L207.223 201.676L210.964 205.417L206.947 209.434ZM204.143 209.021C204.48 209.358 204.694 209.72 204.786 210.106C204.878 210.492 204.866 210.872 204.75 211.246C204.627 211.626 204.409 211.972 204.097 212.284C203.778 212.603 203.429 212.824 203.049 212.946C202.669 213.069 202.292 213.078 201.918 212.974C201.538 212.876 201.18 212.658 200.843 212.321C200.512 211.99 200.297 211.635 200.199 211.255C200.101 210.875 200.114 210.489 200.236 210.097C200.359 209.717 200.579 209.367 200.898 209.049C201.382 208.564 201.921 208.313 202.516 208.295C203.11 208.289 203.653 208.531 204.143 209.021ZM201.578 211.586C201.94 211.947 202.301 212.125 202.663 212.119C203.018 212.119 203.322 211.993 203.573 211.742C203.818 211.497 203.944 211.194 203.95 210.832C203.956 210.47 203.778 210.109 203.417 209.747C203.055 209.386 202.697 209.205 202.341 209.205C201.992 209.211 201.692 209.34 201.44 209.591C201.195 209.836 201.066 210.136 201.054 210.492C201.042 210.86 201.217 211.224 201.578 211.586Z" fill="black"/>
<path d="M243.223 118.166C243.223 118.808 243.085 119.375 242.807 119.869C242.53 120.372 242.149 120.762 241.663 121.039C241.178 121.325 240.632 121.468 240.025 121.468C239.549 121.468 239.072 121.377 238.595 121.195C238.119 121.013 237.633 120.732 237.139 120.35L234.032 117.984V116.58L237.542 119.284L239.089 120.779C238.474 120.606 237.976 120.272 237.594 119.778C237.213 119.293 237.022 118.704 237.022 118.01C237.022 117.395 237.148 116.853 237.399 116.385C237.659 115.926 238.015 115.562 238.465 115.293C238.925 115.033 239.453 114.903 240.051 114.903C240.667 114.903 241.213 115.042 241.689 115.319C242.166 115.605 242.539 115.991 242.807 116.476C243.085 116.97 243.223 117.534 243.223 118.166ZM240.051 120.155C240.476 120.155 240.84 120.077 241.143 119.921C241.447 119.765 241.681 119.536 241.845 119.232C242.019 118.938 242.105 118.582 242.105 118.166C242.105 117.742 242.019 117.382 241.845 117.087C241.681 116.801 241.447 116.585 241.143 116.437C240.84 116.29 240.476 116.216 240.051 116.216C239.635 116.216 239.276 116.29 238.972 116.437C238.678 116.585 238.452 116.801 238.296 117.087C238.14 117.382 238.062 117.742 238.062 118.166C238.062 118.582 238.14 118.938 238.296 119.232C238.452 119.536 238.678 119.765 238.972 119.921C239.276 120.077 239.635 120.155 240.051 120.155ZM238.582 122.995C239.258 122.995 239.878 123.047 240.441 123.151C241.013 123.255 241.503 123.428 241.91 123.671C242.326 123.914 242.647 124.252 242.872 124.685C243.106 125.118 243.223 125.66 243.223 126.31C243.223 126.969 243.106 127.51 242.872 127.935C242.647 128.36 242.326 128.693 241.91 128.936C241.503 129.187 241.013 129.361 240.441 129.456C239.878 129.56 239.258 129.612 238.582 129.612C237.898 129.612 237.269 129.56 236.697 129.456C236.134 129.361 235.644 129.187 235.228 128.936C234.821 128.693 234.505 128.36 234.279 127.935C234.054 127.51 233.941 126.969 233.941 126.31C233.941 125.66 234.054 125.118 234.279 124.685C234.505 124.252 234.821 123.914 235.228 123.671C235.644 123.428 236.134 123.255 236.697 123.151C237.269 123.047 237.898 122.995 238.582 122.995ZM238.582 128.299C239.05 128.299 239.497 128.277 239.921 128.234C240.346 128.191 240.723 128.104 241.052 127.974C241.382 127.853 241.637 127.658 241.819 127.389C242.01 127.12 242.105 126.761 242.105 126.31C242.105 125.859 242.01 125.5 241.819 125.231C241.637 124.962 241.382 124.763 241.052 124.633C240.723 124.503 240.346 124.416 239.921 124.373C239.497 124.338 239.05 124.321 238.582 124.321C238.088 124.321 237.629 124.338 237.204 124.373C236.78 124.416 236.407 124.503 236.086 124.633C235.766 124.763 235.514 124.962 235.332 125.231C235.15 125.5 235.059 125.859 235.059 126.31C235.059 126.761 235.15 127.12 235.332 127.389C235.514 127.658 235.766 127.853 236.086 127.974C236.407 128.104 236.78 128.191 237.204 128.234C237.629 128.277 238.088 128.299 238.582 128.299ZM240.857 130.727C241.334 130.727 241.741 130.831 242.079 131.039C242.417 131.247 242.677 131.524 242.859 131.871C243.041 132.226 243.132 132.625 243.132 133.067C243.132 133.518 243.041 133.921 242.859 134.276C242.677 134.631 242.417 134.904 242.079 135.095C241.741 135.294 241.334 135.394 240.857 135.394C240.389 135.394 239.986 135.294 239.648 135.095C239.31 134.896 239.046 134.614 238.855 134.25C238.673 133.895 238.582 133.492 238.582 133.041C238.582 132.356 238.786 131.797 239.193 131.364C239.609 130.939 240.164 130.727 240.857 130.727ZM240.857 134.354C241.369 134.354 241.75 134.224 242.001 133.964C242.253 133.713 242.378 133.409 242.378 133.054C242.378 132.707 242.253 132.404 242.001 132.144C241.75 131.884 241.369 131.754 240.857 131.754C240.346 131.754 239.965 131.88 239.713 132.131C239.471 132.382 239.349 132.686 239.349 133.041C239.349 133.388 239.471 133.691 239.713 133.951C239.965 134.22 240.346 134.354 240.857 134.354Z" fill="black"/>
<path d="M16.0031 138.836L13.5071 136.158C13.0391 135.646 12.6361 135.243 12.2981 134.949C11.9601 134.654 11.6481 134.442 11.3621 134.312C11.0675 134.182 10.7641 134.117 10.4521 134.117C9.99281 134.117 9.61581 134.251 9.32115 134.52C9.02648 134.78 8.87915 135.204 8.87915 135.794C8.87915 136.166 8.96148 136.483 9.12615 136.743C9.29081 137.003 9.52481 137.202 9.82815 137.341C10.1228 137.479 10.4695 137.553 10.8681 137.562V138.81C10.1748 138.792 9.59848 138.649 9.13915 138.381C8.67981 138.112 8.33748 137.752 8.11215 137.302C7.87815 136.842 7.76115 136.335 7.76115 135.781C7.76115 135.157 7.87381 134.624 8.09915 134.182C8.32448 133.731 8.64081 133.389 9.04815 133.155C9.44681 132.921 9.91481 132.804 10.4521 132.804C10.8421 132.804 11.2235 132.877 11.5961 133.025C11.9601 133.163 12.3545 133.406 12.7791 133.753C13.1951 134.099 13.6805 134.572 14.2351 135.17L15.8601 136.938V132.557H16.9521V138.836H16.0031ZM7.85215 125.047H8.81415L16.9521 128.661V129.961L8.94415 126.308V131.248H7.85215V125.047ZM12.4021 123.713C11.7261 123.713 11.1065 123.661 10.5431 123.557C9.97115 123.453 9.48148 123.28 9.07415 123.037C8.65815 122.794 8.33748 122.456 8.11215 122.023C7.87815 121.59 7.76115 121.048 7.76115 120.398C7.76115 119.739 7.87815 119.198 8.11215 118.773C8.33748 118.348 8.65815 118.015 9.07415 117.772C9.48148 117.521 9.97115 117.347 10.5431 117.252C11.1065 117.148 11.7261 117.096 12.4021 117.096C13.0868 117.096 13.7151 117.148 14.2871 117.252C14.8505 117.347 15.3401 117.521 15.7561 117.772C16.1635 118.015 16.4798 118.348 16.7051 118.773C16.9305 119.198 17.0431 119.739 17.0431 120.398C17.0431 121.048 16.9305 121.59 16.7051 122.023C16.4798 122.456 16.1635 122.794 15.7561 123.037C15.3401 123.28 14.8505 123.453 14.2871 123.557C13.7151 123.661 13.0868 123.713 12.4021 123.713ZM12.4021 118.409C11.9341 118.409 11.4878 118.431 11.0631 118.474C10.6385 118.517 10.2615 118.604 9.93215 118.734C9.60281 118.855 9.34715 119.05 9.16515 119.319C8.97448 119.588 8.87915 119.947 8.87915 120.398C8.87915 120.849 8.97448 121.208 9.16515 121.477C9.34715 121.746 9.60281 121.945 9.93215 122.075C10.2615 122.205 10.6385 122.292 11.0631 122.335C11.4878 122.37 11.9341 122.387 12.4021 122.387C12.8961 122.387 13.3555 122.37 13.7801 122.335C14.2048 122.292 14.5775 122.205 14.8981 122.075C15.2188 121.945 15.4701 121.746 15.6521 121.477C15.8341 121.208 15.9251 120.849 15.9251 120.398C15.9251 119.947 15.8341 119.588 15.6521 119.319C15.4701 119.05 15.2188 118.855 14.8981 118.734C14.5775 118.604 14.2048 118.517 13.7801 118.474C13.3555 118.431 12.8961 118.409 12.4021 118.409ZM10.1271 115.981C9.65048 115.981 9.24315 115.877 8.90515 115.669C8.56715 115.461 8.30715 115.184 8.12515 114.837C7.94315 114.482 7.85215 114.083 7.85215 113.641C7.85215 113.19 7.94315 112.787 8.12515 112.432C8.30715 112.077 8.56715 111.804 8.90515 111.613C9.24315 111.414 9.65048 111.314 10.1271 111.314C10.5951 111.314 10.9981 111.414 11.3361 111.613C11.6741 111.812 11.9385 112.094 12.1291 112.458C12.3111 112.813 12.4021 113.216 12.4021 113.667C12.4021 114.352 12.1985 114.911 11.7911 115.344C11.3751 115.769 10.8205 115.981 10.1271 115.981ZM10.1271 112.354C9.61581 112.354 9.23448 112.484 8.98315 112.744C8.73181 112.995 8.60615 113.299 8.60615 113.654C8.60615 114.001 8.73181 114.304 8.98315 114.564C9.23448 114.824 9.61581 114.954 10.1271 114.954C10.6385 114.954 11.0198 114.828 11.2711 114.577C11.5138 114.326 11.6351 114.022 11.6351 113.667C11.6351 113.32 11.5138 113.017 11.2711 112.757C11.0198 112.488 10.6385 112.354 10.1271 112.354Z" fill="black"/>
<path d="M136.937 243.024H138.172V244.116H135.637V235.016H136.937V243.024ZM132.173 239.8C132.624 239.982 132.979 240.238 133.239 240.567C133.499 240.905 133.629 241.325 133.629 241.828C133.629 242.27 133.512 242.669 133.278 243.024C133.044 243.379 132.702 243.665 132.251 243.882C131.792 244.099 131.215 244.207 130.522 244.207C129.837 244.207 129.265 244.099 128.806 243.882C128.347 243.665 128.004 243.375 127.779 243.011C127.545 242.656 127.428 242.261 127.428 241.828C127.428 241.351 127.562 240.935 127.831 240.58C128.1 240.233 128.451 239.973 128.884 239.8C128.364 239.635 127.952 239.362 127.649 238.981C127.337 238.6 127.181 238.132 127.181 237.577C127.181 237.031 127.324 236.559 127.61 236.16C127.896 235.77 128.29 235.467 128.793 235.25C129.287 235.033 129.863 234.925 130.522 234.925C131.181 234.925 131.761 235.033 132.264 235.25C132.767 235.467 133.161 235.77 133.447 236.16C133.724 236.559 133.863 237.031 133.863 237.577C133.863 238.132 133.711 238.6 133.408 238.981C133.096 239.371 132.684 239.644 132.173 239.8ZM128.754 241.685C128.754 242.179 128.91 242.534 129.222 242.751C129.525 242.976 129.959 243.089 130.522 243.089C131.077 243.089 131.514 242.981 131.835 242.764C132.147 242.547 132.303 242.183 132.303 241.672C132.303 241.23 132.143 240.879 131.822 240.619C131.501 240.368 131.068 240.242 130.522 240.242C129.976 240.242 129.547 240.368 129.235 240.619C128.914 240.879 128.754 241.234 128.754 241.685ZM130.522 239.228C130.912 239.228 131.263 239.172 131.575 239.059C131.878 238.946 132.117 238.773 132.29 238.539C132.463 238.305 132.55 237.997 132.55 237.616C132.55 237.113 132.377 236.723 132.03 236.446C131.675 236.177 131.172 236.043 130.522 236.043C129.881 236.043 129.382 236.182 129.027 236.459C128.672 236.736 128.494 237.122 128.494 237.616C128.494 237.98 128.581 238.279 128.754 238.513C128.927 238.756 129.166 238.933 129.469 239.046C129.772 239.167 130.123 239.228 130.522 239.228ZM125.622 239.566C125.622 240.242 125.57 240.862 125.466 241.425C125.362 241.997 125.189 242.487 124.946 242.894C124.703 243.31 124.365 243.631 123.932 243.856C123.499 244.09 122.957 244.207 122.307 244.207C121.648 244.207 121.107 244.09 120.682 243.856C120.257 243.631 119.924 243.31 119.681 242.894C119.43 242.487 119.256 241.997 119.161 241.425C119.057 240.862 119.005 240.242 119.005 239.566C119.005 238.881 119.057 238.253 119.161 237.681C119.256 237.118 119.43 236.628 119.681 236.212C119.924 235.805 120.257 235.488 120.682 235.263C121.107 235.038 121.648 234.925 122.307 234.925C122.957 234.925 123.499 235.038 123.932 235.263C124.365 235.488 124.703 235.805 124.946 236.212C125.189 236.628 125.362 237.118 125.466 237.681C125.57 238.253 125.622 238.881 125.622 239.566ZM120.318 239.566C120.318 240.034 120.34 240.48 120.383 240.905C120.426 241.33 120.513 241.707 120.643 242.036C120.764 242.365 120.959 242.621 121.228 242.803C121.497 242.994 121.856 243.089 122.307 243.089C122.758 243.089 123.117 242.994 123.386 242.803C123.655 242.621 123.854 242.365 123.984 242.036C124.114 241.707 124.201 241.33 124.244 240.905C124.279 240.48 124.296 240.034 124.296 239.566C124.296 239.072 124.279 238.613 124.244 238.188C124.201 237.763 124.114 237.391 123.984 237.07C123.854 236.749 123.655 236.498 123.386 236.316C123.117 236.134 122.758 236.043 122.307 236.043C121.856 236.043 121.497 236.134 121.228 236.316C120.959 236.498 120.764 236.749 120.643 237.07C120.513 237.391 120.426 237.763 120.383 238.188C120.34 238.613 120.318 239.072 120.318 239.566ZM117.89 241.841C117.89 242.318 117.786 242.725 117.578 243.063C117.37 243.401 117.093 243.661 116.746 243.843C116.391 244.025 115.992 244.116 115.55 244.116C115.099 244.116 114.696 244.025 114.341 243.843C113.986 243.661 113.713 243.401 113.522 243.063C113.323 242.725 113.223 242.318 113.223 241.841C113.223 241.373 113.323 240.97 113.522 240.632C113.721 240.294 114.003 240.03 114.367 239.839C114.722 239.657 115.125 239.566 115.576 239.566C116.261 239.566 116.82 239.77 117.253 240.177C117.678 240.593 117.89 241.148 117.89 241.841ZM114.263 241.841C114.263 242.352 114.393 242.734 114.653 242.985C114.904 243.236 115.208 243.362 115.563 243.362C115.91 243.362 116.213 243.236 116.473 242.985C116.733 242.734 116.863 242.352 116.863 241.841C116.863 241.33 116.737 240.948 116.486 240.697C116.235 240.454 115.931 240.333 115.576 240.333C115.229 240.333 114.926 240.454 114.666 240.697C114.397 240.948 114.263 241.33 114.263 241.841Z" fill="black"/>
</svg>
