<svg width="30" height="30" viewBox="0 0 30 30" fill="none" xmlns="http://www.w3.org/2000/svg">
<path d="M3.99976 25.9V4.1C3.99976 3.49249 4.49224 3 5.09976 3H11.627C12.2345 3 12.727 3.49249 12.727 4.1V25.9C12.727 26.5075 12.2345 27 11.627 27H5.09976C4.49224 27 3.99976 26.5075 3.99976 25.9Z" fill="#FCB717" stroke="black" stroke-width="1.5" stroke-linecap="round" stroke-linejoin="round"/>
<path d="M3.99976 8.14282H9.14261M3.99976 11.5714H7.42833M3.99976 15H9.14261M3.99976 18.4285H7.42833M3.99976 21.8571H9.14261" stroke="black" stroke-width="1.32" stroke-linecap="round" stroke-linejoin="round"/>
<path d="M10.5454 27H26.3636" stroke="black" stroke-width="1.5" stroke-linecap="round" stroke-linejoin="round"/>
<path d="M17.0908 6.27273L20.3635 3M20.3635 3L23.6363 6.27273M20.3635 3V24.8182M20.3635 24.8182L23.6363 21.5455M20.3635 24.8182L17.0908 21.5455" stroke="black" stroke-width="1.2" stroke-linecap="round" stroke-linejoin="round"/>
</svg>
