<svg width="30" height="30" viewBox="0 0 30 30" fill="none" xmlns="http://www.w3.org/2000/svg">
<path d="M2 14.0401V19.1428H28V14.0401C28 14.0401 26.67 12.6485 25.4015 12.6485C24.1331 12.6485 24.0715 14.0401 22.8031 14.0401C21.5346 14.0401 21.4731 12.6485 20.2046 12.6485C18.9362 12.6485 18.8746 14.0401 17.6062 14.0401C16.3377 14.0401 16.2762 12.6485 15.0077 12.6485C13.7393 12.6485 13.6777 14.0401 12.4093 14.0401C11.1408 14.0401 11.0793 12.6485 9.81083 12.6485C8.54238 12.6485 8.48082 14.0401 7.21237 14.0401C5.94392 14.0401 5.87564 12.7417 4.61392 12.6485C3.14252 12.5398 2 14.0401 2 14.0401Z" fill="#C0EBFF" stroke="black" stroke-width="1.2"/>
<path d="M2 25.4999V19.4414C2 18.7403 2.36451 18.0824 3.00714 17.8022C3.64516 17.5239 4.47766 17.2442 5.17073 17.2907C6.27443 17.3648 6.59979 18.3117 7.70732 18.3117C8.81484 18.3117 9.13638 17.2907 10.2439 17.2907C11.3514 17.2907 11.673 18.3117 12.7805 18.3117C13.888 18.3117 14.2096 17.2907 15.3171 17.2907C16.4246 17.2907 16.7461 18.3117 17.8537 18.3117C18.9612 18.3117 19.2827 17.2907 20.3902 17.2907C21.4978 17.2907 21.8193 18.3117 22.9268 18.3117C24.0344 18.3117 24.3559 17.2907 25.4634 17.2907C26.0059 17.2907 26.6256 17.5357 27.1167 17.7857C27.6922 18.0786 28 18.695 28 19.3408V25.4999C28 26.6045 27.1046 27.4999 26 27.4999H4C2.89543 27.4999 2 26.6045 2 25.4999Z" fill="#92DBFF" stroke="black" stroke-width="1.2" stroke-linecap="round" stroke-linejoin="round"/>
<path d="M3 9C3 9 4.42723 8 5.53333 8C6.63944 8 6.96056 9 8.06667 9C9.17277 9 9.4939 8 10.6 8C11.7061 8 12.0272 9 13.1333 9C14.2394 9 14.5606 8 15.6667 8C16.7728 8 17.1329 8.77024 18.2 9C19.6317 9.30826 22 9 22 9M22 9L19.4667 7M22 9L19.4667 11" stroke="black" stroke-width="1.2" stroke-linecap="round" stroke-linejoin="round"/>
<path d="M3.85718 21.9287C3.85718 21.9287 5.53122 21.0001 6.82861 21.0001C8.12599 21.0001 8.50265 21.9287 9.80003 21.9287C11.0974 21.9287 11.4741 21.0001 12.7715 21.0001C14.0688 21.0001 14.4455 21.9287 15.7429 21.9287C17.0403 21.9287 17.4169 21.0001 18.7143 21.0001C20.0117 21.0001 20.4341 21.7153 21.6857 21.9287C23.365 22.2149 26.1429 21.9287 26.1429 21.9287M26.1429 21.9287L23.1715 20.0715M26.1429 21.9287L23.1715 23.7858" stroke="white" stroke-width="1.2" stroke-linecap="round" stroke-linejoin="round"/>
</svg>
