<svg width="17" height="19" viewBox="0 0 17 19" fill="none" xmlns="http://www.w3.org/2000/svg">
<path d="M12.815 8.23506C12.815 10.6454 10.6872 12.6001 8.0623 12.6001C5.43743 12.6001 3.30957 10.646 3.30957 8.23506C3.30957 5.16615 6.46267 1.88474 7.63251 0.773276C7.748 0.662164 7.90204 0.600098 8.0623 0.600098C8.22256 0.600098 8.37659 0.662164 8.49208 0.773276C9.66193 1.88406 12.815 5.16615 12.815 8.23506Z" stroke="black" stroke-width="1.2"/>
<path d="M5.30957 7.93335C5.30957 8.7481 5.82815 9.66177 6.6429 9.93335" stroke="black" stroke-width="1.2" stroke-linecap="round" stroke-linejoin="round"/>
<path d="M0.5 15.8195C0.5 15.8195 1.19513 14.5024 2.25611 14.5024C3.31709 14.5024 3.82929 15.8195 4.89027 15.8195C5.95125 15.8195 6.02442 14.5024 7.08541 14.5024C8.14639 14.5024 8.21956 15.8195 9.28054 15.8195C10.3415 15.8195 10.4147 14.5024 11.4757 14.5024C12.5367 14.5024 12.6098 14.5024 13.6708 14.5024C14.7318 14.5024 14.805 14.5024 15.8659 14.5024" stroke="black" stroke-linecap="round"/>
<path d="M0.5 18.4538C0.5 18.4538 1.19513 17.1367 2.25611 17.1367C3.31709 17.1367 3.82929 18.4538 4.89027 18.4538C5.95125 18.4538 6.02442 17.1367 7.0854 17.1367C8.14639 17.1367 8.21956 18.4538 9.28054 18.4538C10.3415 18.4538 10.4147 17.1367 11.4757 17.1367C12.5367 17.1367 12.6098 17.1367 13.6708 17.1367" stroke="black" stroke-linecap="round"/>
<path d="M14.5488 13.1855L16.3049 14.5026L14.5488 15.8197" stroke="black" stroke-linecap="round" stroke-linejoin="round"/>
<path d="M12.793 15.8198L14.5491 17.1369L12.793 18.454" stroke="black" stroke-linecap="round" stroke-linejoin="round"/>
</svg>
