<svg width="30" height="30" viewBox="0 0 30 30" fill="none" xmlns="http://www.w3.org/2000/svg">
<path d="M9 11.4828V13.3C9 13.4105 9.08954 13.5 9.2 13.5H21.8C21.9105 13.5 22 13.4105 22 13.3V11.4828C22 11.3047 22.2154 11.2154 22.3414 11.3414L25.8586 14.8586C25.9367 14.9367 25.9367 15.0633 25.8586 15.1414L22.3414 18.6586C22.2154 18.7846 22 18.6953 22 18.5172V16.7C22 16.5895 21.9105 16.5 21.8 16.5H9.2C9.08954 16.5 9 16.5895 9 16.7V18.5172C9 18.6953 8.78457 18.7846 8.65858 18.6586L5.14142 15.1414C5.06332 15.0633 5.06332 14.9367 5.14142 14.8586L8.65858 11.3414C8.78457 11.2154 9 11.3047 9 11.4828Z" fill="#FCB717" stroke="black" stroke-linecap="round" stroke-linejoin="round"/>
<path d="M3.8 8H2.2C2.08954 8 2 8.08954 2 8.2V21.8C2 21.9105 2.08954 22 2.2 22H3.8C3.91046 22 4 21.9105 4 21.8V8.2C4 8.08954 3.91046 8 3.8 8Z" fill="#DA4A54" stroke="black" stroke-linecap="round" stroke-linejoin="round"/>
<path d="M28.8 8H27.2C27.0895 8 27 8.08954 27 8.2V21.8C27 21.9105 27.0895 22 27.2 22H28.8C28.9105 22 29 21.9105 29 21.8V8.2C29 8.08954 28.9105 8 28.8 8Z" fill="#DA4A54" stroke="black" stroke-linecap="round" stroke-linejoin="round"/>
<path d="M14 9C14 8.73478 14.1054 8.48043 14.2929 8.29289C14.4804 8.10536 14.7348 8 15 8C15.2652 8 15.5196 8.10536 15.7071 8.29289C15.8946 8.48043 16 8.73478 16 9V10.65M14 8V10.65M16 9C16 8.73478 16.1054 8.48043 16.2929 8.29289C16.4804 8.10536 16.7348 8 17 8C17.2652 8 17.5196 8.10536 17.7071 8.29289C17.8946 8.48043 18 8.73478 18 9V10.65" stroke="black" stroke-width="0.5" stroke-linecap="round" stroke-linejoin="round"/>
<path d="M14 9C14 8.73478 14.1054 8.48043 14.2929 8.29289C14.4804 8.10536 14.7348 8 15 8C15.2652 8 15.5196 8.10536 15.7071 8.29289C15.8946 8.48043 16 8.73478 16 9M16 9V10.65M16 9C16 8.73478 16.1054 8.48043 16.2929 8.29289C16.4804 8.10536 16.7348 8 17 8C17.2652 8 17.5196 8.10536 17.7071 8.29289C17.8946 8.48043 18 8.73478 18 9V10.65M14 8V10.65" stroke="black" stroke-width="0.8" stroke-linecap="round" stroke-linejoin="round"/>
</svg>
