<svg width="30" height="30" viewBox="0 0 30 30" fill="none" xmlns="http://www.w3.org/2000/svg">
<path d="M11 7.50009C9.31093 7.50009 6.82523 7.87328 6.16564 7.97722C6.069 7.99245 6 8.07555 6 8.17338V21.8001C6 21.9105 6.08954 22.0001 6.2 22.0001H23.8C23.9105 22.0001 24 21.9105 24 21.8001V8.16137C24 8.06724 23.9352 7.98612 23.843 7.96716C23.3276 7.86118 21.6548 7.53379 20.5 7.50012C18.7327 7.44859 17.7681 7.98196 16 8.00009C14.0378 8.02021 12.9624 7.50009 11 7.50009Z" fill="#46BAE5" stroke="black" stroke-linecap="round" stroke-linejoin="round"/>
<path d="M5.96253 5.94758C4.95026 4.54147 4.07023 4.13775 2.21115 4.0128C2.09668 4.00511 2 4.09646 2 4.21119V24C2 25.1046 2.89543 26 4 26H26C27.1046 26 28 25.1046 28 24V4.20322C28 4.09152 27.9082 4.00129 27.7965 4.00454C25.9705 4.05766 25.0765 4.43838 24.0352 5.94859C24.0124 5.98162 24 6.02146 24 6.06158V20C24 21.1046 23.1046 22 22 22H8C6.89543 22 6 21.1046 6 20V6.06377C6 6.02228 5.98676 5.98124 5.96253 5.94758Z" fill="#876349" stroke="black" stroke-linecap="round" stroke-linejoin="round"/>
<path d="M10 9L9 10M9 10L10 11M9 10H23M23 10L22 11M23 10L22 9" stroke="black" stroke-width="0.5" stroke-linecap="round" stroke-linejoin="round"/>
<path d="M9.5 12L8.5 11M8.5 11L7.5 12M8.5 11L8.5 20.5M8.5 20.5L7.5 19.5M8.5 20.5L9.5 19.5" stroke="black" stroke-width="0.5" stroke-linecap="round" stroke-linejoin="round"/>
</svg>
