<svg width="40" height="40" viewBox="0 0 40 40" fill="none" xmlns="http://www.w3.org/2000/svg">
<g filter="url(#filter0_d_1774_9235)">
<path d="M31.3073 5.9724C34.3545 9.0192 36.0972 13.1317 36.1671 17.4402C36.237 21.7487 34.6285 25.9155 31.6817 29.0595L31.3073 29.4467L23.4825 37.2697C22.4897 38.2619 21.1568 38.8396 19.7539 38.8859C18.351 38.9321 16.983 38.4433 15.927 37.5186L15.6614 37.2697L7.83482 29.4449C4.72218 26.3323 2.97351 22.1106 2.97351 17.7086C2.97351 13.3067 4.72218 9.08504 7.83482 5.9724C10.9475 2.85975 15.1691 1.11108 19.5711 1.11108C23.973 1.11108 28.1947 2.85975 31.3073 5.9724Z" fill="white"/>
</g>
<path d="M33.0159 17.3016C33.0159 24.7531 26.9753 30.7937 19.5238 30.7937C12.0723 30.7937 6.03174 24.7531 6.03174 17.3016C6.03174 9.85017 12.0723 3.80957 19.5238 3.80957C26.9753 3.80957 33.0159 9.85017 33.0159 17.3016Z" fill="#4FA03A"/>
<path d="M24.3148 15.7812C24.3148 18.1915 22.1869 20.1462 19.5621 20.1462C16.9372 20.1462 14.8093 18.1922 14.8093 15.7812C14.8093 12.7123 17.9624 9.43088 19.1323 8.31942C19.2478 8.20831 19.4018 8.14624 19.5621 8.14624C19.7223 8.14624 19.8763 8.20831 19.9918 8.31942C21.1617 9.4302 24.3148 12.7123 24.3148 15.7812Z" stroke="white" stroke-width="1.2"/>
<path d="M16.8093 15.4796C16.8093 16.2944 17.3279 17.208 18.1427 17.4796" stroke="white" stroke-width="1.2" stroke-linecap="round" stroke-linejoin="round"/>
<path d="M12 23.3658C12 23.3658 12.6951 22.0487 13.7561 22.0487C14.8171 22.0487 15.3293 23.3658 16.3903 23.3658C17.4513 23.3658 17.5244 22.0487 18.5854 22.0487C19.6464 22.0487 19.7196 23.3658 20.7805 23.3658C21.8415 23.3658 21.9147 22.0487 22.9757 22.0487C24.0367 22.0487 24.1098 22.0487 25.1708 22.0487C26.2318 22.0487 26.305 22.0487 27.3659 22.0487" stroke="white" stroke-linecap="round"/>
<path d="M12 25.9999C12 25.9999 12.6951 24.6829 13.7561 24.6829C14.8171 24.6829 15.3293 25.9999 16.3903 25.9999C17.4513 25.9999 17.5244 24.6829 18.5854 24.6829C19.6464 24.6829 19.7196 25.9999 20.7805 25.9999C21.8415 25.9999 21.9147 24.6829 22.9757 24.6829C24.0367 24.6829 24.1098 24.6829 25.1708 24.6829" stroke="white" stroke-linecap="round"/>
<path d="M26.0488 20.7316L27.8049 22.0486L26.0488 23.3657" stroke="white" stroke-linecap="round" stroke-linejoin="round"/>
<path d="M24.2927 23.3658L26.0488 24.6829L24.2927 26" stroke="white" stroke-linecap="round" stroke-linejoin="round"/>
<defs>
<filter id="filter0_d_1774_9235" x="1.97351" y="0.111084" width="35.1958" height="39.7778" filterUnits="userSpaceOnUse" color-interpolation-filters="sRGB">
<feFlood flood-opacity="0" result="BackgroundImageFix"/>
<feColorMatrix in="SourceAlpha" type="matrix" values="0 0 0 0 0 0 0 0 0 0 0 0 0 0 0 0 0 0 127 0" result="hardAlpha"/>
<feOffset/>
<feGaussianBlur stdDeviation="0.5"/>
<feComposite in2="hardAlpha" operator="out"/>
<feColorMatrix type="matrix" values="0 0 0 0 0 0 0 0 0 0 0 0 0 0 0 0 0 0 0.25 0"/>
<feBlend mode="normal" in2="BackgroundImageFix" result="effect1_dropShadow_1774_9235"/>
<feBlend mode="normal" in="SourceGraphic" in2="effect1_dropShadow_1774_9235" result="shape"/>
</filter>
</defs>
</svg>
