<svg width="231" height="250" viewBox="0 0 231 250" fill="none" xmlns="http://www.w3.org/2000/svg">
<g filter="url(#filter0_i_713_33116)">
<rect x="54.1641" y="194.178" width="121.72" height="44.3488" fill="url(#paint0_linear_713_33116)"/>
</g>
<rect x="53.6641" y="193.678" width="122.72" height="45.3488" stroke="black"/>
<g filter="url(#filter1_i_713_33116)">
<rect x="47.209" y="233.309" width="135.631" height="14.7829" rx="4" fill="url(#paint1_linear_713_33116)"/>
</g>
<rect x="46.709" y="232.809" width="136.631" height="15.7829" rx="4.5" stroke="black"/>
<g filter="url(#filter2_i_713_33116)">
<ellipse cx="115.025" cy="115.046" rx="81.7261" ry="81.7409" fill="#E6E6E6"/>
</g>
<path d="M201.967 115.045C201.967 163.071 163.042 202.004 115.025 202.004C67.0076 202.004 28.082 163.071 28.082 115.045C28.082 67.0195 67.0076 28.0869 115.025 28.0869C163.042 28.0869 201.967 67.0195 201.967 115.045ZM39.1473 115.045C39.1473 156.959 73.1188 190.936 115.025 190.936C156.931 190.936 190.902 156.959 190.902 115.045C190.902 73.1318 156.931 39.1542 115.025 39.1542C73.1188 39.1542 39.1473 73.1318 39.1473 115.045Z" fill="#1A1A1A"/>
<path d="M188.685 161.272C187.204 163.863 164.578 202.004 115.024 202.004C65.471 202.004 42.8507 163.863 41.3709 161.272C41.3332 161.206 41.3859 161.133 41.4619 161.133H188.594C188.67 161.133 188.722 161.206 188.685 161.272Z" fill="#1A1A1A"/>
<path d="M188.685 68.8192C187.204 66.2275 164.578 28.0871 115.024 28.0871C65.471 28.0871 42.8507 66.2276 41.3709 68.8192C41.3332 68.8852 41.3859 68.9575 41.4619 68.9575H188.594C188.67 68.9575 188.722 68.8852 188.685 68.8192Z" fill="#1A1A1A"/>
<g filter="url(#filter3_i_713_33116)">
<ellipse cx="104.592" cy="187.221" rx="7.82484" ry="7.82625" fill="#04A39B"/>
</g>
<g filter="url(#filter4_i_713_33116)">
<ellipse cx="125.458" cy="187.221" rx="7.82484" ry="7.82625" fill="#04A39B"/>
</g>
<g filter="url(#filter5_i_713_33116)">
<ellipse cx="146.325" cy="182.003" rx="7.82484" ry="7.82625" fill="#04A39B"/>
</g>
<g filter="url(#filter6_i_713_33116)">
<ellipse cx="83.7252" cy="182.003" rx="7.82484" ry="7.82625" fill="#04A39B"/>
</g>
<mask id="path-13-outside-1_713_33116" maskUnits="userSpaceOnUse" x="0" y="0" width="231" height="231" fill="black">
<rect fill="white" width="231" height="231"/>
<path d="M115.025 1C118.199 1.00001 121.342 1.13137 124.45 1.38618C125.301 1.456 125.896 2.25329 125.734 3.09206C125.581 3.87675 126.094 4.63632 126.879 4.78886L149.889 9.26229C150.537 9.38817 151.164 8.96523 151.289 8.31768C151.427 7.60792 152.159 7.18205 152.841 7.42183C157.233 8.96547 161.501 10.7709 165.627 12.8184C166.148 13.0767 166.318 13.7348 165.992 14.2161C165.693 14.6577 165.809 15.258 166.25 15.557L186.132 29.0233C186.638 29.3658 187.325 29.2333 187.668 28.7274C188.035 28.184 188.793 28.0782 189.291 28.5058C193.014 31.7049 196.527 35.1404 199.81 38.7887C200.348 39.3869 200.245 40.317 199.595 40.7919C198.984 41.2386 198.851 42.0958 199.297 42.7068L213.275 61.8379C213.608 62.2936 214.247 62.3929 214.703 62.0597C215.204 61.693 215.914 61.8548 216.201 62.4056C218.868 67.5212 221.158 72.8638 223.035 78.3976C223.291 79.1539 222.815 79.9575 222.03 80.106C221.311 80.2422 220.838 80.9357 220.974 81.655L225.301 104.53C225.453 105.333 226.228 105.862 227.032 105.709C227.895 105.546 228.711 106.165 228.772 107.042C228.956 109.686 229.051 112.355 229.051 115.046C229.051 117.86 228.948 120.65 228.747 123.413C228.679 124.352 227.816 125.023 226.886 124.871C226.004 124.728 225.172 125.327 225.028 126.21L221.264 149.318C221.171 149.893 221.561 150.435 222.136 150.529C222.777 150.633 223.172 151.285 222.963 151.899C221.337 156.664 219.405 161.287 217.19 165.744C216.792 166.545 215.781 166.807 215.036 166.312C214.345 165.854 213.412 166.042 212.954 166.733L200.154 186.019C199.715 186.681 199.896 187.573 200.557 188.012C201.275 188.488 201.416 189.485 200.848 190.133C197.207 194.293 193.268 198.185 189.065 201.778C188.402 202.345 187.397 202.205 186.902 201.487C186.437 200.812 185.512 200.642 184.837 201.107L165.525 214.418C165.004 214.777 164.873 215.491 165.232 216.012C165.627 216.585 165.424 217.375 164.798 217.679C160.393 219.82 155.829 221.686 151.129 223.254C150.436 223.485 149.702 223.049 149.564 222.331C149.437 221.67 148.798 221.238 148.138 221.365L124.98 225.813C124.284 225.946 123.828 226.619 123.961 227.315C124.106 228.066 123.565 228.776 122.802 228.828C120.232 229.002 117.639 229.092 115.025 229.092C112.365 229.092 109.726 228.999 107.111 228.818C106.152 228.752 105.477 227.855 105.664 226.912C105.837 226.038 105.269 225.19 104.395 225.017L81.9259 220.568C81.0785 220.401 80.2555 220.952 80.0876 221.799C79.9054 222.718 78.9606 223.273 78.0737 222.969C73.565 221.425 69.1842 219.605 64.9503 217.532C64.3609 217.243 64.1622 216.503 64.5212 215.954C64.8536 215.445 64.7107 214.764 64.2022 214.432L44.1809 201.354C43.6862 201.031 43.0231 201.17 42.6998 201.664C42.3496 202.2 41.6099 202.311 41.1226 201.896C37.2583 198.603 33.616 195.058 30.2224 191.285C29.4788 190.458 29.6346 189.172 30.5416 188.529C31.3896 187.928 31.5896 186.753 30.9883 185.905L17.9386 167.504C17.4132 166.763 16.3867 166.588 15.6457 167.113C14.8349 167.688 13.7027 167.418 13.2535 166.532C10.7594 161.609 8.6126 156.481 6.84355 151.18C6.61578 150.498 7.05401 149.776 7.76326 149.655C8.40743 149.545 8.8404 148.934 8.73027 148.29L4.79151 125.252C4.64886 124.418 3.85677 123.857 3.02238 124C2.13476 124.151 1.30725 123.509 1.24828 122.61C1.08418 120.11 1.00001 117.588 1 115.046C1 112.105 1.11202 109.19 1.33088 106.305C1.40418 105.339 2.2943 104.652 3.25029 104.81C4.15942 104.96 5.01817 104.345 5.16825 103.436L8.96929 80.4112C9.06662 79.8216 8.6677 79.2647 8.07812 79.1671C7.42151 79.0584 7.01728 78.3883 7.23476 77.7593C9.10603 72.3469 11.3733 67.1194 14.002 62.1113C14.3387 61.4698 15.1551 61.2634 15.7614 61.6602C16.3333 62.0345 17.1003 61.8742 17.4745 61.3023L30.6245 41.206C30.8761 40.8215 30.7684 40.3058 30.3839 40.0541C29.9595 39.7763 29.8801 39.1866 30.2193 38.8094C33.6078 35.0412 37.244 31.5005 41.1018 28.2121C41.7094 27.6942 42.6314 27.8342 43.0672 28.5032C43.4696 29.1211 44.2968 29.2958 44.9147 28.8933L64.5194 16.1231C65.1446 15.7159 65.3213 14.8789 64.914 14.2537C64.4737 13.5777 64.7199 12.6685 65.4461 12.3172C69.7319 10.244 74.1669 8.43087 78.731 6.89911C79.3228 6.70053 79.9484 7.08302 80.0482 7.69914C80.1381 8.25421 80.6609 8.63136 81.2159 8.54161L104.449 4.78524C105.283 4.65035 105.85 3.86477 105.715 3.03052C105.573 2.15027 106.21 1.3344 107.1 1.27314C109.718 1.09282 112.361 1 115.025 1ZM115.025 29.0811C67.5574 29.0811 29.0771 67.5689 29.0771 115.046C29.0774 162.523 67.5575 201.011 115.025 201.011C162.493 201.01 200.974 162.523 200.975 115.046C200.975 67.569 162.493 29.0813 115.025 29.0811ZM28.0859 116.286C28.0913 116.654 28.0985 117.02 28.1084 117.387C28.0986 117.02 28.0911 116.654 28.0859 116.286ZM28.1401 111.684C28.1399 111.684 28.1396 111.684 28.1396 111.684C28.0973 112.799 28.0762 113.92 28.0762 115.046C28.0762 115.404 28.0785 115.761 28.083 116.117C28.0787 115.761 28.0772 115.404 28.0771 115.046C28.0771 113.92 28.0982 112.799 28.1406 111.684C28.1406 111.684 28.1404 111.684 28.1401 111.684Z"/>
</mask>
<g filter="url(#filter7_i_713_33116)">
<path d="M115.025 1C118.199 1.00001 121.342 1.13137 124.45 1.38618C125.301 1.456 125.896 2.25329 125.734 3.09206C125.581 3.87675 126.094 4.63632 126.879 4.78886L149.889 9.26229C150.537 9.38817 151.164 8.96523 151.289 8.31768C151.427 7.60792 152.159 7.18205 152.841 7.42183C157.233 8.96547 161.501 10.7709 165.627 12.8184C166.148 13.0767 166.318 13.7348 165.992 14.2161C165.693 14.6577 165.809 15.258 166.25 15.557L186.132 29.0233C186.638 29.3658 187.325 29.2333 187.668 28.7274C188.035 28.184 188.793 28.0782 189.291 28.5058C193.014 31.7049 196.527 35.1404 199.81 38.7887C200.348 39.3869 200.245 40.317 199.595 40.7919C198.984 41.2386 198.851 42.0958 199.297 42.7068L213.275 61.8379C213.608 62.2936 214.247 62.3929 214.703 62.0597C215.204 61.693 215.914 61.8548 216.201 62.4056C218.868 67.5212 221.158 72.8638 223.035 78.3976C223.291 79.1539 222.815 79.9575 222.03 80.106C221.311 80.2422 220.838 80.9357 220.974 81.655L225.301 104.53C225.453 105.333 226.228 105.862 227.032 105.709C227.895 105.546 228.711 106.165 228.772 107.042C228.956 109.686 229.051 112.355 229.051 115.046C229.051 117.86 228.948 120.65 228.747 123.413C228.679 124.352 227.816 125.023 226.886 124.871C226.004 124.728 225.172 125.327 225.028 126.21L221.264 149.318C221.171 149.893 221.561 150.435 222.136 150.529C222.777 150.633 223.172 151.285 222.963 151.899C221.337 156.664 219.405 161.287 217.19 165.744C216.792 166.545 215.781 166.807 215.036 166.312C214.345 165.854 213.412 166.042 212.954 166.733L200.154 186.019C199.715 186.681 199.896 187.573 200.557 188.012C201.275 188.488 201.416 189.485 200.848 190.133C197.207 194.293 193.268 198.185 189.065 201.778C188.402 202.345 187.397 202.205 186.902 201.487C186.437 200.812 185.512 200.642 184.837 201.107L165.525 214.418C165.004 214.777 164.873 215.491 165.232 216.012C165.627 216.585 165.424 217.375 164.798 217.679C160.393 219.82 155.829 221.686 151.129 223.254C150.436 223.485 149.702 223.049 149.564 222.331C149.437 221.67 148.798 221.238 148.138 221.365L124.98 225.813C124.284 225.946 123.828 226.619 123.961 227.315C124.106 228.066 123.565 228.776 122.802 228.828C120.232 229.002 117.639 229.092 115.025 229.092C112.365 229.092 109.726 228.999 107.111 228.818C106.152 228.752 105.477 227.855 105.664 226.912C105.837 226.038 105.269 225.19 104.395 225.017L81.9259 220.568C81.0785 220.401 80.2555 220.952 80.0876 221.799C79.9054 222.718 78.9606 223.273 78.0737 222.969C73.565 221.425 69.1842 219.605 64.9503 217.532C64.3609 217.243 64.1622 216.503 64.5212 215.954C64.8536 215.445 64.7107 214.764 64.2022 214.432L44.1809 201.354C43.6862 201.031 43.0231 201.17 42.6998 201.664C42.3496 202.2 41.6099 202.311 41.1226 201.896C37.2583 198.603 33.616 195.058 30.2224 191.285C29.4788 190.458 29.6346 189.172 30.5416 188.529C31.3896 187.928 31.5896 186.753 30.9883 185.905L17.9386 167.504C17.4132 166.763 16.3867 166.588 15.6457 167.113C14.8349 167.688 13.7027 167.418 13.2535 166.532C10.7594 161.609 8.6126 156.481 6.84355 151.18C6.61578 150.498 7.05401 149.776 7.76326 149.655C8.40743 149.545 8.8404 148.934 8.73027 148.29L4.79151 125.252C4.64886 124.418 3.85677 123.857 3.02238 124C2.13476 124.151 1.30725 123.509 1.24828 122.61C1.08418 120.11 1.00001 117.588 1 115.046C1 112.105 1.11202 109.19 1.33088 106.305C1.40418 105.339 2.2943 104.652 3.25029 104.81C4.15942 104.96 5.01817 104.345 5.16825 103.436L8.96929 80.4112C9.06662 79.8216 8.6677 79.2647 8.07812 79.1671C7.42151 79.0584 7.01728 78.3883 7.23476 77.7593C9.10603 72.3469 11.3733 67.1194 14.002 62.1113C14.3387 61.4698 15.1551 61.2634 15.7614 61.6602C16.3333 62.0345 17.1003 61.8742 17.4745 61.3023L30.6245 41.206C30.8761 40.8215 30.7684 40.3058 30.3839 40.0541C29.9595 39.7763 29.8801 39.1866 30.2193 38.8094C33.6078 35.0412 37.244 31.5005 41.1018 28.2121C41.7094 27.6942 42.6314 27.8342 43.0672 28.5032C43.4696 29.1211 44.2968 29.2958 44.9147 28.8933L64.5194 16.1231C65.1446 15.7159 65.3213 14.8789 64.914 14.2537C64.4737 13.5777 64.7199 12.6685 65.4461 12.3172C69.7319 10.244 74.1669 8.43087 78.731 6.89911C79.3228 6.70053 79.9484 7.08302 80.0482 7.69914C80.1381 8.25421 80.6609 8.63136 81.2159 8.54161L104.449 4.78524C105.283 4.65035 105.85 3.86477 105.715 3.03052C105.573 2.15027 106.21 1.3344 107.1 1.27314C109.718 1.09282 112.361 1 115.025 1ZM115.025 29.0811C67.5574 29.0811 29.0771 67.5689 29.0771 115.046C29.0774 162.523 67.5575 201.011 115.025 201.011C162.493 201.01 200.974 162.523 200.975 115.046C200.975 67.569 162.493 29.0813 115.025 29.0811ZM28.0859 116.286C28.0913 116.654 28.0985 117.02 28.1084 117.387C28.0986 117.02 28.0911 116.654 28.0859 116.286ZM28.1401 111.684C28.1399 111.684 28.1396 111.684 28.1396 111.684C28.0973 112.799 28.0762 113.92 28.0762 115.046C28.0762 115.404 28.0785 115.761 28.083 116.117C28.0787 115.761 28.0772 115.404 28.0771 115.046C28.0771 113.92 28.0982 112.799 28.1406 111.684C28.1406 111.684 28.1404 111.684 28.1401 111.684Z" fill="#467BDD"/>
</g>
<path d="M115.025 1L115.025 0H115.025V1ZM229.051 115.046L230.051 115.046V115.046H229.051ZM115.025 229.092V230.092H115.025L115.025 229.092ZM1 115.046H0V115.046L1 115.046ZM115.025 29.0811L115.025 28.0811H115.025V29.0811ZM29.0771 115.046H28.0771V115.046L29.0771 115.046ZM115.025 201.011V202.011H115.025L115.025 201.011ZM200.975 115.046L201.975 115.046V115.046H200.975ZM28.0859 116.286L29.0858 116.272L27.086 116.3L28.0859 116.286ZM28.1084 117.387L27.1088 117.414L29.108 117.36L28.1084 117.387ZM28.0762 115.046H27.0762V115.046L28.0762 115.046ZM28.083 116.117L27.0831 116.13L29.0829 116.105L28.083 116.117ZM28.0771 115.046H27.0771V115.046L28.0771 115.046ZM28.1406 111.684L27.1413 111.646L28.1406 111.684ZM28.1396 111.684L29.1389 111.722L28.1396 111.684ZM105.715 3.03052L106.702 2.871L105.715 3.03052ZM104.449 4.78524L104.289 3.79806L104.449 4.78524ZM80.0482 7.69914L79.061 7.85901L80.0482 7.69914ZM81.216 8.54161L81.0563 7.55443L81.216 8.54161ZM78.731 6.89911L79.0492 7.84715L78.731 6.89911ZM64.914 14.2537L65.752 13.708L64.914 14.2537ZM65.4461 12.3172L65.8816 13.2174L65.4461 12.3172ZM64.5194 16.1231L65.0652 16.961V16.961L64.5194 16.1231ZM43.0672 28.5032L43.9051 27.9575L43.0672 28.5032ZM44.9147 28.8933L44.3689 28.0554L44.9147 28.8933ZM41.1018 28.2121L40.4531 27.4511L41.1018 28.2121ZM30.2193 38.8094L29.4757 38.1408L30.2193 38.8094ZM15.7614 61.6602L15.2138 62.4969L15.7614 61.6602ZM17.4745 61.3023L16.6377 60.7548L17.4745 61.3023ZM14.002 62.1113L14.8874 62.5761L14.002 62.1113ZM8.07812 79.1671L8.24145 78.1805L8.07812 79.1671ZM7.23476 77.7593L8.17987 78.086L7.23476 77.7593ZM8.96929 80.4112L7.98264 80.2483L8.96929 80.4112ZM3.25029 104.81L3.41332 103.823L3.25029 104.81ZM5.16825 103.436L4.18161 103.273L5.16825 103.436ZM1.33088 106.305L0.333744 106.229L1.33088 106.305ZM3.02238 124L2.85379 123.014L3.02238 124ZM6.84355 151.18L7.79213 150.864L6.84355 151.18ZM7.76326 149.655L7.93164 150.641L7.76326 149.655ZM15.6457 167.113L16.2241 167.929L15.6457 167.113ZM13.2535 166.532L14.1455 166.08L13.2535 166.532ZM17.9386 167.504L17.1229 168.082L17.9386 167.504ZM30.5416 188.529L31.12 189.345L30.5416 188.529ZM30.9883 185.905L30.1726 186.483L30.9883 185.905ZM30.2224 191.285L30.9659 190.616L30.2224 191.285ZM42.6998 201.664L43.5369 202.211L42.6998 201.664ZM41.1226 201.896L40.474 202.657L41.1226 201.896ZM44.1809 201.354L44.7278 200.516L44.1809 201.354ZM64.5212 215.954L63.6842 215.407L64.5212 215.954ZM64.2022 214.432L63.6553 215.269L64.2022 214.432ZM64.9503 217.532L64.5105 218.43L64.9503 217.532ZM80.0876 221.799L81.0685 221.993L80.0876 221.799ZM81.9259 220.568L81.7317 221.549L81.9259 220.568ZM105.664 226.912L104.683 226.718L105.664 226.912ZM104.395 225.017L104.201 225.998L104.395 225.017ZM107.111 228.818L107.18 227.821L107.111 228.818ZM123.961 227.315L122.979 227.504L123.961 227.315ZM122.802 228.828L122.87 229.826L122.802 228.828ZM124.98 225.813L125.169 226.795L124.98 225.813ZM149.564 222.331L148.582 222.52L149.564 222.331ZM148.138 221.365L148.326 222.347L148.138 221.365ZM151.129 223.254L150.813 222.305L151.129 223.254ZM165.232 216.012L164.408 216.579L165.232 216.012ZM164.798 217.679L164.361 216.78L164.798 217.679ZM165.525 214.418L166.093 215.242L165.525 214.418ZM186.902 201.487L186.078 202.054L186.902 201.487ZM184.837 201.107L184.27 200.284L184.837 201.107ZM189.065 201.778L189.715 202.538L189.065 201.778ZM200.557 188.012L200.004 188.845L200.557 188.012ZM200.848 190.133L201.601 190.792L200.848 190.133ZM215.036 166.312L215.589 165.479L215.036 166.312ZM212.954 166.733L212.12 166.18L212.954 166.733ZM217.19 165.744L218.086 166.189L217.19 165.744ZM222.136 150.529L222.297 149.542L222.136 150.529ZM222.963 151.899L222.017 151.576L222.963 151.899ZM221.264 149.318L220.277 149.157L221.264 149.318ZM226.886 124.871L227.047 123.884L226.886 124.871ZM225.028 126.21L226.015 126.37L225.028 126.21ZM228.747 123.413L229.744 123.486L228.747 123.413ZM227.032 105.709L227.218 106.692L227.032 105.709ZM228.772 107.042L229.77 106.972L228.772 107.042ZM225.301 104.53L224.318 104.715L225.301 104.53ZM222.03 80.106L222.216 81.0886L222.03 80.106ZM220.974 81.655L219.991 81.8409L220.974 81.655ZM223.035 78.3976L223.982 78.0765L223.035 78.3976ZM214.703 62.0597L215.293 62.8669L214.703 62.0597ZM216.201 62.4056L215.315 62.8678L216.201 62.4056ZM213.275 61.8379L214.082 61.2479L213.275 61.8379ZM199.595 40.7919L199.005 39.9847L199.595 40.7919ZM199.298 42.7068L200.105 42.1169L199.298 42.7068ZM199.81 38.7887L200.553 38.1199L199.81 38.7887ZM187.668 28.7274L186.839 28.1671L187.668 28.7274ZM189.291 28.5058L189.942 27.7474L189.291 28.5058ZM186.132 29.0233L185.571 29.8512L186.132 29.0233ZM165.992 14.2161L165.164 13.6557L165.992 14.2161ZM166.25 15.557L165.69 16.385L166.25 15.557ZM165.627 12.8184L166.072 11.9226L165.627 12.8184ZM151.289 8.31768L152.271 8.50836L151.289 8.31768ZM152.841 7.42183L152.51 8.36524L152.841 7.42183ZM149.889 9.26229L149.698 10.2439L149.889 9.26229ZM4.79151 125.252L5.77721 125.084L4.79151 125.252ZM125.734 3.09206L124.752 2.90163L125.734 3.09206ZM200.154 186.019L199.321 185.466L200.154 186.019ZM8.73027 148.29L9.71597 148.121L8.73027 148.29ZM124.45 1.38618L124.368 2.38283L124.45 1.38618ZM115.025 1L115.025 2C118.171 2.00001 121.287 2.13022 124.368 2.38283L124.45 1.38618L124.531 0.389524C121.397 0.132511 118.226 1.28746e-05 115.025 0L115.025 1ZM126.879 4.78886L126.688 5.77048L149.698 10.2439L149.889 9.26229L150.08 8.28066L127.069 3.80723L126.879 4.78886ZM152.841 7.42183L152.51 8.36524C156.862 9.8952 161.093 11.6847 165.183 13.7142L165.627 12.8184L166.072 11.9226C161.909 9.85716 157.603 8.03573 153.173 6.47842L152.841 7.42183ZM166.25 15.557L165.69 16.385L185.571 29.8512L186.132 29.0233L186.693 28.1953L166.811 14.7291L166.25 15.557ZM189.291 28.5058L188.639 29.2643C192.329 32.4355 195.813 35.841 199.066 39.4575L199.81 38.7887L200.553 38.1199C197.242 34.4398 193.698 30.9744 189.942 27.7474L189.291 28.5058ZM199.298 42.7068L198.49 43.2968L212.468 62.4278L213.275 61.8379L214.082 61.2479L200.105 42.1169L199.298 42.7068ZM216.201 62.4056L215.315 62.8678C217.957 67.9385 220.228 73.2339 222.088 78.7188L223.035 78.3976L223.982 78.0765C222.089 72.4936 219.778 67.1039 217.088 61.9434L216.201 62.4056ZM220.974 81.655L219.991 81.8409L224.318 104.715L225.301 104.53L226.283 104.344L221.956 81.4691L220.974 81.655ZM228.772 107.042L227.774 107.111C227.957 109.733 228.051 112.379 228.051 115.046H229.051H230.051C230.051 112.332 229.955 109.639 229.77 106.972L228.772 107.042ZM229.051 115.046L228.051 115.046C228.051 117.836 227.949 120.602 227.749 123.341L228.747 123.413L229.744 123.486C229.947 120.699 230.051 117.885 230.051 115.046L229.051 115.046ZM225.028 126.21L224.041 126.049L220.277 149.157L221.264 149.318L222.251 149.478L226.015 126.37L225.028 126.21ZM222.963 151.899L222.017 151.576C220.405 156.299 218.49 160.881 216.295 165.299L217.19 165.744L218.086 166.189C220.32 161.692 222.269 157.029 223.909 152.222L222.963 151.899ZM212.954 166.733L212.12 166.18L199.321 185.466L200.154 186.019L200.987 186.572L213.787 167.286L212.954 166.733ZM200.848 190.133L200.096 189.475C196.486 193.598 192.582 197.456 188.415 201.018L189.065 201.778L189.715 202.538C193.954 198.914 197.928 194.988 201.601 190.792L200.848 190.133ZM184.837 201.107L184.27 200.284L164.958 213.595L165.525 214.418L166.093 215.242L185.405 201.93L184.837 201.107ZM164.798 217.679L164.361 216.78C159.994 218.902 155.471 220.751 150.813 222.305L151.129 223.254L151.446 224.202C156.187 222.621 160.791 220.739 165.235 218.579L164.798 217.679ZM148.138 221.365L147.949 220.383L124.792 224.831L124.98 225.813L125.169 226.795L148.326 222.347L148.138 221.365ZM122.802 228.828L122.735 227.83C120.187 228.003 117.616 228.092 115.025 228.092L115.025 229.092L115.025 230.092C117.662 230.092 120.278 230.001 122.87 229.826L122.802 228.828ZM115.025 229.092V228.092C112.388 228.092 109.772 227.999 107.18 227.821L107.111 228.818L107.042 229.816C109.68 229.998 112.342 230.092 115.025 230.092V229.092ZM104.395 225.017L104.59 224.036L82.1201 219.587L81.9259 220.568L81.7317 221.549L104.201 225.998L104.395 225.017ZM78.0737 222.969L78.3977 222.023C73.929 220.493 69.5869 218.689 65.3902 216.634L64.9503 217.532L64.5105 218.43C68.7815 220.522 73.201 222.358 77.7497 223.916L78.0737 222.969ZM64.2022 214.432L64.749 213.594L44.7278 200.516L44.1809 201.354L43.6341 202.191L63.6553 215.269L64.2022 214.432ZM41.1226 201.896L41.7711 201.135C37.9405 197.871 34.3299 194.357 30.9659 190.616L30.2224 191.285L29.4788 191.954C32.9021 195.76 36.5762 199.336 40.474 202.657L41.1226 201.896ZM30.9883 185.905L31.804 185.327L18.7543 166.925L17.9386 167.504L17.1229 168.082L30.1726 186.483L30.9883 185.905ZM13.2535 166.532L14.1455 166.08C11.6735 161.201 9.54557 156.118 7.79213 150.864L6.84355 151.18L5.89498 151.497C7.67963 156.844 9.8454 162.018 12.3615 166.984L13.2535 166.532ZM8.73027 148.29L9.71597 148.121L5.77721 125.084L4.79151 125.252L3.80582 125.421L7.74457 148.458L8.73027 148.29ZM1.24828 122.61L2.24613 122.545C2.08345 120.066 2.00001 117.566 2 115.046L1 115.046L0 115.046C9.83477e-06 117.61 0.0849152 120.154 0.250423 122.676L1.24828 122.61ZM1 115.046H2C2 112.13 2.11105 109.241 2.32801 106.381L1.33088 106.305L0.333744 106.229C0.112984 109.139 0 112.08 0 115.046H1ZM5.16825 103.436L6.1549 103.599L9.95593 80.5741L8.96929 80.4112L7.98264 80.2483L4.18161 103.273L5.16825 103.436ZM7.23476 77.7593L8.17987 78.086C10.0346 72.7215 12.2819 67.5401 14.8874 62.5761L14.002 62.1113L13.1165 61.6466C10.4648 66.6987 8.17747 71.9723 6.28965 77.4325L7.23476 77.7593ZM17.4745 61.3023L18.3113 61.8499L31.4613 41.7535L30.6245 41.206L29.7877 40.6584L16.6377 60.7548L17.4745 61.3023ZM30.2193 38.8094L30.9628 39.4781C34.3218 35.7428 37.9263 32.2329 41.7506 28.9731L41.1018 28.2121L40.4531 27.4511C36.5617 30.7681 32.8938 34.3397 29.4757 38.1408L30.2193 38.8094ZM44.9147 28.8933L45.4605 29.7312L65.0652 16.961L64.5194 16.1231L63.9736 15.2852L44.3689 28.0554L44.9147 28.8933ZM65.4461 12.3172L65.8816 13.2174C70.1297 11.1625 74.5255 9.36533 79.0492 7.84715L78.731 6.89911L78.4129 5.95108C73.8083 7.4964 69.3342 9.3256 65.0107 11.417L65.4461 12.3172ZM81.216 8.54161L81.3756 9.52879L104.608 5.77242L104.449 4.78524L104.289 3.79806L81.0563 7.55443L81.216 8.54161ZM107.1 1.27314L107.168 2.27078C109.764 2.09201 112.384 2 115.025 2V1V0C112.338 2.08616e-06 109.672 0.0936325 107.031 0.275507L107.1 1.27314ZM115.025 29.0811V28.0811C67.0049 28.0811 28.0771 67.0168 28.0771 115.046H29.0771H30.0771C30.0771 68.121 68.1099 30.0811 115.025 30.0811V29.0811ZM29.0771 115.046L28.0771 115.046C28.0774 163.075 67.0051 202.011 115.025 202.011V201.011V200.011C68.11 200.011 30.0774 161.971 30.0771 115.046L29.0771 115.046ZM115.025 201.011L115.025 202.011C163.046 202.01 201.974 163.075 201.975 115.046L200.975 115.046L199.975 115.046C199.974 161.97 161.941 200.01 115.025 200.011L115.025 201.011ZM200.975 115.046H201.975C201.975 67.0169 163.046 28.0813 115.025 28.0811L115.025 29.0811L115.025 30.0811C161.941 30.0813 199.975 68.1211 199.975 115.046H200.975ZM28.0859 116.286L27.086 116.301C27.0914 116.672 27.0987 117.043 27.1088 117.414L28.1084 117.387L29.108 117.36C29.0983 116.998 29.0911 116.636 29.0858 116.272L28.0859 116.286ZM28.1084 117.387L29.108 117.36C29.0983 116.998 29.0909 116.635 29.0858 116.272L28.0859 116.286L27.086 116.3C27.0913 116.672 27.0988 117.043 27.1088 117.414L28.1084 117.387ZM28.1396 111.684L27.1404 111.646C27.0975 112.774 27.0762 113.908 27.0762 115.046H28.0762H29.0762C29.0762 113.933 29.097 112.824 29.1389 111.722L28.1396 111.684ZM28.0762 115.046L27.0762 115.046C27.0762 115.408 27.0786 115.769 27.0831 116.13L28.083 116.117L29.0829 116.105C29.0785 115.752 29.0762 115.399 29.0762 115.046L28.0762 115.046ZM28.083 116.117L29.0829 116.105C29.0787 115.754 29.0772 115.401 29.0771 115.046L28.0771 115.046L27.0771 115.046C27.0772 115.406 27.0787 115.768 27.0831 116.129L28.083 116.117ZM28.0771 115.046H29.0771C29.0771 113.933 29.098 112.824 29.1399 111.722L28.1406 111.684L27.1413 111.646C27.0985 112.774 27.0771 113.908 27.0771 115.046H28.0771ZM28.1406 111.684L29.1399 111.722C29.1614 111.155 28.7074 110.684 28.1401 110.684V111.684V112.684C27.5734 112.684 27.1198 112.213 27.1413 111.646L28.1406 111.684ZM28.1396 111.684L29.1389 111.722C29.1185 112.259 28.6772 112.684 28.1401 112.684V111.684V110.684C27.6025 110.684 27.1608 111.109 27.1404 111.646L28.1396 111.684ZM105.715 3.03052L106.702 2.871C106.652 2.56202 106.875 2.29096 107.168 2.27078L107.1 1.27314L107.031 0.275507C105.545 0.377843 104.493 1.73852 104.728 3.19004L105.715 3.03052ZM104.449 4.78524L104.608 5.77242C105.988 5.54939 106.925 4.25042 106.702 2.871L105.715 3.03052L104.728 3.19004C104.774 3.47911 104.578 3.75132 104.289 3.79806L104.449 4.78524ZM80.0482 7.69914L79.061 7.85901C79.2392 8.95916 80.2754 9.70667 81.3756 9.52879L81.216 8.54161L81.0563 7.55443C81.052 7.55512 81.0503 7.55471 81.0494 7.5545C81.0479 7.55412 81.0454 7.55317 81.0427 7.5512C81.0399 7.54922 81.0383 7.54719 81.0374 7.54584C81.037 7.5451 81.036 7.54358 81.0353 7.53926L80.0482 7.69914ZM78.731 6.89911L79.0492 7.84715C79.0518 7.84627 79.0527 7.84626 79.0523 7.84631C79.0519 7.84634 79.0514 7.84634 79.0509 7.84628C79.0502 7.8462 79.0516 7.84625 79.0542 7.84782C79.0567 7.8494 79.0583 7.85115 79.059 7.85209C79.0592 7.85245 79.0594 7.85283 79.0596 7.85341C79.0598 7.85391 79.0605 7.85558 79.061 7.85901L80.0482 7.69914L81.0353 7.53926C80.838 6.32115 79.5966 5.55381 78.4129 5.95108L78.731 6.89911ZM64.914 14.2537L65.752 13.708C65.6355 13.5291 65.7059 13.3023 65.8816 13.2174L65.4461 12.3172L65.0107 11.417C63.7339 12.0346 63.312 13.6264 64.0761 14.7995L64.914 14.2537ZM64.5194 16.1231L65.0652 16.961C66.1531 16.2523 66.4606 14.7959 65.752 13.708L64.914 14.2537L64.0761 14.7995C64.1819 14.9619 64.136 15.1794 63.9736 15.2852L64.5194 16.1231ZM43.0672 28.5032L42.2292 29.049C42.9331 30.1297 44.3798 30.4351 45.4605 29.7312L44.9147 28.8933L44.3689 28.0554C44.2138 28.1564 44.0061 28.1126 43.9051 27.9575L43.0672 28.5032ZM41.1018 28.2121L41.7506 28.9731C41.8923 28.8523 42.1178 28.8779 42.2292 29.049L43.0672 28.5032L43.9051 27.9575C43.1451 26.7905 41.5266 26.536 40.4531 27.4511L41.1018 28.2121ZM30.3839 40.0541L30.9316 39.2174C31.0152 39.2721 31.0374 39.3951 30.9628 39.4781L30.2193 38.8094L29.4757 38.1408C28.7228 38.978 28.9039 40.2806 29.8363 40.8908L30.3839 40.0541ZM30.6245 41.206L31.4613 41.7535C32.0153 40.9069 31.7781 39.7715 30.9316 39.2174L30.3839 40.0541L29.8363 40.8908C29.7587 40.8401 29.737 40.736 29.7877 40.6584L30.6245 41.206ZM15.7614 61.6602L15.2138 62.4969C16.2478 63.1737 17.6346 62.884 18.3113 61.8499L17.4745 61.3023L16.6377 60.7548C16.5659 60.8645 16.4187 60.8953 16.309 60.8235L15.7614 61.6602ZM14.002 62.1113L14.8874 62.5761C14.9461 62.4642 15.0946 62.419 15.2138 62.4969L15.7614 61.6602L16.309 60.8235C15.2156 60.1079 13.7313 60.4753 13.1165 61.6466L14.002 62.1113ZM8.07812 79.1671L8.24145 78.1805C8.18819 78.1717 8.16735 78.1222 8.17987 78.086L7.23476 77.7593L6.28965 77.4325C5.86722 78.6543 6.65483 79.945 7.9148 80.1536L8.07812 79.1671ZM8.96929 80.4112L9.95593 80.5741C10.1432 79.4397 9.37572 78.3682 8.24145 78.1805L8.07812 79.1671L7.9148 80.1536C7.95969 80.1611 7.99005 80.2034 7.98264 80.2483L8.96929 80.4112ZM3.25029 104.81L3.08726 105.797C4.54134 106.037 5.91485 105.053 6.1549 103.599L5.16825 103.436L4.18161 103.273C4.12149 103.637 3.77749 103.884 3.41332 103.823L3.25029 104.81ZM1.33088 106.305L2.32801 106.381C2.35611 106.01 2.69999 105.733 3.08726 105.797L3.25029 104.81L3.41332 103.823C1.8886 103.571 0.45224 104.668 0.333744 106.229L1.33088 106.305ZM3.02238 124L2.85379 123.014C2.54126 123.067 2.2656 122.842 2.24613 122.545L1.24828 122.61L0.250423 122.676C0.348889 124.176 1.72826 125.235 3.19097 124.985L3.02238 124ZM6.84355 151.18L7.79213 150.864C7.76103 150.77 7.81841 150.66 7.93164 150.641L7.76326 149.655L7.59488 148.67C6.28961 148.893 5.47053 150.225 5.89498 151.497L6.84355 151.18ZM15.6457 167.113L15.0674 166.297C14.7456 166.526 14.3134 166.411 14.1455 166.08L13.2535 166.532L12.3615 166.984C13.092 168.425 14.9243 168.85 16.2241 167.929L15.6457 167.113ZM17.9386 167.504L18.7543 166.925C17.9095 165.734 16.2588 165.453 15.0674 166.297L15.6457 167.113L16.2241 167.929C16.5145 167.723 16.9169 167.792 17.1229 168.082L17.9386 167.504ZM30.5416 188.529L31.12 189.345C32.4186 188.424 32.7248 186.625 31.804 185.327L30.9883 185.905L30.1726 186.483C30.4544 186.881 30.3607 187.432 29.9632 187.713L30.5416 188.529ZM30.2224 191.285L30.9659 190.616C30.6305 190.243 30.6906 189.649 31.12 189.345L30.5416 188.529L29.9632 187.713C28.5785 188.695 28.3271 190.673 29.4788 191.954L30.2224 191.285ZM42.6998 201.664L41.8627 201.117C41.8381 201.155 41.7944 201.154 41.7711 201.135L41.1226 201.896L40.474 202.657C41.4255 203.468 42.861 203.246 43.5369 202.211L42.6998 201.664ZM44.1809 201.354L44.7278 200.516C43.7707 199.891 42.4881 200.16 41.8627 201.117L42.6998 201.664L43.5369 202.211C43.5581 202.179 43.6016 202.17 43.6341 202.191L44.1809 201.354ZM64.5212 215.954L65.3583 216.501C65.9929 215.53 65.7201 214.229 64.749 213.594L64.2022 214.432L63.6553 215.269C63.7014 215.299 63.7143 215.361 63.6842 215.407L64.5212 215.954ZM64.9503 217.532L65.3902 216.634C65.3473 216.613 65.3241 216.553 65.3583 216.501L64.5212 215.954L63.6842 215.407C63.0003 216.453 63.3745 217.874 64.5105 218.43L64.9503 217.532ZM80.0876 221.799L79.1067 221.605C79.0401 221.941 78.7016 222.127 78.3977 222.023L78.0737 222.969L77.7497 223.916C79.2196 224.419 80.7707 223.496 81.0685 221.993L80.0876 221.799ZM81.9259 220.568L82.1201 219.587C80.731 219.312 79.3819 220.215 79.1067 221.605L80.0876 221.799L81.0685 221.993C81.1291 221.688 81.426 221.489 81.7317 221.549L81.9259 220.568ZM105.664 226.912L106.645 227.106C106.925 225.691 106.005 224.316 104.59 224.036L104.395 225.017L104.201 225.998C104.533 226.064 104.749 226.386 104.683 226.718L105.664 226.912ZM107.111 228.818L107.18 227.821C106.832 227.797 106.573 227.469 106.645 227.106L105.664 226.912L104.683 226.718C104.381 228.241 105.472 229.708 107.042 229.816L107.111 228.818ZM123.961 227.315L122.979 227.504C123.012 227.673 122.89 227.82 122.735 227.83L122.802 228.828L122.87 229.826C124.24 229.733 125.199 228.459 124.944 227.127L123.961 227.315ZM124.98 225.813L124.792 224.831C123.553 225.068 122.742 226.265 122.979 227.504L123.961 227.315L124.944 227.127C124.914 226.973 125.015 226.824 125.169 226.795L124.98 225.813ZM149.564 222.331L150.546 222.142C150.315 220.939 149.152 220.151 147.949 220.383L148.138 221.365L148.326 222.347C148.445 222.324 148.559 222.401 148.582 222.52L149.564 222.331ZM151.129 223.254L150.813 222.305C150.701 222.342 150.571 222.275 150.546 222.142L149.564 222.331L148.582 222.52C148.832 223.823 150.171 224.628 151.446 224.202L151.129 223.254ZM165.232 216.012L164.408 216.579C164.461 216.655 164.429 216.747 164.361 216.78L164.798 217.679L165.235 218.579C166.419 218.003 166.793 216.515 166.055 215.444L165.232 216.012ZM165.525 214.418L164.958 213.595C163.982 214.267 163.736 215.603 164.408 216.579L165.232 216.012L166.055 215.444C166.01 215.378 166.026 215.287 166.093 215.242L165.525 214.418ZM186.902 201.487L187.725 200.92C186.947 199.79 185.4 199.505 184.27 200.284L184.837 201.107L185.405 201.93C185.625 201.779 185.927 201.834 186.078 202.054L186.902 201.487ZM189.065 201.778L188.415 201.018C188.211 201.193 187.889 201.157 187.725 200.92L186.902 201.487L186.078 202.054C186.905 203.253 188.593 203.497 189.715 202.538L189.065 201.778ZM200.557 188.012L200.004 188.845C200.226 188.992 200.258 189.289 200.096 189.475L200.848 190.133L201.601 190.792C202.573 189.681 202.324 187.984 201.11 187.178L200.557 188.012ZM215.036 166.312L215.589 165.479C214.438 164.715 212.884 165.029 212.12 166.18L212.954 166.733L213.787 167.286C213.94 167.055 214.251 166.992 214.482 167.146L215.036 166.312ZM217.19 165.744L216.295 165.299C216.169 165.552 215.841 165.647 215.589 165.479L215.036 166.312L214.482 167.146C215.721 167.968 217.415 167.538 218.086 166.189L217.19 165.744ZM222.136 150.529L221.976 151.516C221.987 151.518 221.993 151.521 221.998 151.524C222.003 151.528 222.008 151.533 222.013 151.54C222.017 151.547 222.019 151.554 222.019 151.558C222.02 151.561 222.02 151.566 222.017 151.576L222.963 151.899L223.909 152.222C224.321 151.015 223.541 149.745 222.297 149.542L222.136 150.529ZM221.264 149.318L220.277 149.157C220.095 150.277 220.855 151.334 221.976 151.516L222.136 150.529L222.297 149.542C222.267 149.537 222.246 149.509 222.251 149.478L221.264 149.318ZM226.886 124.871L227.047 123.884C225.619 123.652 224.273 124.621 224.041 126.049L225.028 126.21L226.015 126.37C226.07 126.033 226.388 125.803 226.726 125.858L226.886 124.871ZM228.747 123.413L227.749 123.341C227.725 123.684 227.407 123.943 227.047 123.884L226.886 124.871L226.726 125.858C228.225 126.102 229.633 125.021 229.744 123.486L228.747 123.413ZM227.032 105.709L227.218 106.692C227.502 106.638 227.756 106.842 227.774 107.111L228.772 107.042L229.77 106.972C229.666 105.489 228.288 104.453 226.846 104.727L227.032 105.709ZM225.301 104.53L224.318 104.715C224.573 106.062 225.871 106.947 227.218 106.692L227.032 105.709L226.846 104.727C226.585 104.776 226.333 104.605 226.283 104.344L225.301 104.53ZM222.03 80.106L221.844 79.1235C220.582 79.3623 219.753 80.5789 219.991 81.8409L220.974 81.655L221.956 81.4691C221.923 81.2924 222.039 81.122 222.216 81.0886L222.03 80.106ZM223.035 78.3976L222.088 78.7188C222.146 78.8908 222.041 79.0863 221.844 79.1235L222.03 80.106L222.216 81.0886C223.589 80.8288 224.437 79.417 223.982 78.0765L223.035 78.3976ZM214.703 62.0597L215.293 62.8669C215.296 62.8647 215.298 62.8639 215.299 62.8635C215.299 62.8632 215.3 62.863 215.301 62.8629C215.302 62.8626 215.305 62.8624 215.308 62.8632C215.312 62.8639 215.313 62.865 215.313 62.8649C215.313 62.8649 215.313 62.8648 215.313 62.8647C215.313 62.8647 215.313 62.8646 215.313 62.8646C215.313 62.8645 215.313 62.8645 215.313 62.8645C215.313 62.8645 215.313 62.8646 215.313 62.8647C215.313 62.8648 215.313 62.8649 215.313 62.8651C215.313 62.8656 215.314 62.8664 215.315 62.8678L216.201 62.4056L217.088 61.9434C216.515 60.8433 215.102 60.5287 214.112 61.2526L214.703 62.0597ZM213.275 61.8379L212.468 62.4278C213.126 63.3296 214.392 63.5262 215.293 62.8669L214.703 62.0597L214.112 61.2526C214.109 61.2554 214.106 61.256 214.105 61.2563C214.103 61.2568 214.1 61.2571 214.096 61.2565C214.093 61.2559 214.09 61.2547 214.088 61.2537C214.087 61.253 214.085 61.2518 214.082 61.2479L213.275 61.8379ZM199.595 40.7919L199.005 39.9847C197.948 40.7573 197.718 42.2399 198.49 43.2968L199.298 42.7068L200.105 42.1169C199.984 41.9517 200.02 41.7199 200.185 41.5991L199.595 40.7919ZM199.81 38.7887L199.066 39.4575C199.202 39.6088 199.184 39.8541 199.005 39.9847L199.595 40.7919L200.185 41.5991C201.306 40.7799 201.493 39.1649 200.553 38.1199L199.81 38.7887ZM187.668 28.7274L188.496 29.2878C188.533 29.2334 188.6 29.231 188.639 29.2643L189.291 28.5058L189.942 27.7474C188.986 26.9254 187.538 27.1346 186.839 28.1671L187.668 28.7274ZM186.132 29.0233L185.571 29.8512C186.534 30.5036 187.844 30.2513 188.496 29.2878L187.668 28.7274L186.839 28.1671C186.807 28.2154 186.741 28.228 186.693 28.1953L186.132 29.0233ZM165.992 14.2161L165.164 13.6557C164.556 14.5546 164.791 15.7763 165.69 16.385L166.25 15.557L166.811 14.7291C166.827 14.7396 166.831 14.7608 166.82 14.7764L165.992 14.2161ZM165.627 12.8184L165.183 13.7142C165.179 13.7125 165.173 13.708 165.168 13.701C165.163 13.6949 165.16 13.6894 165.159 13.6853C165.158 13.6812 165.158 13.6762 165.159 13.6701C165.16 13.6631 165.163 13.6577 165.164 13.6557L165.992 14.2161L166.82 14.7764C167.482 13.7992 167.141 12.453 166.072 11.9226L165.627 12.8184ZM151.289 8.31768L152.271 8.50836C152.294 8.38946 152.411 8.33061 152.51 8.36524L152.841 7.42183L153.173 6.47842C151.907 6.03349 150.56 6.82639 150.308 8.12699L151.289 8.31768ZM149.889 9.26229L149.698 10.2439C150.888 10.4752 152.04 9.69813 152.271 8.50836L151.289 8.31768L150.308 8.12699C150.287 8.23234 150.185 8.30114 150.08 8.28066L149.889 9.26229ZM4.79151 125.252L5.77721 125.084C5.54147 123.705 4.23258 122.778 2.85379 123.014L3.02238 124L3.19097 124.985C3.48095 124.936 3.75624 125.131 3.80582 125.421L4.79151 125.252ZM125.734 3.09206L124.752 2.90163C124.495 4.22834 125.361 5.51258 126.688 5.77048L126.879 4.78886L127.069 3.80723C126.827 3.76006 126.668 3.52516 126.715 3.2825L125.734 3.09206ZM200.154 186.019L199.321 185.466C198.577 186.588 198.882 188.1 200.004 188.845L200.557 188.012L201.11 187.178C200.909 187.045 200.854 186.773 200.987 186.572L200.154 186.019ZM7.76326 149.655L7.93164 150.641C9.12027 150.438 9.91918 149.31 9.71597 148.121L8.73027 148.29L7.74457 148.458C7.76162 148.558 7.6946 148.653 7.59488 148.67L7.76326 149.655ZM124.45 1.38618L124.368 2.38283C124.616 2.40321 124.803 2.63838 124.752 2.90163L125.734 3.09206L126.715 3.2825C126.99 1.86821 125.986 0.508786 124.531 0.389524L124.45 1.38618Z" fill="black" mask="url(#path-13-outside-1_713_33116)"/>
<g filter="url(#filter8_i_713_33116)">
<path d="M105.722 21.4484C105.144 23.9548 107.048 26.3477 109.62 26.3477H120.43C123.002 26.3477 124.906 23.9548 124.328 21.4484L120.957 6.83919C120.538 5.02419 118.922 3.73848 117.059 3.73848H112.991C111.128 3.73848 109.512 5.02419 109.093 6.83919L105.722 21.4484Z" fill="#467BDD"/>
</g>
<g filter="url(#filter9_i_713_33116)">
<path d="M143.157 24.8813C141.664 26.9756 142.507 29.915 144.883 30.8995L154.871 35.0373C157.247 36.0218 159.922 34.5396 160.346 32.0025L162.822 17.2154C163.129 15.3783 162.128 13.5719 160.407 12.859L156.648 11.3015C154.927 10.5886 152.942 11.1579 151.861 12.6745L143.157 24.8813Z" fill="#467BDD"/>
</g>
<g filter="url(#filter10_i_713_33116)">
<path d="M24.875 87.0145C26.9692 88.5084 29.9085 87.6655 30.8927 85.2889L35.0299 75.2989C36.0142 72.9223 34.5318 70.2476 31.9948 69.8227L17.2114 67.3469C15.3745 67.0393 13.5684 68.0404 12.8557 69.7612L11.2982 73.5222C10.5855 75.2431 11.1548 77.2282 12.6712 78.3099L24.875 87.0145Z" fill="#467BDD"/>
</g>
<g filter="url(#filter11_i_713_33116)">
<path d="M198.233 69.8223C195.696 70.2472 194.213 72.9219 195.197 75.2985L199.335 85.2885C200.319 87.6651 203.258 88.508 205.352 87.0142L217.556 78.3095C219.073 77.2279 219.642 75.2427 218.929 73.5219L217.372 69.7608C216.659 68.04 214.853 67.0389 213.016 67.3466L198.233 69.8223Z" fill="#467BDD"/>
</g>
<g filter="url(#filter12_i_713_33116)">
<path d="M70.6796 32.0022C71.1043 34.5393 73.7785 36.0215 76.155 35.037L86.1425 30.8993C88.5189 29.9147 89.362 26.9753 87.8687 24.881L79.165 12.6742C78.0836 11.1576 76.0986 10.5883 74.3778 11.3013L70.6185 12.8587C68.8976 13.5716 67.8965 15.378 68.2041 17.2152L70.6796 32.0022Z" fill="#467BDD"/>
</g>
<g filter="url(#filter13_i_713_33116)">
<path d="M173.193 40.5394C171.012 41.9029 170.666 44.9413 172.485 46.7604L180.129 54.4061C181.948 56.2252 184.986 55.8792 186.349 53.6976L194.294 40.9841C195.281 39.4045 195.047 37.3524 193.73 36.0352L190.852 33.1571C189.535 31.8399 187.484 31.6062 185.904 32.5935L173.193 40.5394Z" fill="#467BDD"/>
</g>
<g filter="url(#filter14_i_713_33116)">
<path d="M57.1662 188.991C59.3473 187.627 59.6933 184.589 57.8745 182.77L50.2302 175.124C48.4114 173.305 45.3735 173.651 44.0103 175.833L36.0658 188.546C35.0787 190.126 35.3124 192.178 36.6293 193.495L39.507 196.373C40.8239 197.69 42.8756 197.924 44.4549 196.937L57.1662 188.991Z" fill="#467BDD"/>
</g>
<g filter="url(#filter15_i_713_33116)">
<path d="M186.348 175.833C184.985 173.651 181.947 173.305 180.128 175.124L172.484 182.77C170.665 184.589 171.011 187.627 173.192 188.991L185.904 196.937C187.483 197.924 189.535 197.69 190.852 196.373L193.729 193.495C195.046 192.178 195.28 190.126 194.293 188.546L186.348 175.833Z" fill="#467BDD"/>
</g>
<g filter="url(#filter16_i_713_33116)">
<path d="M159.477 198.267C159.052 195.73 156.378 194.248 154.001 195.233L144.014 199.37C141.637 200.355 140.794 203.294 142.288 205.389L150.991 217.595C152.073 219.112 154.058 219.681 155.778 218.968L159.538 217.411C161.259 216.698 162.26 214.892 161.952 213.054L159.477 198.267Z" fill="#467BDD"/>
</g>
<g filter="url(#filter17_i_713_33116)">
<path d="M70.6796 198.267C71.1043 195.73 73.7785 194.248 76.155 195.233L86.1425 199.37C88.5189 200.355 89.362 203.294 87.8687 205.389L79.165 217.595C78.0836 219.112 76.0986 219.681 74.3778 218.968L70.6185 217.411C68.8976 216.698 67.8965 214.892 68.2041 213.054L70.6796 198.267Z" fill="#467BDD"/>
</g>
<g filter="url(#filter18_i_713_33116)">
<path d="M44.0091 53.6976C45.3723 55.8792 48.4102 56.2252 50.229 54.4061L57.8733 46.7604C59.6921 44.9413 59.3461 41.9029 57.165 40.5394L44.4537 32.5935C42.8744 31.6062 40.8227 31.8399 39.5058 33.1571L36.6281 36.0352C35.3112 37.3524 35.0775 39.4045 36.0646 40.9841L44.0091 53.6976Z" fill="#467BDD"/>
</g>
<g filter="url(#filter19_i_713_33116)">
<path d="M105.722 208.642C105.144 206.136 107.048 203.743 109.62 203.743H120.43C123.002 203.743 124.906 206.136 124.328 208.642L120.957 223.252C120.538 225.067 118.922 226.352 117.059 226.352H112.991C111.128 226.352 109.512 225.067 109.093 223.252L105.722 208.642Z" fill="#467BDD"/>
</g>
<g filter="url(#filter20_i_713_33116)">
<path d="M208.607 124.35C206.1 124.928 203.707 123.024 203.707 120.452V109.639C203.707 107.066 206.1 105.163 208.607 105.741L223.212 109.112C225.027 109.531 226.312 111.147 226.312 113.01V117.081C226.312 118.944 225.027 120.56 223.212 120.979L208.607 124.35Z" fill="#467BDD"/>
</g>
<g filter="url(#filter21_i_713_33116)">
<path d="M198.233 159.505C195.696 159.08 194.213 156.406 195.197 154.029L199.335 144.039C200.319 141.663 203.258 140.82 205.352 142.313L217.556 151.018C219.073 152.1 219.642 154.085 218.929 155.806L217.372 159.567C216.659 161.288 214.853 162.289 213.016 161.981L198.233 159.505Z" fill="#467BDD"/>
</g>
<g filter="url(#filter22_i_713_33116)">
<path d="M31.9959 159.505C34.5329 159.08 36.0154 156.406 35.0311 154.029L30.8939 144.039C29.9096 141.663 26.9704 140.82 24.8761 142.313L12.6724 151.018C11.156 152.1 10.5866 154.085 11.2993 155.806L12.8569 159.567C13.5696 161.288 15.3756 162.289 17.2126 161.981L31.9959 159.505Z" fill="#467BDD"/>
</g>
<g filter="url(#filter23_i_713_33116)">
<path d="M21.4442 124.35C23.9507 124.928 26.3438 123.024 26.3438 120.452V109.639C26.3438 107.066 23.9507 105.163 21.4442 105.741L6.83906 109.112C5.02421 109.531 3.73865 111.147 3.73865 113.01V117.081C3.73865 118.944 5.02421 120.56 6.83906 120.979L21.4442 124.35Z" fill="#467BDD"/>
</g>
<defs>
<filter id="filter0_i_713_33116" x="53.1641" y="193.178" width="127.721" height="50.3486" filterUnits="userSpaceOnUse" color-interpolation-filters="sRGB">
<feFlood flood-opacity="0" result="BackgroundImageFix"/>
<feBlend mode="normal" in="SourceGraphic" in2="BackgroundImageFix" result="shape"/>
<feColorMatrix in="SourceAlpha" type="matrix" values="0 0 0 0 0 0 0 0 0 0 0 0 0 0 0 0 0 0 127 0" result="hardAlpha"/>
<feOffset dx="4" dy="17"/>
<feGaussianBlur stdDeviation="2"/>
<feComposite in2="hardAlpha" operator="arithmetic" k2="-1" k3="1"/>
<feColorMatrix type="matrix" values="0 0 0 0 0 0 0 0 0 0 0 0 0 0 0 0 0 0 0.25 0"/>
<feBlend mode="normal" in2="shape" result="effect1_innerShadow_713_33116"/>
</filter>
<filter id="filter1_i_713_33116" x="46.209" y="232.309" width="141.631" height="16.7827" filterUnits="userSpaceOnUse" color-interpolation-filters="sRGB">
<feFlood flood-opacity="0" result="BackgroundImageFix"/>
<feBlend mode="normal" in="SourceGraphic" in2="BackgroundImageFix" result="shape"/>
<feColorMatrix in="SourceAlpha" type="matrix" values="0 0 0 0 0 0 0 0 0 0 0 0 0 0 0 0 0 0 127 0" result="hardAlpha"/>
<feOffset dx="5"/>
<feGaussianBlur stdDeviation="2"/>
<feComposite in2="hardAlpha" operator="arithmetic" k2="-1" k3="1"/>
<feColorMatrix type="matrix" values="0 0 0 0 0 0 0 0 0 0 0 0 0 0 0 0 0 0 0.25 0"/>
<feBlend mode="normal" in2="shape" result="effect1_innerShadow_713_33116"/>
</filter>
<filter id="filter2_i_713_33116" x="33.2988" y="33.3047" width="167.453" height="163.482" filterUnits="userSpaceOnUse" color-interpolation-filters="sRGB">
<feFlood flood-opacity="0" result="BackgroundImageFix"/>
<feBlend mode="normal" in="SourceGraphic" in2="BackgroundImageFix" result="shape"/>
<feColorMatrix in="SourceAlpha" type="matrix" values="0 0 0 0 0 0 0 0 0 0 0 0 0 0 0 0 0 0 127 0" result="hardAlpha"/>
<feOffset dx="13"/>
<feGaussianBlur stdDeviation="2"/>
<feComposite in2="hardAlpha" operator="arithmetic" k2="-1" k3="1"/>
<feColorMatrix type="matrix" values="0 0 0 0 0 0 0 0 0 0 0 0 0 0 0 0 0 0 0.25 0"/>
<feBlend mode="normal" in2="shape" result="effect1_innerShadow_713_33116"/>
</filter>
<filter id="filter3_i_713_33116" x="96.7676" y="179.395" width="15.6504" height="15.6523" filterUnits="userSpaceOnUse" color-interpolation-filters="sRGB">
<feFlood flood-opacity="0" result="BackgroundImageFix"/>
<feBlend mode="normal" in="SourceGraphic" in2="BackgroundImageFix" result="shape"/>
<feColorMatrix in="SourceAlpha" type="matrix" values="0 0 0 0 0 0 0 0 0 0 0 0 0 0 0 0 0 0 127 0" result="hardAlpha"/>
<feOffset/>
<feGaussianBlur stdDeviation="1"/>
<feComposite in2="hardAlpha" operator="arithmetic" k2="-1" k3="1"/>
<feColorMatrix type="matrix" values="0 0 0 0 0 0 0 0 0 0.1875 0 0 0 0 0.178066 0 0 0 1 0"/>
<feBlend mode="normal" in2="shape" result="effect1_innerShadow_713_33116"/>
</filter>
<filter id="filter4_i_713_33116" x="117.633" y="179.395" width="15.6504" height="15.6523" filterUnits="userSpaceOnUse" color-interpolation-filters="sRGB">
<feFlood flood-opacity="0" result="BackgroundImageFix"/>
<feBlend mode="normal" in="SourceGraphic" in2="BackgroundImageFix" result="shape"/>
<feColorMatrix in="SourceAlpha" type="matrix" values="0 0 0 0 0 0 0 0 0 0 0 0 0 0 0 0 0 0 127 0" result="hardAlpha"/>
<feOffset/>
<feGaussianBlur stdDeviation="1"/>
<feComposite in2="hardAlpha" operator="arithmetic" k2="-1" k3="1"/>
<feColorMatrix type="matrix" values="0 0 0 0 0 0 0 0 0 0.1875 0 0 0 0 0.178066 0 0 0 1 0"/>
<feBlend mode="normal" in2="shape" result="effect1_innerShadow_713_33116"/>
</filter>
<filter id="filter5_i_713_33116" x="138.5" y="174.177" width="15.6504" height="15.6523" filterUnits="userSpaceOnUse" color-interpolation-filters="sRGB">
<feFlood flood-opacity="0" result="BackgroundImageFix"/>
<feBlend mode="normal" in="SourceGraphic" in2="BackgroundImageFix" result="shape"/>
<feColorMatrix in="SourceAlpha" type="matrix" values="0 0 0 0 0 0 0 0 0 0 0 0 0 0 0 0 0 0 127 0" result="hardAlpha"/>
<feOffset/>
<feGaussianBlur stdDeviation="1"/>
<feComposite in2="hardAlpha" operator="arithmetic" k2="-1" k3="1"/>
<feColorMatrix type="matrix" values="0 0 0 0 0 0 0 0 0 0.1875 0 0 0 0 0.178066 0 0 0 1 0"/>
<feBlend mode="normal" in2="shape" result="effect1_innerShadow_713_33116"/>
</filter>
<filter id="filter6_i_713_33116" x="75.9004" y="174.177" width="15.6504" height="15.6523" filterUnits="userSpaceOnUse" color-interpolation-filters="sRGB">
<feFlood flood-opacity="0" result="BackgroundImageFix"/>
<feBlend mode="normal" in="SourceGraphic" in2="BackgroundImageFix" result="shape"/>
<feColorMatrix in="SourceAlpha" type="matrix" values="0 0 0 0 0 0 0 0 0 0 0 0 0 0 0 0 0 0 127 0" result="hardAlpha"/>
<feOffset/>
<feGaussianBlur stdDeviation="1"/>
<feComposite in2="hardAlpha" operator="arithmetic" k2="-1" k3="1"/>
<feColorMatrix type="matrix" values="0 0 0 0 0 0 0 0 0 0.1875 0 0 0 0 0.178066 0 0 0 1 0"/>
<feBlend mode="normal" in2="shape" result="effect1_innerShadow_713_33116"/>
</filter>
<filter id="filter7_i_713_33116" x="0" y="0" width="234.051" height="230.092" filterUnits="userSpaceOnUse" color-interpolation-filters="sRGB">
<feFlood flood-opacity="0" result="BackgroundImageFix"/>
<feBlend mode="normal" in="SourceGraphic" in2="BackgroundImageFix" result="shape"/>
<feColorMatrix in="SourceAlpha" type="matrix" values="0 0 0 0 0 0 0 0 0 0 0 0 0 0 0 0 0 0 127 0" result="hardAlpha"/>
<feOffset dx="4"/>
<feGaussianBlur stdDeviation="2"/>
<feComposite in2="hardAlpha" operator="arithmetic" k2="-1" k3="1"/>
<feColorMatrix type="matrix" values="0 0 0 0 0 0 0 0 0 0 0 0 0 0 0 0 0 0 0.25 0"/>
<feBlend mode="normal" in2="shape" result="effect1_innerShadow_713_33116"/>
</filter>
<filter id="filter8_i_713_33116" x="105.617" y="3.73828" width="18.8145" height="22.6094" filterUnits="userSpaceOnUse" color-interpolation-filters="sRGB">
<feFlood flood-opacity="0" result="BackgroundImageFix"/>
<feBlend mode="normal" in="SourceGraphic" in2="BackgroundImageFix" result="shape"/>
<feColorMatrix in="SourceAlpha" type="matrix" values="0 0 0 0 0 0 0 0 0 0 0 0 0 0 0 0 0 0 127 0" result="hardAlpha"/>
<feOffset/>
<feGaussianBlur stdDeviation="1"/>
<feComposite in2="hardAlpha" operator="arithmetic" k2="-1" k3="1"/>
<feColorMatrix type="matrix" values="0 0 0 0 0 0 0 0 0 0.173809 0 0 0 0 0.495192 0 0 0 0.5 0"/>
<feBlend mode="normal" in2="shape" result="effect1_innerShadow_713_33116"/>
</filter>
<filter id="filter9_i_713_33116" x="142.412" y="10.9966" width="20.4648" height="24.3477" filterUnits="userSpaceOnUse" color-interpolation-filters="sRGB">
<feFlood flood-opacity="0" result="BackgroundImageFix"/>
<feBlend mode="normal" in="SourceGraphic" in2="BackgroundImageFix" result="shape"/>
<feColorMatrix in="SourceAlpha" type="matrix" values="0 0 0 0 0 0 0 0 0 0 0 0 0 0 0 0 0 0 127 0" result="hardAlpha"/>
<feOffset/>
<feGaussianBlur stdDeviation="1"/>
<feComposite in2="hardAlpha" operator="arithmetic" k2="-1" k3="1"/>
<feColorMatrix type="matrix" values="0 0 0 0 0 0 0 0 0 0.173809 0 0 0 0 0.495192 0 0 0 0.5 0"/>
<feBlend mode="normal" in2="shape" result="effect1_innerShadow_713_33116"/>
</filter>
<filter id="filter10_i_713_33116" x="10.9941" y="67.2915" width="24.3418" height="20.4678" filterUnits="userSpaceOnUse" color-interpolation-filters="sRGB">
<feFlood flood-opacity="0" result="BackgroundImageFix"/>
<feBlend mode="normal" in="SourceGraphic" in2="BackgroundImageFix" result="shape"/>
<feColorMatrix in="SourceAlpha" type="matrix" values="0 0 0 0 0 0 0 0 0 0 0 0 0 0 0 0 0 0 127 0" result="hardAlpha"/>
<feOffset/>
<feGaussianBlur stdDeviation="1"/>
<feComposite in2="hardAlpha" operator="arithmetic" k2="-1" k3="1"/>
<feColorMatrix type="matrix" values="0 0 0 0 0 0 0 0 0 0.173809 0 0 0 0 0.495192 0 0 0 0.5 0"/>
<feBlend mode="normal" in2="shape" result="effect1_innerShadow_713_33116"/>
</filter>
<filter id="filter11_i_713_33116" x="194.891" y="67.2915" width="24.3438" height="20.4678" filterUnits="userSpaceOnUse" color-interpolation-filters="sRGB">
<feFlood flood-opacity="0" result="BackgroundImageFix"/>
<feBlend mode="normal" in="SourceGraphic" in2="BackgroundImageFix" result="shape"/>
<feColorMatrix in="SourceAlpha" type="matrix" values="0 0 0 0 0 0 0 0 0 0 0 0 0 0 0 0 0 0 127 0" result="hardAlpha"/>
<feOffset/>
<feGaussianBlur stdDeviation="1"/>
<feComposite in2="hardAlpha" operator="arithmetic" k2="-1" k3="1"/>
<feColorMatrix type="matrix" values="0 0 0 0 0 0 0 0 0 0.173809 0 0 0 0 0.495192 0 0 0 0.5 0"/>
<feBlend mode="normal" in2="shape" result="effect1_innerShadow_713_33116"/>
</filter>
<filter id="filter12_i_713_33116" x="68.1484" y="10.9966" width="20.4648" height="24.3472" filterUnits="userSpaceOnUse" color-interpolation-filters="sRGB">
<feFlood flood-opacity="0" result="BackgroundImageFix"/>
<feBlend mode="normal" in="SourceGraphic" in2="BackgroundImageFix" result="shape"/>
<feColorMatrix in="SourceAlpha" type="matrix" values="0 0 0 0 0 0 0 0 0 0 0 0 0 0 0 0 0 0 127 0" result="hardAlpha"/>
<feOffset/>
<feGaussianBlur stdDeviation="1"/>
<feComposite in2="hardAlpha" operator="arithmetic" k2="-1" k3="1"/>
<feColorMatrix type="matrix" values="0 0 0 0 0 0 0 0 0 0.173809 0 0 0 0 0.495192 0 0 0 0.5 0"/>
<feBlend mode="normal" in2="shape" result="effect1_innerShadow_713_33116"/>
</filter>
<filter id="filter13_i_713_33116" x="171.312" y="31.9854" width="23.5898" height="23.5928" filterUnits="userSpaceOnUse" color-interpolation-filters="sRGB">
<feFlood flood-opacity="0" result="BackgroundImageFix"/>
<feBlend mode="normal" in="SourceGraphic" in2="BackgroundImageFix" result="shape"/>
<feColorMatrix in="SourceAlpha" type="matrix" values="0 0 0 0 0 0 0 0 0 0 0 0 0 0 0 0 0 0 127 0" result="hardAlpha"/>
<feOffset/>
<feGaussianBlur stdDeviation="1"/>
<feComposite in2="hardAlpha" operator="arithmetic" k2="-1" k3="1"/>
<feColorMatrix type="matrix" values="0 0 0 0 0 0 0 0 0 0.173809 0 0 0 0 0.495192 0 0 0 0.5 0"/>
<feBlend mode="normal" in2="shape" result="effect1_innerShadow_713_33116"/>
</filter>
<filter id="filter14_i_713_33116" x="35.457" y="173.952" width="23.5898" height="23.5928" filterUnits="userSpaceOnUse" color-interpolation-filters="sRGB">
<feFlood flood-opacity="0" result="BackgroundImageFix"/>
<feBlend mode="normal" in="SourceGraphic" in2="BackgroundImageFix" result="shape"/>
<feColorMatrix in="SourceAlpha" type="matrix" values="0 0 0 0 0 0 0 0 0 0 0 0 0 0 0 0 0 0 127 0" result="hardAlpha"/>
<feOffset/>
<feGaussianBlur stdDeviation="1"/>
<feComposite in2="hardAlpha" operator="arithmetic" k2="-1" k3="1"/>
<feColorMatrix type="matrix" values="0 0 0 0 0 0 0 0 0 0.173809 0 0 0 0 0.495192 0 0 0 0.5 0"/>
<feBlend mode="normal" in2="shape" result="effect1_innerShadow_713_33116"/>
</filter>
<filter id="filter15_i_713_33116" x="171.312" y="173.952" width="23.5879" height="23.5928" filterUnits="userSpaceOnUse" color-interpolation-filters="sRGB">
<feFlood flood-opacity="0" result="BackgroundImageFix"/>
<feBlend mode="normal" in="SourceGraphic" in2="BackgroundImageFix" result="shape"/>
<feColorMatrix in="SourceAlpha" type="matrix" values="0 0 0 0 0 0 0 0 0 0 0 0 0 0 0 0 0 0 127 0" result="hardAlpha"/>
<feOffset/>
<feGaussianBlur stdDeviation="1"/>
<feComposite in2="hardAlpha" operator="arithmetic" k2="-1" k3="1"/>
<feColorMatrix type="matrix" values="0 0 0 0 0 0 0 0 0 0.173809 0 0 0 0 0.495192 0 0 0 0.5 0"/>
<feBlend mode="normal" in2="shape" result="effect1_innerShadow_713_33116"/>
</filter>
<filter id="filter16_i_713_33116" x="141.543" y="194.926" width="20.4648" height="24.3472" filterUnits="userSpaceOnUse" color-interpolation-filters="sRGB">
<feFlood flood-opacity="0" result="BackgroundImageFix"/>
<feBlend mode="normal" in="SourceGraphic" in2="BackgroundImageFix" result="shape"/>
<feColorMatrix in="SourceAlpha" type="matrix" values="0 0 0 0 0 0 0 0 0 0 0 0 0 0 0 0 0 0 127 0" result="hardAlpha"/>
<feOffset/>
<feGaussianBlur stdDeviation="1"/>
<feComposite in2="hardAlpha" operator="arithmetic" k2="-1" k3="1"/>
<feColorMatrix type="matrix" values="0 0 0 0 0 0 0 0 0 0.173809 0 0 0 0 0.495192 0 0 0 0.5 0"/>
<feBlend mode="normal" in2="shape" result="effect1_innerShadow_713_33116"/>
</filter>
<filter id="filter17_i_713_33116" x="68.1484" y="194.926" width="20.4648" height="24.3472" filterUnits="userSpaceOnUse" color-interpolation-filters="sRGB">
<feFlood flood-opacity="0" result="BackgroundImageFix"/>
<feBlend mode="normal" in="SourceGraphic" in2="BackgroundImageFix" result="shape"/>
<feColorMatrix in="SourceAlpha" type="matrix" values="0 0 0 0 0 0 0 0 0 0 0 0 0 0 0 0 0 0 127 0" result="hardAlpha"/>
<feOffset/>
<feGaussianBlur stdDeviation="1"/>
<feComposite in2="hardAlpha" operator="arithmetic" k2="-1" k3="1"/>
<feColorMatrix type="matrix" values="0 0 0 0 0 0 0 0 0 0.173809 0 0 0 0 0.495192 0 0 0 0.5 0"/>
<feBlend mode="normal" in2="shape" result="effect1_innerShadow_713_33116"/>
</filter>
<filter id="filter18_i_713_33116" x="35.457" y="31.9854" width="23.5879" height="23.5928" filterUnits="userSpaceOnUse" color-interpolation-filters="sRGB">
<feFlood flood-opacity="0" result="BackgroundImageFix"/>
<feBlend mode="normal" in="SourceGraphic" in2="BackgroundImageFix" result="shape"/>
<feColorMatrix in="SourceAlpha" type="matrix" values="0 0 0 0 0 0 0 0 0 0 0 0 0 0 0 0 0 0 127 0" result="hardAlpha"/>
<feOffset/>
<feGaussianBlur stdDeviation="1"/>
<feComposite in2="hardAlpha" operator="arithmetic" k2="-1" k3="1"/>
<feColorMatrix type="matrix" values="0 0 0 0 0 0 0 0 0 0.173809 0 0 0 0 0.495192 0 0 0 0.5 0"/>
<feBlend mode="normal" in2="shape" result="effect1_innerShadow_713_33116"/>
</filter>
<filter id="filter19_i_713_33116" x="105.617" y="203.743" width="18.8145" height="22.6094" filterUnits="userSpaceOnUse" color-interpolation-filters="sRGB">
<feFlood flood-opacity="0" result="BackgroundImageFix"/>
<feBlend mode="normal" in="SourceGraphic" in2="BackgroundImageFix" result="shape"/>
<feColorMatrix in="SourceAlpha" type="matrix" values="0 0 0 0 0 0 0 0 0 0 0 0 0 0 0 0 0 0 127 0" result="hardAlpha"/>
<feOffset/>
<feGaussianBlur stdDeviation="1"/>
<feComposite in2="hardAlpha" operator="arithmetic" k2="-1" k3="1"/>
<feColorMatrix type="matrix" values="0 0 0 0 0 0 0 0 0 0.173809 0 0 0 0 0.495192 0 0 0 0.5 0"/>
<feBlend mode="normal" in2="shape" result="effect1_innerShadow_713_33116"/>
</filter>
<filter id="filter20_i_713_33116" x="203.707" y="105.637" width="22.6055" height="18.8164" filterUnits="userSpaceOnUse" color-interpolation-filters="sRGB">
<feFlood flood-opacity="0" result="BackgroundImageFix"/>
<feBlend mode="normal" in="SourceGraphic" in2="BackgroundImageFix" result="shape"/>
<feColorMatrix in="SourceAlpha" type="matrix" values="0 0 0 0 0 0 0 0 0 0 0 0 0 0 0 0 0 0 127 0" result="hardAlpha"/>
<feOffset/>
<feGaussianBlur stdDeviation="1"/>
<feComposite in2="hardAlpha" operator="arithmetic" k2="-1" k3="1"/>
<feColorMatrix type="matrix" values="0 0 0 0 0 0 0 0 0 0.173809 0 0 0 0 0.495192 0 0 0 0.5 0"/>
<feBlend mode="normal" in2="shape" result="effect1_innerShadow_713_33116"/>
</filter>
<filter id="filter21_i_713_33116" x="194.891" y="141.568" width="24.3438" height="20.4678" filterUnits="userSpaceOnUse" color-interpolation-filters="sRGB">
<feFlood flood-opacity="0" result="BackgroundImageFix"/>
<feBlend mode="normal" in="SourceGraphic" in2="BackgroundImageFix" result="shape"/>
<feColorMatrix in="SourceAlpha" type="matrix" values="0 0 0 0 0 0 0 0 0 0 0 0 0 0 0 0 0 0 127 0" result="hardAlpha"/>
<feOffset/>
<feGaussianBlur stdDeviation="1"/>
<feComposite in2="hardAlpha" operator="arithmetic" k2="-1" k3="1"/>
<feColorMatrix type="matrix" values="0 0 0 0 0 0 0 0 0 0.173809 0 0 0 0 0.495192 0 0 0 0.5 0"/>
<feBlend mode="normal" in2="shape" result="effect1_innerShadow_713_33116"/>
</filter>
<filter id="filter22_i_713_33116" x="10.9941" y="141.568" width="24.3438" height="20.4678" filterUnits="userSpaceOnUse" color-interpolation-filters="sRGB">
<feFlood flood-opacity="0" result="BackgroundImageFix"/>
<feBlend mode="normal" in="SourceGraphic" in2="BackgroundImageFix" result="shape"/>
<feColorMatrix in="SourceAlpha" type="matrix" values="0 0 0 0 0 0 0 0 0 0 0 0 0 0 0 0 0 0 127 0" result="hardAlpha"/>
<feOffset/>
<feGaussianBlur stdDeviation="1"/>
<feComposite in2="hardAlpha" operator="arithmetic" k2="-1" k3="1"/>
<feColorMatrix type="matrix" values="0 0 0 0 0 0 0 0 0 0.173809 0 0 0 0 0.495192 0 0 0 0.5 0"/>
<feBlend mode="normal" in2="shape" result="effect1_innerShadow_713_33116"/>
</filter>
<filter id="filter23_i_713_33116" x="3.73828" y="105.637" width="22.6055" height="18.8164" filterUnits="userSpaceOnUse" color-interpolation-filters="sRGB">
<feFlood flood-opacity="0" result="BackgroundImageFix"/>
<feBlend mode="normal" in="SourceGraphic" in2="BackgroundImageFix" result="shape"/>
<feColorMatrix in="SourceAlpha" type="matrix" values="0 0 0 0 0 0 0 0 0 0 0 0 0 0 0 0 0 0 127 0" result="hardAlpha"/>
<feOffset/>
<feGaussianBlur stdDeviation="1"/>
<feComposite in2="hardAlpha" operator="arithmetic" k2="-1" k3="1"/>
<feColorMatrix type="matrix" values="0 0 0 0 0 0 0 0 0 0.173809 0 0 0 0 0.495192 0 0 0 0.5 0"/>
<feBlend mode="normal" in2="shape" result="effect1_innerShadow_713_33116"/>
</filter>
<linearGradient id="paint0_linear_713_33116" x1="175.884" y1="226.053" x2="54.1641" y2="226.053" gradientUnits="userSpaceOnUse">
<stop stop-color="#D2D2D0"/>
<stop offset="0.79" stop-color="#B7B7B7"/>
</linearGradient>
<linearGradient id="paint1_linear_713_33116" x1="47.209" y1="240.701" x2="182.84" y2="240.701" gradientUnits="userSpaceOnUse">
<stop offset="0.298077" stop-color="#B7B7B7"/>
<stop offset="1" stop-color="#D2D2D0"/>
</linearGradient>
</defs>
</svg>
