<svg width="30" height="30" viewBox="0 0 30 30" fill="none" xmlns="http://www.w3.org/2000/svg">
<path d="M16.5 2C16.5 1.17157 15.8284 0.5 15 0.5C14.1716 0.5 13.5 1.17157 13.5 2H15H16.5ZM13.5 4V5.5H16.5V4H15H13.5ZM15 2H13.5V4H15H16.5V2H15Z" fill="#5C9BCF"/>
<circle cx="15" cy="16" r="12" fill="#E3F6FF"/>
<mask id="path-3-outside-1_1806_6710" maskUnits="userSpaceOnUse" x="2" y="3" width="26" height="26" fill="black">
<rect fill="white" x="2" y="3" width="26" height="26"/>
<path d="M27 16C27 22.6274 21.6274 28 15 28C8.37258 28 3 22.6274 3 16C3 9.37258 8.37258 4 15 4C21.6274 4 27 9.37258 27 16ZM4.8117 16C4.8117 21.6268 9.37316 26.1883 15 26.1883C20.6268 26.1883 25.1883 21.6268 25.1883 16C25.1883 10.3732 20.6268 5.8117 15 5.8117C9.37316 5.8117 4.8117 10.3732 4.8117 16Z"/>
</mask>
<path d="M27 16C27 22.6274 21.6274 28 15 28C8.37258 28 3 22.6274 3 16C3 9.37258 8.37258 4 15 4C21.6274 4 27 9.37258 27 16ZM4.8117 16C4.8117 21.6268 9.37316 26.1883 15 26.1883C20.6268 26.1883 25.1883 21.6268 25.1883 16C25.1883 10.3732 20.6268 5.8117 15 5.8117C9.37316 5.8117 4.8117 10.3732 4.8117 16Z" fill="#5C9BCF"/>
<path d="M27 16C27 22.6274 21.6274 28 15 28C8.37258 28 3 22.6274 3 16C3 9.37258 8.37258 4 15 4C21.6274 4 27 9.37258 27 16ZM4.8117 16C4.8117 21.6268 9.37316 26.1883 15 26.1883C20.6268 26.1883 25.1883 21.6268 25.1883 16C25.1883 10.3732 20.6268 5.8117 15 5.8117C9.37316 5.8117 4.8117 10.3732 4.8117 16Z" stroke="black" stroke-width="2" mask="url(#path-3-outside-1_1806_6710)"/>
<path d="M20.2781 11.9317L13.8287 14.3884C13.8112 14.395 13.796 14.4064 13.7847 14.4213L9.6066 19.9145C9.54571 19.9945 9.6278 20.1043 9.72179 20.0685L16.1713 17.6117C16.1887 17.6051 16.204 17.5937 16.2153 17.5788L20.3933 12.0856C20.4542 12.0056 20.3721 11.8959 20.2781 11.9317Z" fill="#AE0000" stroke="black" stroke-linecap="round"/>
<path d="M15 8.5V7.5" stroke="black" stroke-linecap="round"/>
<path d="M23.5 16H22.5" stroke="black" stroke-linecap="round"/>
<path d="M7.5 16H6.5" stroke="black" stroke-linecap="round"/>
<path d="M15 24.5V23.5" stroke="black" stroke-linecap="round"/>
</svg>
