<svg width="30" height="30" viewBox="0 0 30 30" fill="none" xmlns="http://www.w3.org/2000/svg">
<path d="M8.5 6H22" stroke="black" stroke-width="2"/>
<path d="M22 9.47769V2.6C22 2.35279 22.2822 2.21167 22.48 2.36L27.6383 6.2287C27.81 6.35749 27.7948 6.61968 27.6094 6.72783L22.4512 9.73682C22.2512 9.85349 22 9.70923 22 9.47769Z" fill="#69A6C4" stroke="black"/>
<path d="M7.0597 3.08907L8.92605 5.88906C8.97083 5.95624 8.97083 6.04376 8.92605 6.11093L7.05937 8.91094C7.02228 8.96658 6.95983 9 6.89296 9H3.32361C3.17493 9 3.07823 8.84354 3.14472 8.71056L4.45528 6.08944C4.48343 6.03314 4.48343 5.96686 4.45528 5.91056L3.14472 3.28944C3.07823 3.15646 3.17493 3 3.32361 3H6.89328C6.96016 3 7.02261 3.03343 7.0597 3.08907Z" fill="#69A6C4" stroke="black"/>
<path d="M15.334 18H22.834" stroke="black" stroke-width="1.5"/>
<path d="M13.667 18H6.16699" stroke="black" stroke-width="1.5"/>
<path d="M15 4V14" stroke="black" stroke-width="2" stroke-linecap="round"/>
<path d="M15 19V23" stroke="black" stroke-width="2"/>
<path d="M19 27.6V24.1657C19 24.0596 18.9579 23.9579 18.8828 23.8828L18.1172 23.1172C18.0421 23.0421 17.9404 23 17.8343 23H12.1657C12.0596 23 11.9579 23.0421 11.8828 23.1172L11.1172 23.8828C11.0421 23.9579 11 24.0596 11 24.1657V27.6C11 27.8209 11.1791 28 11.4 28H18.6C18.8209 28 19 27.8209 19 27.6Z" fill="#69A6C4" stroke="black"/>
<path d="M16.7438 13H13.2562C13.126 13 13.0306 13.1223 13.0621 13.2485L14 17V19L13.1447 20.7106C13.0782 20.8435 13.1749 21 13.3236 21H16.6764C16.8251 21 16.9218 20.8435 16.8553 20.7106L16 19V17L16.9379 13.2485C16.9694 13.1223 16.874 13 16.7438 13Z" fill="#69A6C4"/>
<circle cx="15" cy="18" r="2" fill="#EEC75E"/>
<path d="M17 18C17 19.1046 16.1046 20 15 20C15 20 15.9998 19.1046 15.9998 18C15.9998 16.8954 15 16 15 16C16.1046 16 17 16.8954 17 18Z" fill="#E6A900"/>
<circle cx="7" cy="18" r="2" fill="#EEC75E"/>
<circle cx="23" cy="18" r="2" fill="#EEC75E"/>
<path d="M17 12H13C12.4477 12 12 12.4477 12 13C12 13.5523 12.4477 14 13 14H17C17.5523 14 18 13.5523 18 13C18 12.4477 17.5523 12 17 12Z" fill="#EEC75E"/>
<path d="M25 18C25 19.1046 24.1046 20 23 20C23 20 23.9998 19.1046 23.9998 18C23.9998 16.8954 23 16 23 16C24.1046 16 25 16.8954 25 18Z" fill="#E6A900"/>
<path d="M9 18C9 19.1046 8.10457 20 7 20C7 20 7.99978 19.1046 7.99978 18C7.99978 16.8954 7 16 7 16C8.10457 16 9 16.8954 9 18Z" fill="#E6A900"/>
</svg>
