<svg width="24" height="24" viewBox="0 0 24 24" fill="none" xmlns="http://www.w3.org/2000/svg">
<path d="M13.0485 20.3994C13.327 20.3994 13.5941 20.51 13.791 20.7069C13.9879 20.9038 14.0986 21.1709 14.0986 21.4494C14.0986 21.7279 13.9879 21.995 13.791 22.1919C13.5941 22.3888 13.327 22.4995 13.0485 22.4995C12.77 22.4995 12.5029 22.3888 12.306 22.1919C12.1091 21.995 11.9985 21.7279 11.9985 21.4494C11.9985 21.1709 12.1091 20.9038 12.306 20.7069C12.5029 20.51 12.77 20.3994 13.0485 20.3994ZM9.37335 19.3493C9.65184 19.3493 9.91892 19.4599 10.1158 19.6569C10.3128 19.8538 10.4234 20.1209 10.4234 20.3994C10.4234 20.6779 10.3128 20.9449 10.1158 21.1419C9.91892 21.3388 9.65184 21.4494 9.37335 21.4494C9.09486 21.4494 8.82777 21.3388 8.63085 21.1419C8.43393 20.9449 8.3233 20.6779 8.3233 20.3994C8.3233 20.1209 8.43393 19.8538 8.63085 19.6569C8.82777 19.4599 9.09486 19.3493 9.37335 19.3493ZM16.7237 19.3493C17.0022 19.3493 17.2693 19.4599 17.4662 19.6569C17.6631 19.8538 17.7737 20.1209 17.7737 20.3994C17.7737 20.6779 17.6631 20.9449 17.4662 21.1419C17.2693 21.3388 17.0022 21.4494 16.7237 21.4494C16.4452 21.4494 16.1781 21.3388 15.9812 21.1419C15.7843 20.9449 15.6736 20.6779 15.6736 20.3994C15.6736 20.1209 15.7843 19.8538 15.9812 19.6569C16.1781 19.4599 16.4452 19.3493 16.7237 19.3493ZM13.0506 5.70814C16.3772 5.70814 18.2652 7.91009 18.5392 10.5699H18.6232C19.1317 10.5692 19.6354 10.6687 20.1054 10.8627C20.5755 11.0566 21.0027 11.3413 21.3627 11.7005C21.7227 12.0596 22.0085 12.4861 22.2036 12.9557C22.3987 13.4253 22.4994 13.9287 22.5 14.4372C22.4993 14.9456 22.3985 15.4489 22.2033 15.9184C22.0081 16.3878 21.7223 16.8142 21.3623 17.1732C21.0024 17.5323 20.5752 17.8169 20.1052 18.0108C19.6352 18.2047 19.1316 18.3042 18.6232 18.3035H7.47696C6.96854 18.3042 6.46497 18.2047 5.99499 18.0108C5.52501 17.8169 5.09783 17.5323 4.73784 17.1732C4.37785 16.8142 4.09209 16.3878 3.89689 15.9184C3.70169 15.4489 3.60087 14.9456 3.60018 14.4372C3.60073 13.9287 3.70145 13.4253 3.89659 12.9557C4.09173 12.4861 4.37746 12.0596 4.73747 11.7005C5.09747 11.3413 5.5247 11.0566 5.99475 10.8627C6.4648 10.6687 6.96846 10.5692 7.47696 10.5699H7.56096C7.83713 7.89224 9.72406 5.70814 13.0506 5.70814ZM13.0506 7.28006C10.8749 7.28006 8.97958 8.99584 8.97958 11.3648C8.97958 11.7396 8.64461 12.0347 8.26135 12.0347H7.53681C6.21165 12.0347 5.1385 13.0847 5.1385 14.3826C5.1385 15.6794 6.21165 16.7305 7.53576 16.7305H18.5644C19.8885 16.7305 20.9617 15.6804 20.9617 14.3826C20.9617 13.0858 19.8885 12.0347 18.5644 12.0347H17.8399C17.4566 12.0347 17.1217 11.7407 17.1217 11.3648C17.1217 8.96539 15.2253 7.28006 13.0506 7.28006ZM3.98345 10.0711C4.05647 10.2469 4.0633 10.4433 4.00268 10.6238C3.94206 10.8043 3.8181 10.9567 3.65373 11.0529L3.55818 11.1001L2.58479 11.5034C2.40065 11.5784 2.19495 11.581 2.00896 11.5107C1.82298 11.4404 1.67048 11.3023 1.58209 11.1242C1.4937 10.946 1.47596 10.7411 1.53242 10.5504C1.58888 10.3598 1.71538 10.1975 1.8865 10.0963L1.98206 10.048L2.95545 9.64477C3.05101 9.60518 3.15343 9.58481 3.25687 9.58481C3.3603 9.58481 3.46272 9.60519 3.55828 9.64478C3.65384 9.68437 3.74067 9.74239 3.8138 9.81554C3.88693 9.88869 3.94388 9.97552 3.98345 10.0711ZM10.7962 4.99621L10.6166 5.05711C10.0704 5.24824 9.55415 5.51624 9.08353 5.85305C8.5779 5.6885 8.03361 5.68521 7.52602 5.84364C7.01843 6.00207 6.57265 6.31438 6.25038 6.73734C5.92812 7.16029 5.74532 7.67297 5.72728 8.20441C5.70924 8.73584 5.85686 9.25974 6.1497 9.70357C5.63749 9.84702 5.15249 10.0741 4.71428 10.3756C4.23301 9.54841 4.05324 8.58 4.20557 7.63518C4.35789 6.69037 4.8329 5.82752 5.54975 5.19348C6.2666 4.55945 7.181 4.19339 8.13735 4.15762C9.0937 4.12184 10.0329 4.41855 10.7951 4.99726M2.48608 5.02981L2.59634 5.06656L3.56868 5.46978C3.75104 5.54665 3.89777 5.68936 3.97968 5.8695C4.06159 6.04965 4.07267 6.25403 4.01073 6.44198C3.94878 6.62993 3.81835 6.78767 3.64538 6.88382C3.47241 6.97996 3.26958 7.00746 3.07726 6.96085L2.96595 6.92515L1.99361 6.52193C1.81077 6.44528 1.66356 6.3025 1.58138 6.12208C1.4992 5.94166 1.48809 5.73689 1.55026 5.54864C1.61244 5.36039 1.74333 5.20251 1.9168 5.10653C2.09027 5.01055 2.29356 4.98248 2.48608 5.02981ZM6.49201 1.89541L6.53927 1.99097L6.94249 2.96331C7.01862 3.14761 7.02202 3.35392 6.95198 3.54062C6.88195 3.72732 6.7437 3.8805 6.56513 3.96925C6.38657 4.058 6.18098 4.07571 5.98987 4.01881C5.79876 3.9619 5.63635 3.83462 5.53542 3.66265L5.48712 3.56604L5.0839 2.5937C5.00885 2.40956 5.00623 2.20386 5.07656 2.01787C5.1469 1.83189 5.28498 1.6794 5.4631 1.591C5.64121 1.50261 5.84616 1.48487 6.03682 1.54133C6.22747 1.59779 6.39076 1.72429 6.49201 1.89541ZM11.0618 1.56045C11.2364 1.63262 11.3791 1.76511 11.4641 1.93377C11.5491 2.10243 11.5707 2.29601 11.5249 2.47924L11.4881 2.5895L11.086 3.56184C11.0102 3.74589 10.8676 3.89443 10.6868 3.97759C10.506 4.06076 10.3004 4.07238 10.1114 4.01012C9.92232 3.94786 9.76387 3.81634 9.66786 3.64201C9.57185 3.46767 9.54541 3.26345 9.59386 3.07042L9.63061 2.95911L10.0328 1.98677C10.0723 1.8912 10.1303 1.80436 10.2035 1.73122C10.2766 1.65807 10.3634 1.60004 10.459 1.56045C10.5546 1.52087 10.657 1.50049 10.7604 1.50049C10.8638 1.50049 10.9663 1.52086 11.0618 1.56045Z" fill="black"/>
</svg>
