<svg width="30" height="30" viewBox="0 0 30 30" fill="none" xmlns="http://www.w3.org/2000/svg">
<path d="M15.4053 13.3798V25.9833H12.8008V13.3798H15.4053Z" fill="#D9D9D9" stroke="black" stroke-width="0.5"/>
<path d="M15.0322 24.7305C15.2232 24.7046 15.4179 24.7718 15.5518 24.915L15.6133 24.9922L17.6133 27.9932C17.8088 28.2866 17.7145 28.7067 17.3701 28.8672C16.4711 29.2858 15.2762 29.4938 14.1094 29.5C12.9437 29.5061 11.7382 29.3105 10.8242 28.8633C10.4871 28.6983 10.3979 28.2847 10.5908 27.9951L12.5918 24.9941L12.6543 24.915C12.7914 24.7695 12.991 24.7041 13.1846 24.7344L13.2803 24.7568L13.5088 24.8252C13.7249 24.8821 13.9083 24.906 14.0869 24.9053C14.3275 24.9042 14.5881 24.8579 14.9375 24.751L15.0322 24.7305Z" fill="#515666" stroke="black"/>
<mask id="path-3-outside-1_1806_2419" maskUnits="userSpaceOnUse" x="6.36328" y="5.79339" width="16" height="13" fill="black">
<rect fill="white" x="6.36328" y="5.79339" width="16" height="13"/>
<path d="M14.5146 12.0512H20.7148C21.0329 12.7137 20.9532 13.0826 20.7148 13.6293H14.6289L8.17969 17.4086C7.62553 17.025 7.42412 16.7373 7.36328 16.0571L12.916 12.7026L10.6445 7.60686C11.0551 7.05624 11.3786 6.86485 12.1709 6.79339L14.5146 12.0512Z"/>
</mask>
<path d="M14.5146 12.0512H20.7148C21.0329 12.7137 20.9532 13.0826 20.7148 13.6293H14.6289L8.17969 17.4086C7.62553 17.025 7.42412 16.7373 7.36328 16.0571L12.916 12.7026L10.6445 7.60686C11.0551 7.05624 11.3786 6.86485 12.1709 6.79339L14.5146 12.0512Z" fill="#515666"/>
<path d="M14.5146 12.0512L14.058 12.2548L14.1901 12.5512H14.5146V12.0512ZM20.7148 12.0512L21.1656 11.8348L21.0294 11.5512H20.7148V12.0512ZM20.7148 13.6293V14.1293H21.0423L21.1732 13.8291L20.7148 13.6293ZM14.6289 13.6293V13.1293H14.4932L14.3761 13.1979L14.6289 13.6293ZM8.17969 17.4086L7.89509 17.8197L8.15732 18.0013L8.43248 17.84L8.17969 17.4086ZM7.36328 16.0571L7.10474 15.6291L6.83745 15.7906L6.86527 16.1016L7.36328 16.0571ZM12.916 12.7026L13.1746 13.1305L13.5525 12.9022L13.3727 12.499L12.916 12.7026ZM10.6445 7.60686L10.2437 7.30799L10.0686 7.54286L10.1878 7.81044L10.6445 7.60686ZM12.1709 6.79339L12.6276 6.58982L12.482 6.2633L12.126 6.29541L12.1709 6.79339ZM14.5146 12.0512V12.5512H20.7148V12.0512V11.5512H14.5146V12.0512ZM20.7148 12.0512L20.2641 12.2676C20.3998 12.5503 20.4295 12.7256 20.4239 12.8632C20.4179 13.01 20.3703 13.1684 20.2565 13.4295L20.7148 13.6293L21.1732 13.8291C21.2977 13.5435 21.4092 13.2441 21.4231 12.9041C21.4374 12.555 21.3479 12.2146 21.1656 11.8348L20.7148 12.0512ZM20.7148 13.6293V13.1293H14.6289V13.6293V14.1293H20.7148V13.6293ZM14.6289 13.6293L14.3761 13.1979L7.92689 16.9772L8.17969 17.4086L8.43248 17.84L14.8817 14.0607L14.6289 13.6293ZM8.17969 17.4086L8.46429 16.9975C8.20672 16.8192 8.0845 16.6983 8.01126 16.5803C7.94106 16.4673 7.88804 16.3116 7.86129 16.0125L7.36328 16.0571L6.86527 16.1016C6.89936 16.4828 6.97746 16.8111 7.16171 17.1078C7.34293 17.3997 7.5985 17.6144 7.89509 17.8197L8.17969 17.4086ZM7.36328 16.0571L7.62182 16.485L13.1746 13.1305L12.916 12.7026L12.6575 12.2746L7.10474 15.6291L7.36328 16.0571ZM12.916 12.7026L13.3727 12.499L11.1012 7.40329L10.6445 7.60686L10.1878 7.81044L12.4593 12.9061L12.916 12.7026ZM10.6445 7.60686L11.0454 7.90574C11.2308 7.65699 11.3628 7.53607 11.5032 7.4598C11.6475 7.38141 11.8482 7.32452 12.2158 7.29137L12.1709 6.79339L12.126 6.29541C11.7013 6.33371 11.3441 6.40825 11.0259 6.58108C10.7038 6.75603 10.4688 7.00612 10.2437 7.30799L10.6445 7.60686ZM12.1709 6.79339L11.7142 6.99696L14.058 12.2548L14.5146 12.0512L14.9713 11.8476L12.6276 6.58982L12.1709 6.79339Z" fill="black" mask="url(#path-3-outside-1_1806_2419)"/>
<path d="M1.99932 18.8921C1.99932 20.636 3.78514 22.0496 5.50759 22.0496C7.06651 21.2602 7.26172 18.8921 7.26172 18.8921C7.26172 18.8921 7.06651 16.5241 5.50759 15.7347C3.78514 15.7347 1.99932 17.1483 1.99932 18.8921Z" fill="#D9D9D9"/>
<path d="M4.10428 18.8921C4.10428 20.636 4.64636 22.0496 5.50759 22.0496C6.36881 22.0496 7.26172 20.636 7.26172 18.8921C7.26172 17.1483 6.36881 15.7347 5.50759 15.7347C4.64636 15.7347 4.10428 17.1483 4.10428 18.8921Z" fill="#515666"/>
<path d="M5.50781 15.2347C4.51585 15.2347 3.5251 15.6385 2.78125 16.2806C2.03626 16.9239 1.4991 17.8429 1.49902 18.8919C1.49902 19.9411 2.03621 20.86 2.78125 21.5033C3.52512 22.1454 4.51576 22.5492 5.50781 22.5492H5.62695L5.63965 22.5423C6.28197 22.4785 6.80331 21.9578 7.14062 21.3753C7.51531 20.7282 7.75586 19.8623 7.76074 18.9212L7.76367 18.8919L7.76074 18.8617C7.75562 17.9211 7.51518 17.0553 7.14062 16.4085C6.80383 15.827 6.28348 15.3076 5.64258 15.2425L5.62695 15.2347H5.50781Z" stroke="black"/>
<circle cx="24.1018" cy="13.6298" r="3.65744" fill="#989898" stroke="black"/>
<path d="M25.9962 13.6298C25.9962 15.3736 24.1018 16.7872 24.1018 16.7872C22.358 16.7872 20.9443 15.3736 20.9443 13.6298C20.9443 11.8859 22.358 10.4723 24.1018 10.4723C24.1018 10.4723 25.9962 11.8859 25.9962 13.6298Z" fill="#EAEAEA"/>
<path d="M14.1036 11.5248C12.8408 11.5248 13.0512 13.1035 13.0512 13.1035C13.8628 13.3129 14.3435 13.2991 15.1561 13.1035C15.1561 13.1035 15.3664 11.5248 14.1036 11.5248Z" fill="#D9D9D9"/>
<path d="M12.5241 4.15744C12.5241 5.90124 10.7383 7.31488 9.01585 7.31488C7.45693 6.52552 7.26172 4.15744 7.26172 4.15744C7.26172 4.15744 7.45693 1.78936 9.01585 1C10.7383 1 12.5241 2.41363 12.5241 4.15744Z" fill="#D9D9D9"/>
<path d="M10.4192 4.15744C10.4192 5.90124 9.87707 7.31488 9.01585 7.31488C8.15463 7.31488 7.26172 5.90124 7.26172 4.15744C7.26172 2.41363 8.15463 1 9.01585 1C9.87707 1 10.4192 2.41363 10.4192 4.15744Z" fill="#515666"/>
<path d="M9.01562 0.5C10.0076 0.5 10.9983 0.903839 11.7422 1.5459C12.4872 2.18915 13.0243 3.10815 13.0244 4.15723C13.0244 5.20639 12.4872 6.12526 11.7422 6.76855C10.9983 7.41072 10.0077 7.81445 9.01562 7.81445H8.89648L8.88379 7.80762C8.24147 7.74382 7.72012 7.22311 7.38281 6.64062C7.00813 5.99352 6.76758 5.12758 6.7627 4.18652L6.75977 4.15723L6.7627 4.12695C6.76781 3.18636 7.00826 2.32063 7.38281 1.67383C7.71961 1.0923 8.23996 0.572903 8.88086 0.507812L8.89648 0.5H9.01562Z" stroke="black"/>
</svg>
