<svg width="30" height="30" viewBox="0 0 30 30" fill="none" xmlns="http://www.w3.org/2000/svg">
<path d="M15 5V2.5V5ZM15 25V27.5V25ZM8.0175 8.0175L6.25 6.25L8.0175 8.0175ZM22.16 22.16L23.9275 23.9275L22.16 22.16ZM5 15H2.5H5ZM25 15H27.5H25ZM22.1613 8.0175L23.9287 6.25L22.1613 8.0175ZM8.01875 22.16L6.25 23.9275L8.01875 22.16ZM15 21.25C13.3424 21.25 11.7527 20.5915 10.5806 19.4194C9.40848 18.2473 8.75 16.6576 8.75 15C8.75 13.3424 9.40848 11.7527 10.5806 10.5806C11.7527 9.40848 13.3424 8.75 15 8.75C16.6576 8.75 18.2473 9.40848 19.4194 10.5806C20.5915 11.7527 21.25 13.3424 21.25 15C21.25 16.6576 20.5915 18.2473 19.4194 19.4194C18.2473 20.5915 16.6576 21.25 15 21.25Z" fill="#F7CA58"/>
<path d="M15 5V2.5M15 25V27.5M8.0175 8.0175L6.25 6.25M22.16 22.16L23.9275 23.9275M5 15H2.5M25 15H27.5M22.1613 8.0175L23.9287 6.25M8.01875 22.16L6.25 23.9275M15 21.25C13.3424 21.25 11.7527 20.5915 10.5806 19.4194C9.40848 18.2473 8.75 16.6576 8.75 15C8.75 13.3424 9.40848 11.7527 10.5806 10.5806C11.7527 9.40848 13.3424 8.75 15 8.75C16.6576 8.75 18.2473 9.40848 19.4194 10.5806C20.5915 11.7527 21.25 13.3424 21.25 15C21.25 16.6576 20.5915 18.2473 19.4194 19.4194C18.2473 20.5915 16.6576 21.25 15 21.25Z" stroke="black" stroke-width="1.5" stroke-linecap="round" stroke-linejoin="round"/>
</svg>
