<svg width="40" height="40" viewBox="0 0 40 40" fill="none" xmlns="http://www.w3.org/2000/svg">
<g filter="url(#filter0_d_1777_9535)">
<path d="M31.3073 5.9724C34.3545 9.0192 36.0972 13.1317 36.1671 17.4402C36.237 21.7487 34.6285 25.9155 31.6817 29.0595L31.3073 29.4467L23.4825 37.2697C22.4897 38.2619 21.1568 38.8396 19.7539 38.8859C18.351 38.9321 16.983 38.4433 15.927 37.5186L15.6614 37.2697L7.83482 29.4449C4.72218 26.3323 2.97351 22.1106 2.97351 17.7086C2.97351 13.3067 4.72218 9.08504 7.83482 5.9724C10.9475 2.85975 15.1691 1.11108 19.5711 1.11108C23.973 1.11108 28.1947 2.85975 31.3073 5.9724Z" fill="white"/>
</g>
<path d="M33.0158 17.3016C33.0158 24.7531 26.9752 30.7937 19.5237 30.7937C12.0723 30.7937 6.03168 24.7531 6.03168 17.3016C6.03168 9.85017 12.0723 3.80957 19.5237 3.80957C26.9752 3.80957 33.0158 9.85017 33.0158 17.3016Z" fill="#957841"/>
<path d="M20.6451 12.638C20.4038 12.5431 20.2821 12.268 20.4134 12.0445C20.5455 11.8197 20.7067 11.6125 20.8932 11.4284C21.1916 11.1341 21.5482 10.9056 21.9403 10.7576C22.3323 10.6096 22.751 10.5453 23.1694 10.569C23.5877 10.5927 23.9965 10.7037 24.3694 10.895C24.7422 11.0862 25.0708 11.3535 25.3341 11.6795C25.5974 12.0056 25.7894 12.3831 25.8978 12.7879C26.0063 13.1927 26.0287 13.6157 25.9637 14.0296C25.923 14.2885 25.8487 14.5403 25.7432 14.7787C25.6382 15.0158 25.3438 15.0774 25.1259 14.9368C24.9081 14.7961 24.8514 14.5062 24.9392 14.2622C24.9833 14.1398 25.0158 14.0132 25.0361 13.884C25.0807 13.5996 25.0653 13.309 24.9908 13.0309C24.9163 12.7528 24.7844 12.4934 24.6036 12.2694C24.4227 12.0454 24.1969 11.8618 23.9408 11.7304C23.6846 11.599 23.4038 11.5227 23.1164 11.5065C22.8289 11.4902 22.5413 11.5344 22.272 11.636C22.0026 11.7377 21.7576 11.8947 21.5526 12.0969C21.4595 12.1888 21.3756 12.289 21.3019 12.3962C21.1549 12.6098 20.8864 12.7329 20.6451 12.638Z" fill="white"/>
<path d="M26.4487 20.9784C26.8017 20.6033 27 20.0946 27 19.5642C27 19.0338 26.8017 18.5251 26.4487 18.15C26.0957 17.7749 25.6169 17.5642 25.1177 17.5642C25.1177 16.9843 24.9596 16.4167 24.6623 15.9303C24.3651 15.4439 23.9416 15.0595 23.443 14.8235C22.9444 14.5876 22.3921 14.5102 21.853 14.6009C21.3139 14.6915 20.811 14.9462 20.4054 15.3342C20.3501 14.3149 19.9301 13.3566 19.2314 12.6557C18.5327 11.9548 17.6082 11.5643 16.6473 11.5642C15.6489 11.5642 14.6914 11.9856 13.9854 12.7358C13.2794 13.4859 12.8827 14.5033 12.8827 15.5642L12.8865 15.7342C12.2578 15.9692 11.7276 16.4329 11.3897 17.0433C11.0519 17.6537 10.9281 18.3714 11.0403 19.0694C11.1526 19.7674 11.4936 20.4008 12.003 20.8573C12.5124 21.3139 13.1574 21.5643 13.8239 21.5642" stroke="white" stroke-width="1.2" stroke-linecap="round" stroke-linejoin="round"/>
<path d="M25 20.7645H15.5718C15.2609 20.7645 14.957 20.6707 14.6985 20.4949C14.4401 20.319 14.2386 20.0691 14.1196 19.7767C14.0007 19.4843 13.9696 19.1626 14.0302 18.8522C14.0908 18.5418 14.2405 18.2567 14.4604 18.0329C14.6802 17.8091 14.9602 17.6567 15.2651 17.595C15.57 17.5332 15.8861 17.5649 16.1733 17.686C16.4605 17.8071 16.7059 18.0122 16.8786 18.2754C17.0513 18.5385 17.1435 18.8479 17.1435 19.1644M20.2855 23.964C20.2855 24.2806 20.1933 24.59 20.0205 24.8531C19.8478 25.1163 19.6023 25.3214 19.315 25.4425C19.0278 25.5636 18.7117 25.5952 18.4068 25.5334C18.1019 25.4716 17.8218 25.3191 17.602 25.0952C17.3823 24.8714 17.2326 24.5862 17.1721 24.2757C17.1115 23.9653 17.1427 23.6435 17.2618 23.3511C17.3809 23.0588 17.5825 22.8089 17.8411 22.6332C18.0996 22.4574 18.4036 22.3637 18.7145 22.3639H25" stroke="white" stroke-linecap="round" stroke-linejoin="round"/>
<path d="M25.5 10.0642L26 9.56421" stroke="white" stroke-width="1.2" stroke-linecap="round"/>
<path d="M23.1914 9.69422L23.0568 9.00018" stroke="white" stroke-width="1.2" stroke-linecap="round"/>
<path d="M20.5678 10.1875L20.1265 9.63525" stroke="white" stroke-width="1.2" stroke-linecap="round"/>
<path d="M27.6035 14.974L26.949 14.7068" stroke="white" stroke-width="1.2" stroke-linecap="round"/>
<path d="M26.9059 12.3953L27.5941 12.2332" stroke="white" stroke-width="1.2" stroke-linecap="round"/>
<defs>
<filter id="filter0_d_1777_9535" x="1.97351" y="0.111084" width="35.1958" height="39.7778" filterUnits="userSpaceOnUse" color-interpolation-filters="sRGB">
<feFlood flood-opacity="0" result="BackgroundImageFix"/>
<feColorMatrix in="SourceAlpha" type="matrix" values="0 0 0 0 0 0 0 0 0 0 0 0 0 0 0 0 0 0 127 0" result="hardAlpha"/>
<feOffset/>
<feGaussianBlur stdDeviation="0.5"/>
<feComposite in2="hardAlpha" operator="out"/>
<feColorMatrix type="matrix" values="0 0 0 0 0 0 0 0 0 0 0 0 0 0 0 0 0 0 0.25 0"/>
<feBlend mode="normal" in2="BackgroundImageFix" result="effect1_dropShadow_1777_9535"/>
<feBlend mode="normal" in="SourceGraphic" in2="effect1_dropShadow_1777_9535" result="shape"/>
</filter>
</defs>
</svg>
