<svg width="30" height="30" viewBox="0 0 30 30" fill="none" xmlns="http://www.w3.org/2000/svg">
<path d="M21.2139 23.3214V26.1788H9.07129V23.3214H21.2139Z" fill="#FFECC2" stroke="black"/>
<circle cx="15.1429" cy="13.1429" r="11.1429" fill="#FFECC2"/>
<mask id="path-3-outside-1_1806_8090" maskUnits="userSpaceOnUse" x="3" y="1" width="25" height="25" fill="black">
<rect fill="white" x="3" y="1" width="25" height="25"/>
<path d="M26.2857 13.1429C26.2857 19.2969 21.2969 24.2857 15.1429 24.2857C8.98883 24.2857 4 19.2969 4 13.1429C4 6.98883 8.98883 2 15.1429 2C21.2969 2 26.2857 6.98883 26.2857 13.1429ZM5.34898 13.1429C5.34898 18.5519 9.73385 22.9367 15.1429 22.9367C20.5519 22.9367 24.9367 18.5519 24.9367 13.1429C24.9367 7.73385 20.5519 3.34898 15.1429 3.34898C9.73385 3.34898 5.34898 7.73385 5.34898 13.1429Z"/>
</mask>
<path d="M26.2857 13.1429C26.2857 19.2969 21.2969 24.2857 15.1429 24.2857C8.98883 24.2857 4 19.2969 4 13.1429C4 6.98883 8.98883 2 15.1429 2C21.2969 2 26.2857 6.98883 26.2857 13.1429ZM5.34898 13.1429C5.34898 18.5519 9.73385 22.9367 15.1429 22.9367C20.5519 22.9367 24.9367 18.5519 24.9367 13.1429C24.9367 7.73385 20.5519 3.34898 15.1429 3.34898C9.73385 3.34898 5.34898 7.73385 5.34898 13.1429Z" fill="#BF932A"/>
<path d="M26.2857 13.1429C26.2857 19.2969 21.2969 24.2857 15.1429 24.2857C8.98883 24.2857 4 19.2969 4 13.1429C4 6.98883 8.98883 2 15.1429 2C21.2969 2 26.2857 6.98883 26.2857 13.1429ZM5.34898 13.1429C5.34898 18.5519 9.73385 22.9367 15.1429 22.9367C20.5519 22.9367 24.9367 18.5519 24.9367 13.1429C24.9367 7.73385 20.5519 3.34898 15.1429 3.34898C9.73385 3.34898 5.34898 7.73385 5.34898 13.1429Z" stroke="black" stroke-width="2" mask="url(#path-3-outside-1_1806_8090)"/>
<path d="M18.8318 19.0918C20.1294 18.2871 21.1283 17.0802 21.6763 15.655C22.2242 14.2298 22.2912 12.6646 21.8669 11.1978C21.4427 9.73107 20.5505 8.44326 19.3263 7.53068C18.1021 6.6181 16.6132 6.13081 15.0863 6.14308C13.5595 6.15535 12.0785 6.66651 10.8692 7.59864C9.65987 8.53078 8.78847 9.83276 8.38784 11.3061C7.9872 12.7795 8.07931 14.3435 8.65011 15.7597C9.22091 17.1759 10.2391 18.3666 11.5495 19.1503" stroke="black" stroke-linecap="round"/>
<path d="M14.6426 7.57143C14.6426 7.84757 14.8664 8.07143 15.1426 8.07143C15.4187 8.07143 15.6426 7.84757 15.6426 7.57143H15.1426H14.6426ZM15.1426 6.17857H14.6426V7.57143H15.1426H15.6426V6.17857H15.1426Z" fill="black"/>
<path d="M18.033 8.49813C17.861 8.71411 17.8966 9.02868 18.1126 9.20075C18.3285 9.37281 18.6431 9.33721 18.8152 9.12122L18.4241 8.80968L18.033 8.49813ZM19.292 7.72026L18.9009 7.40871L18.033 8.49813L18.4241 8.80968L18.8152 9.12122L19.6831 8.03181L19.292 7.72026Z" fill="black"/>
<path d="M20.2497 11.7143C19.9736 11.7143 19.7497 11.9381 19.7497 12.2143C19.7497 12.4904 19.9736 12.7143 20.2497 12.7143V12.2143V11.7143ZM21.6426 12.2143V11.7143H20.2497V12.2143V12.7143H21.6426V12.2143Z" fill="black"/>
<path d="M10.038 11.7214C10.3141 11.7228 10.5368 11.9479 10.5354 12.224C10.534 12.5001 10.309 12.7228 10.0329 12.7214L10.0354 12.2214L10.038 11.7214ZM8.64258 12.2143L8.64514 11.7143L10.038 11.7214L10.0354 12.2214L10.0329 12.7214L8.64001 12.7143L8.64258 12.2143Z" fill="black"/>
<path d="M11.5967 9.11225C11.7982 9.30102 12.1147 9.29066 12.3034 9.08911C12.4922 8.88756 12.4818 8.57115 12.2803 8.38238L11.9385 8.74732L11.5967 9.11225ZM10.9219 7.79518L10.5801 8.16012L11.5967 9.11225L11.9385 8.74732L12.2803 8.38238L11.2637 7.43025L10.9219 7.79518Z" fill="black"/>
<path d="M19.549 15.7997C19.3305 15.6308 19.0165 15.6709 18.8476 15.8893C18.6786 16.1077 18.7187 16.4217 18.9371 16.5907L19.243 16.1952L19.549 15.7997ZM20.3447 17.0475L20.6507 16.652L19.549 15.7997L19.243 16.1952L18.9371 16.5907L20.0388 17.4429L20.3447 17.0475Z" fill="black"/>
<path d="M11.3649 16.6176C11.5871 16.4536 11.6343 16.1406 11.4704 15.9184C11.3064 15.6962 10.9934 15.649 10.7712 15.8129L11.068 16.2153L11.3649 16.6176ZM9.94727 17.0423L10.2441 17.4446L11.3649 16.6176L11.068 16.2153L10.7712 15.8129L9.6504 16.6399L9.94727 17.0423Z" fill="black"/>
<path d="M15.1424 8.5L16.071 16.8571H14.2139L15.1424 8.5Z" fill="#FF3333"/>
<circle cx="15.1424" cy="13.1429" r="1.42857" fill="#FF3333" stroke="black"/>
<path d="M24.8573 26.1429H5.42871C5.15257 26.1429 4.92871 26.3667 4.92871 26.6429V27.5C4.92871 27.7761 5.15257 28 5.42871 28H24.8573C25.1334 28 25.3573 27.7761 25.3573 27.5V26.6429C25.3573 26.3667 25.1334 26.1429 24.8573 26.1429Z" fill="#5B5B5B" stroke="black"/>
</svg>
