<svg width="38" height="174" viewBox="0 0 38 174" fill="none" xmlns="http://www.w3.org/2000/svg">
<path d="M32.75 172.75H4.75C2.54086 172.75 0.75 170.959 0.75 168.75V4.75C0.75 2.54086 2.54086 0.75 4.75 0.75H32.75C34.9591 0.75 36.75 2.54086 36.75 4.75V168.75C36.75 170.959 34.9591 172.75 32.75 172.75Z" fill="#FFD178" stroke="black" stroke-width="1.5" stroke-linecap="round" stroke-linejoin="round"/>
<path d="M3.75 20.75H15.75" stroke="black" stroke-width="1.5" stroke-linejoin="round"/>
<path d="M3.75 28.75H15.75" stroke="black" stroke-width="1.5" stroke-linejoin="round"/>
<path d="M3.75 36.75H15.75" stroke="black" stroke-width="1.5" stroke-linejoin="round"/>
<path d="M3.75 44.75H15.75" stroke="black" stroke-width="1.5" stroke-linejoin="round"/>
<path d="M3.75 60.75H15.75" stroke="black" stroke-width="1.5" stroke-linejoin="round"/>
<path d="M3.75 68.75H15.75" stroke="black" stroke-width="1.5" stroke-linejoin="round"/>
<path d="M3.75 76.75H15.75" stroke="black" stroke-width="1.5" stroke-linejoin="round"/>
<path d="M3.75 84.75H15.75" stroke="black" stroke-width="1.5" stroke-linejoin="round"/>
<path d="M3.75 100.75H15.75" stroke="black" stroke-width="1.5" stroke-linejoin="round"/>
<path d="M3.75 108.75H15.75" stroke="black" stroke-width="1.5" stroke-linejoin="round"/>
<path d="M3.75 116.75H15.75" stroke="black" stroke-width="1.5" stroke-linejoin="round"/>
<path d="M3.75 164.25H15.75" stroke="black" stroke-width="1.5" stroke-linejoin="round"/>
<path d="M3.75 124.75H15.75" stroke="black" stroke-width="1.5" stroke-linejoin="round"/>
<path d="M3.75 10.75H21.75L19.75 13.75H3.75V10.75Z" fill="#FF0000"/>
<path d="M3.75 51.75H21.75L19.75 54.75H3.75V51.75Z" fill="#FF0000"/>
<path d="M3.75 91.75H21.75L19.8484 94.75H3.75V91.75Z" fill="#FF0000"/>
<path d="M3.75 140.25H15.75" stroke="black" stroke-width="1.5" stroke-linejoin="round"/>
<path d="M3.75 148.25H15.75" stroke="black" stroke-width="1.5" stroke-linejoin="round"/>
<path d="M3.75 156.25H15.75" stroke="black" stroke-width="1.5" stroke-linejoin="round"/>
<path d="M3.75 130.75H21.75L19.75 133.75H3.75V130.75Z" fill="#FF0000"/>
<path d="M25.342 169.846C24.8887 169.846 24.4887 169.723 24.142 169.478C23.7953 169.227 23.5233 168.886 23.326 168.454C23.1287 168.017 23.03 167.515 23.03 166.95C23.03 166.385 23.1287 165.886 23.326 165.454C23.5233 165.017 23.7927 164.675 24.134 164.43C24.4807 164.179 24.8807 164.054 25.334 164.054C25.7873 164.054 26.1873 164.179 26.534 164.43C26.886 164.675 27.1607 165.017 27.358 165.454C27.5553 165.886 27.654 166.385 27.654 166.95C27.654 167.515 27.5553 168.017 27.358 168.454C27.1607 168.886 26.8887 169.227 26.542 169.478C26.1953 169.723 25.7953 169.846 25.342 169.846ZM25.342 168.854C25.582 168.854 25.7953 168.774 25.982 168.614C26.174 168.449 26.3233 168.225 26.43 167.942C26.5367 167.654 26.59 167.323 26.59 166.95C26.59 166.577 26.5367 166.246 26.43 165.958C26.3233 165.67 26.174 165.446 25.982 165.286C25.7953 165.121 25.5793 165.038 25.334 165.038C25.094 165.038 24.8807 165.121 24.694 165.286C24.5073 165.446 24.3607 165.67 24.254 165.958C24.1527 166.246 24.102 166.577 24.102 166.95C24.102 167.323 24.1527 167.654 24.254 167.942C24.3607 168.225 24.5073 168.449 24.694 168.614C24.886 168.774 25.102 168.854 25.342 168.854Z" fill="black"/>
<path d="M24.31 134.75V129.734L24.414 129.15H25.358V134.75H24.31ZM23.126 130.918V129.926C23.2593 129.937 23.4033 129.905 23.558 129.83C23.7127 129.75 23.8647 129.649 24.014 129.526C24.1687 129.398 24.302 129.27 24.414 129.142L25.11 129.822C24.918 130.035 24.7153 130.23 24.502 130.406C24.2887 130.577 24.0673 130.71 23.838 130.806C23.614 130.902 23.3767 130.939 23.126 130.918ZM28.717 134.846C28.2637 134.846 27.8637 134.723 27.517 134.478C27.1703 134.227 26.8983 133.886 26.701 133.454C26.5037 133.017 26.405 132.515 26.405 131.95C26.405 131.385 26.5037 130.886 26.701 130.454C26.8983 130.017 27.1677 129.675 27.509 129.43C27.8557 129.179 28.2557 129.054 28.709 129.054C29.1623 129.054 29.5623 129.179 29.909 129.43C30.261 129.675 30.5357 130.017 30.733 130.454C30.9303 130.886 31.029 131.385 31.029 131.95C31.029 132.515 30.9303 133.017 30.733 133.454C30.5357 133.886 30.2637 134.227 29.917 134.478C29.5703 134.723 29.1703 134.846 28.717 134.846ZM28.717 133.854C28.957 133.854 29.1703 133.774 29.357 133.614C29.549 133.449 29.6983 133.225 29.805 132.942C29.9117 132.654 29.965 132.323 29.965 131.95C29.965 131.577 29.9117 131.246 29.805 130.958C29.6983 130.67 29.549 130.446 29.357 130.286C29.1703 130.121 28.9543 130.038 28.709 130.038C28.469 130.038 28.2557 130.121 28.069 130.286C27.8823 130.446 27.7357 130.67 27.629 130.958C27.5277 131.246 27.477 131.577 27.477 131.95C27.477 132.323 27.5277 132.654 27.629 132.942C27.7357 133.225 27.8823 133.449 28.069 133.614C28.261 133.774 28.477 133.854 28.717 133.854Z" fill="black"/>
<path d="M23.158 95.75V94.942C23.158 94.7873 23.206 94.6167 23.302 94.43C23.398 94.2433 23.5313 94.0567 23.702 93.87C23.8727 93.6833 24.0727 93.51 24.302 93.35L25.15 92.742C25.2673 92.662 25.3767 92.5713 25.478 92.47C25.5847 92.3687 25.67 92.2593 25.734 92.142C25.8033 92.0193 25.838 91.902 25.838 91.79C25.838 91.6513 25.8033 91.526 25.734 91.414C25.67 91.302 25.574 91.214 25.446 91.15C25.318 91.086 25.1607 91.054 24.974 91.054C24.814 91.054 24.67 91.086 24.542 91.15C24.4193 91.214 24.318 91.2993 24.238 91.406C24.158 91.5127 24.102 91.6273 24.07 91.75L22.942 91.558C22.9953 91.2913 23.11 91.0433 23.286 90.814C23.462 90.5847 23.6913 90.4007 23.974 90.262C24.262 90.118 24.5873 90.046 24.95 90.046C25.366 90.046 25.7233 90.1207 26.022 90.27C26.3207 90.4193 26.55 90.6247 26.71 90.886C26.8753 91.142 26.958 91.4407 26.958 91.782C26.958 92.1287 26.862 92.438 26.67 92.71C26.4833 92.9767 26.2247 93.2273 25.894 93.462L25.134 94.014C24.9793 94.1207 24.846 94.238 24.734 94.366C24.622 94.494 24.5367 94.6353 24.478 94.79H27.03V95.75H23.158ZM29.9748 95.846C29.5215 95.846 29.1215 95.7233 28.7748 95.478C28.4281 95.2273 28.1561 94.886 27.9588 94.454C27.7615 94.0167 27.6628 93.5153 27.6628 92.95C27.6628 92.3847 27.7615 91.886 27.9588 91.454C28.1561 91.0167 28.4255 90.6753 28.7668 90.43C29.1135 90.1793 29.5135 90.054 29.9668 90.054C30.4201 90.054 30.8201 90.1793 31.1668 90.43C31.5188 90.6753 31.7935 91.0167 31.9908 91.454C32.1881 91.886 32.2868 92.3847 32.2868 92.95C32.2868 93.5153 32.1881 94.0167 31.9908 94.454C31.7935 94.886 31.5215 95.2273 31.1748 95.478C30.8281 95.7233 30.4281 95.846 29.9748 95.846ZM29.9748 94.854C30.2148 94.854 30.4281 94.774 30.6148 94.614C30.8068 94.4487 30.9561 94.2247 31.0628 93.942C31.1695 93.654 31.2228 93.3233 31.2228 92.95C31.2228 92.5767 31.1695 92.246 31.0628 91.958C30.9561 91.67 30.8068 91.446 30.6148 91.286C30.4281 91.1207 30.2121 91.038 29.9668 91.038C29.7268 91.038 29.5135 91.1207 29.3268 91.286C29.1401 91.446 28.9935 91.67 28.8868 91.958C28.7855 92.246 28.7348 92.5767 28.7348 92.95C28.7348 93.3233 28.7855 93.654 28.8868 93.942C28.9935 94.2247 29.1401 94.4487 29.3268 94.614C29.5188 94.774 29.7348 94.854 29.9748 94.854Z" fill="black"/>
<path d="M24.998 55.846C24.6673 55.846 24.3687 55.798 24.102 55.702C23.8353 55.6007 23.6113 55.4593 23.43 55.278C23.254 55.0913 23.1313 54.8727 23.062 54.622L24.07 54.326C24.1073 54.39 24.158 54.47 24.222 54.566C24.286 54.6567 24.374 54.734 24.486 54.798C24.598 54.862 24.7447 54.894 24.926 54.894C25.1927 54.894 25.4033 54.822 25.558 54.678C25.718 54.5287 25.798 54.3367 25.798 54.102C25.798 53.942 25.758 53.8007 25.678 53.678C25.598 53.5553 25.4673 53.462 25.286 53.398C25.11 53.3287 24.878 53.294 24.59 53.294H24.254V52.55H24.55C24.87 52.55 25.1713 52.59 25.454 52.67C25.7367 52.7447 25.9847 52.8567 26.198 53.006C26.4167 53.15 26.5873 53.326 26.71 53.534C26.8327 53.7367 26.894 53.9687 26.894 54.23C26.894 54.566 26.806 54.8567 26.63 55.102C26.454 55.342 26.222 55.526 25.934 55.654C25.646 55.782 25.334 55.846 24.998 55.846ZM24.254 53.094V52.398H24.59C24.9633 52.398 25.2407 52.334 25.422 52.206C25.6033 52.078 25.694 51.902 25.694 51.678C25.694 51.55 25.662 51.4353 25.598 51.334C25.534 51.2327 25.4433 51.1527 25.326 51.094C25.2087 51.0353 25.0727 51.006 24.918 51.006C24.8167 51.006 24.7127 51.0247 24.606 51.062C24.4993 51.094 24.4007 51.15 24.31 51.23C24.2247 51.3047 24.1553 51.414 24.102 51.558L23.11 51.262C23.1847 51.0007 23.3127 50.782 23.494 50.606C23.6807 50.4247 23.902 50.2887 24.158 50.198C24.414 50.102 24.678 50.054 24.95 50.054C25.2967 50.054 25.6087 50.1207 25.886 50.254C26.1633 50.382 26.382 50.5607 26.542 50.79C26.702 51.0193 26.782 51.2833 26.782 51.582C26.782 51.838 26.7207 52.0593 26.598 52.246C26.4753 52.4327 26.3073 52.59 26.094 52.718C25.886 52.846 25.6487 52.942 25.382 53.006C25.1153 53.0647 24.838 53.094 24.55 53.094H24.254ZM29.7873 55.846C29.334 55.846 28.934 55.7233 28.5873 55.478C28.2406 55.2273 27.9686 54.886 27.7713 54.454C27.574 54.0167 27.4753 53.5153 27.4753 52.95C27.4753 52.3847 27.574 51.886 27.7713 51.454C27.9686 51.0167 28.238 50.6753 28.5793 50.43C28.926 50.1793 29.326 50.054 29.7793 50.054C30.2326 50.054 30.6326 50.1793 30.9793 50.43C31.3313 50.6753 31.606 51.0167 31.8033 51.454C32.0006 51.886 32.0993 52.3847 32.0993 52.95C32.0993 53.5153 32.0006 54.0167 31.8033 54.454C31.606 54.886 31.334 55.2273 30.9873 55.478C30.6406 55.7233 30.2406 55.846 29.7873 55.846ZM29.7873 54.854C30.0273 54.854 30.2406 54.774 30.4273 54.614C30.6193 54.4487 30.7686 54.2247 30.8753 53.942C30.982 53.654 31.0353 53.3233 31.0353 52.95C31.0353 52.5767 30.982 52.246 30.8753 51.958C30.7686 51.67 30.6193 51.446 30.4273 51.286C30.2406 51.1207 30.0246 51.038 29.7793 51.038C29.5393 51.038 29.326 51.1207 29.1393 51.286C28.9526 51.446 28.806 51.67 28.6993 51.958C28.598 52.246 28.5473 52.5767 28.5473 52.95C28.5473 53.3233 28.598 53.654 28.6993 53.942C28.806 54.2247 28.9526 54.4487 29.1393 54.614C29.3313 54.774 29.5473 54.854 29.7873 54.854Z" fill="black"/>
<path d="M25.566 14.75V13.646H22.958V12.774L25.438 9.15H26.598V12.71H27.574V13.646H26.598V14.75H25.566ZM24.086 12.71H25.566V10.542L24.086 12.71ZM30.4045 14.846C29.9512 14.846 29.5512 14.7233 29.2045 14.478C28.8578 14.2273 28.5858 13.886 28.3885 13.454C28.1912 13.0167 28.0925 12.5153 28.0925 11.95C28.0925 11.3847 28.1912 10.886 28.3885 10.454C28.5858 10.0167 28.8552 9.67533 29.1965 9.43C29.5432 9.17933 29.9432 9.054 30.3965 9.054C30.8498 9.054 31.2498 9.17933 31.5965 9.43C31.9485 9.67533 32.2232 10.0167 32.4205 10.454C32.6178 10.886 32.7165 11.3847 32.7165 11.95C32.7165 12.5153 32.6178 13.0167 32.4205 13.454C32.2232 13.886 31.9512 14.2273 31.6045 14.478C31.2578 14.7233 30.8578 14.846 30.4045 14.846ZM30.4045 13.854C30.6445 13.854 30.8578 13.774 31.0445 13.614C31.2365 13.4487 31.3858 13.2247 31.4925 12.942C31.5992 12.654 31.6525 12.3233 31.6525 11.95C31.6525 11.5767 31.5992 11.246 31.4925 10.958C31.3858 10.67 31.2365 10.446 31.0445 10.286C30.8578 10.1207 30.6418 10.038 30.3965 10.038C30.1565 10.038 29.9432 10.1207 29.7565 10.286C29.5698 10.446 29.4232 10.67 29.3165 10.958C29.2152 11.246 29.1645 11.5767 29.1645 11.95C29.1645 12.3233 29.2152 12.654 29.3165 12.942C29.4232 13.2247 29.5698 13.4487 29.7565 13.614C29.9485 13.774 30.1645 13.854 30.4045 13.854Z" fill="black"/>
</svg>
