<svg width="38" height="162" viewBox="0 0 38 162" fill="none" xmlns="http://www.w3.org/2000/svg">
<path d="M32.75 160.75H4.75C2.54086 160.75 0.75 158.959 0.75 156.75V4.75C0.75 2.54086 2.54086 0.75 4.75 0.75H32.75C34.9591 0.75 36.75 2.54086 36.75 4.75V156.75C36.75 158.959 34.9591 160.75 32.75 160.75Z" fill="#FFD178" stroke="black" stroke-width="1.5" stroke-linecap="round" stroke-linejoin="round"/>
<path d="M3.75 17.75H15.75" stroke="black" stroke-width="1.5" stroke-linejoin="round"/>
<path d="M3.75 25.75H15.75" stroke="black" stroke-width="1.5" stroke-linejoin="round"/>
<path d="M3.75 33.75H15.75" stroke="black" stroke-width="1.5" stroke-linejoin="round"/>
<path d="M3.75 41.75H15.75" stroke="black" stroke-width="1.5" stroke-linejoin="round"/>
<path d="M3.75 57.75H15.75" stroke="black" stroke-width="1.5" stroke-linejoin="round"/>
<path d="M3.75 65.75H15.75" stroke="black" stroke-width="1.5" stroke-linejoin="round"/>
<path d="M3.75 73.75H15.75" stroke="black" stroke-width="1.5" stroke-linejoin="round"/>
<path d="M3.75 81.75H15.75" stroke="black" stroke-width="1.5" stroke-linejoin="round"/>
<path d="M3.75 97.75H15.75" stroke="black" stroke-width="1.5" stroke-linejoin="round"/>
<path d="M3.75 105.75H15.75" stroke="black" stroke-width="1.5" stroke-linejoin="round"/>
<path d="M3.75 113.75H15.75" stroke="black" stroke-width="1.5" stroke-linejoin="round"/>
<path d="M3.75 121.75H15.75" stroke="black" stroke-width="1.5" stroke-linejoin="round"/>
<path d="M3.75 7.75H21.75L19.75 10.75H3.75V7.75Z" fill="#FF0000"/>
<path d="M3.75 48.75H21.75L19.75 51.75H3.75V48.75Z" fill="#FF0000"/>
<path d="M3.75 88.75H21.75L19.8484 91.75H3.75V88.75Z" fill="#FF0000"/>
<path d="M3.75 137.25H15.75" stroke="black" stroke-width="1.5" stroke-linejoin="round"/>
<path d="M3.75 145.25H15.75" stroke="black" stroke-width="1.5" stroke-linejoin="round"/>
<path d="M3.75 153.25H15.75" stroke="black" stroke-width="1.5" stroke-linejoin="round"/>
<path d="M3.75 127.75H21.75L19.75 130.75H3.75V127.75Z" fill="#FF0000"/>
<path d="M25.342 158.846C24.8887 158.846 24.4887 158.723 24.142 158.478C23.7953 158.227 23.5233 157.886 23.326 157.454C23.1287 157.017 23.03 156.515 23.03 155.95C23.03 155.385 23.1287 154.886 23.326 154.454C23.5233 154.017 23.7927 153.675 24.134 153.43C24.4807 153.179 24.8807 153.054 25.334 153.054C25.7873 153.054 26.1873 153.179 26.534 153.43C26.886 153.675 27.1607 154.017 27.358 154.454C27.5553 154.886 27.654 155.385 27.654 155.95C27.654 156.515 27.5553 157.017 27.358 157.454C27.1607 157.886 26.8887 158.227 26.542 158.478C26.1953 158.723 25.7953 158.846 25.342 158.846ZM25.342 157.854C25.582 157.854 25.7953 157.774 25.982 157.614C26.174 157.449 26.3233 157.225 26.43 156.942C26.5367 156.654 26.59 156.323 26.59 155.95C26.59 155.577 26.5367 155.246 26.43 154.958C26.3233 154.67 26.174 154.446 25.982 154.286C25.7953 154.121 25.5793 154.038 25.334 154.038C25.094 154.038 24.8807 154.121 24.694 154.286C24.5073 154.446 24.3607 154.67 24.254 154.958C24.1527 155.246 24.102 155.577 24.102 155.95C24.102 156.323 24.1527 156.654 24.254 156.942C24.3607 157.225 24.5073 157.449 24.694 157.614C24.886 157.774 25.102 157.854 25.342 157.854Z" fill="black"/>
<path d="M24.31 131.75V126.734L24.414 126.15H25.358V131.75H24.31ZM23.126 127.918V126.926C23.2593 126.937 23.4033 126.905 23.558 126.83C23.7127 126.75 23.8647 126.649 24.014 126.526C24.1687 126.398 24.302 126.27 24.414 126.142L25.11 126.822C24.918 127.035 24.7153 127.23 24.502 127.406C24.2887 127.577 24.0673 127.71 23.838 127.806C23.614 127.902 23.3767 127.939 23.126 127.918ZM28.717 131.846C28.2637 131.846 27.8637 131.723 27.517 131.478C27.1703 131.227 26.8983 130.886 26.701 130.454C26.5037 130.017 26.405 129.515 26.405 128.95C26.405 128.385 26.5037 127.886 26.701 127.454C26.8983 127.017 27.1677 126.675 27.509 126.43C27.8557 126.179 28.2557 126.054 28.709 126.054C29.1623 126.054 29.5623 126.179 29.909 126.43C30.261 126.675 30.5357 127.017 30.733 127.454C30.9303 127.886 31.029 128.385 31.029 128.95C31.029 129.515 30.9303 130.017 30.733 130.454C30.5357 130.886 30.2637 131.227 29.917 131.478C29.5703 131.723 29.1703 131.846 28.717 131.846ZM28.717 130.854C28.957 130.854 29.1703 130.774 29.357 130.614C29.549 130.449 29.6983 130.225 29.805 129.942C29.9117 129.654 29.965 129.323 29.965 128.95C29.965 128.577 29.9117 128.246 29.805 127.958C29.6983 127.67 29.549 127.446 29.357 127.286C29.1703 127.121 28.9543 127.038 28.709 127.038C28.469 127.038 28.2557 127.121 28.069 127.286C27.8823 127.446 27.7357 127.67 27.629 127.958C27.5277 128.246 27.477 128.577 27.477 128.95C27.477 129.323 27.5277 129.654 27.629 129.942C27.7357 130.225 27.8823 130.449 28.069 130.614C28.261 130.774 28.477 130.854 28.717 130.854Z" fill="black"/>
<path d="M23.158 92.75V91.942C23.158 91.7873 23.206 91.6167 23.302 91.43C23.398 91.2433 23.5313 91.0567 23.702 90.87C23.8727 90.6833 24.0727 90.51 24.302 90.35L25.15 89.742C25.2673 89.662 25.3767 89.5713 25.478 89.47C25.5847 89.3687 25.67 89.2593 25.734 89.142C25.8033 89.0193 25.838 88.902 25.838 88.79C25.838 88.6513 25.8033 88.526 25.734 88.414C25.67 88.302 25.574 88.214 25.446 88.15C25.318 88.086 25.1607 88.054 24.974 88.054C24.814 88.054 24.67 88.086 24.542 88.15C24.4193 88.214 24.318 88.2993 24.238 88.406C24.158 88.5127 24.102 88.6273 24.07 88.75L22.942 88.558C22.9953 88.2913 23.11 88.0433 23.286 87.814C23.462 87.5847 23.6913 87.4007 23.974 87.262C24.262 87.118 24.5873 87.046 24.95 87.046C25.366 87.046 25.7233 87.1207 26.022 87.27C26.3207 87.4193 26.55 87.6247 26.71 87.886C26.8753 88.142 26.958 88.4407 26.958 88.782C26.958 89.1287 26.862 89.438 26.67 89.71C26.4833 89.9767 26.2247 90.2273 25.894 90.462L25.134 91.014C24.9793 91.1207 24.846 91.238 24.734 91.366C24.622 91.494 24.5367 91.6353 24.478 91.79H27.03V92.75H23.158ZM29.9748 92.846C29.5215 92.846 29.1215 92.7233 28.7748 92.478C28.4281 92.2273 28.1561 91.886 27.9588 91.454C27.7615 91.0167 27.6628 90.5153 27.6628 89.95C27.6628 89.3847 27.7615 88.886 27.9588 88.454C28.1561 88.0167 28.4255 87.6753 28.7668 87.43C29.1135 87.1793 29.5135 87.054 29.9668 87.054C30.4201 87.054 30.8201 87.1793 31.1668 87.43C31.5188 87.6753 31.7935 88.0167 31.9908 88.454C32.1881 88.886 32.2868 89.3847 32.2868 89.95C32.2868 90.5153 32.1881 91.0167 31.9908 91.454C31.7935 91.886 31.5215 92.2273 31.1748 92.478C30.8281 92.7233 30.4281 92.846 29.9748 92.846ZM29.9748 91.854C30.2148 91.854 30.4281 91.774 30.6148 91.614C30.8068 91.4487 30.9561 91.2247 31.0628 90.942C31.1695 90.654 31.2228 90.3233 31.2228 89.95C31.2228 89.5767 31.1695 89.246 31.0628 88.958C30.9561 88.67 30.8068 88.446 30.6148 88.286C30.4281 88.1207 30.2121 88.038 29.9668 88.038C29.7268 88.038 29.5135 88.1207 29.3268 88.286C29.1401 88.446 28.9935 88.67 28.8868 88.958C28.7855 89.246 28.7348 89.5767 28.7348 89.95C28.7348 90.3233 28.7855 90.654 28.8868 90.942C28.9935 91.2247 29.1401 91.4487 29.3268 91.614C29.5188 91.774 29.7348 91.854 29.9748 91.854Z" fill="black"/>
<path d="M24.998 52.846C24.6673 52.846 24.3687 52.798 24.102 52.702C23.8353 52.6007 23.6113 52.4593 23.43 52.278C23.254 52.0913 23.1313 51.8727 23.062 51.622L24.07 51.326C24.1073 51.39 24.158 51.47 24.222 51.566C24.286 51.6567 24.374 51.734 24.486 51.798C24.598 51.862 24.7447 51.894 24.926 51.894C25.1927 51.894 25.4033 51.822 25.558 51.678C25.718 51.5287 25.798 51.3367 25.798 51.102C25.798 50.942 25.758 50.8007 25.678 50.678C25.598 50.5553 25.4673 50.462 25.286 50.398C25.11 50.3287 24.878 50.294 24.59 50.294H24.254V49.55H24.55C24.87 49.55 25.1713 49.59 25.454 49.67C25.7367 49.7447 25.9847 49.8567 26.198 50.006C26.4167 50.15 26.5873 50.326 26.71 50.534C26.8327 50.7367 26.894 50.9687 26.894 51.23C26.894 51.566 26.806 51.8567 26.63 52.102C26.454 52.342 26.222 52.526 25.934 52.654C25.646 52.782 25.334 52.846 24.998 52.846ZM24.254 50.094V49.398H24.59C24.9633 49.398 25.2407 49.334 25.422 49.206C25.6033 49.078 25.694 48.902 25.694 48.678C25.694 48.55 25.662 48.4353 25.598 48.334C25.534 48.2327 25.4433 48.1527 25.326 48.094C25.2087 48.0353 25.0727 48.006 24.918 48.006C24.8167 48.006 24.7127 48.0247 24.606 48.062C24.4993 48.094 24.4007 48.15 24.31 48.23C24.2247 48.3047 24.1553 48.414 24.102 48.558L23.11 48.262C23.1847 48.0007 23.3127 47.782 23.494 47.606C23.6807 47.4247 23.902 47.2887 24.158 47.198C24.414 47.102 24.678 47.054 24.95 47.054C25.2967 47.054 25.6087 47.1207 25.886 47.254C26.1633 47.382 26.382 47.5607 26.542 47.79C26.702 48.0193 26.782 48.2833 26.782 48.582C26.782 48.838 26.7207 49.0593 26.598 49.246C26.4753 49.4327 26.3073 49.59 26.094 49.718C25.886 49.846 25.6487 49.942 25.382 50.006C25.1153 50.0647 24.838 50.094 24.55 50.094H24.254ZM29.7873 52.846C29.334 52.846 28.934 52.7233 28.5873 52.478C28.2406 52.2273 27.9686 51.886 27.7713 51.454C27.574 51.0167 27.4753 50.5153 27.4753 49.95C27.4753 49.3847 27.574 48.886 27.7713 48.454C27.9686 48.0167 28.238 47.6753 28.5793 47.43C28.926 47.1793 29.326 47.054 29.7793 47.054C30.2326 47.054 30.6326 47.1793 30.9793 47.43C31.3313 47.6753 31.606 48.0167 31.8033 48.454C32.0006 48.886 32.0993 49.3847 32.0993 49.95C32.0993 50.5153 32.0006 51.0167 31.8033 51.454C31.606 51.886 31.334 52.2273 30.9873 52.478C30.6406 52.7233 30.2406 52.846 29.7873 52.846ZM29.7873 51.854C30.0273 51.854 30.2406 51.774 30.4273 51.614C30.6193 51.4487 30.7686 51.2247 30.8753 50.942C30.982 50.654 31.0353 50.3233 31.0353 49.95C31.0353 49.5767 30.982 49.246 30.8753 48.958C30.7686 48.67 30.6193 48.446 30.4273 48.286C30.2406 48.1207 30.0246 48.038 29.7793 48.038C29.5393 48.038 29.326 48.1207 29.1393 48.286C28.9526 48.446 28.806 48.67 28.6993 48.958C28.598 49.246 28.5473 49.5767 28.5473 49.95C28.5473 50.3233 28.598 50.654 28.6993 50.942C28.806 51.2247 28.9526 51.4487 29.1393 51.614C29.3313 51.774 29.5473 51.854 29.7873 51.854Z" fill="black"/>
<path d="M25.566 11.75V10.646H22.958V9.774L25.438 6.15H26.598V9.71H27.574V10.646H26.598V11.75H25.566ZM24.086 9.71H25.566V7.542L24.086 9.71ZM30.4045 11.846C29.9512 11.846 29.5512 11.7233 29.2045 11.478C28.8578 11.2273 28.5858 10.886 28.3885 10.454C28.1912 10.0167 28.0925 9.51533 28.0925 8.95C28.0925 8.38467 28.1912 7.886 28.3885 7.454C28.5858 7.01667 28.8552 6.67533 29.1965 6.43C29.5432 6.17933 29.9432 6.054 30.3965 6.054C30.8498 6.054 31.2498 6.17933 31.5965 6.43C31.9485 6.67533 32.2232 7.01667 32.4205 7.454C32.6178 7.886 32.7165 8.38467 32.7165 8.95C32.7165 9.51533 32.6178 10.0167 32.4205 10.454C32.2232 10.886 31.9512 11.2273 31.6045 11.478C31.2578 11.7233 30.8578 11.846 30.4045 11.846ZM30.4045 10.854C30.6445 10.854 30.8578 10.774 31.0445 10.614C31.2365 10.4487 31.3858 10.2247 31.4925 9.942C31.5992 9.654 31.6525 9.32333 31.6525 8.95C31.6525 8.57667 31.5992 8.246 31.4925 7.958C31.3858 7.67 31.2365 7.446 31.0445 7.286C30.8578 7.12067 30.6418 7.038 30.3965 7.038C30.1565 7.038 29.9432 7.12067 29.7565 7.286C29.5698 7.446 29.4232 7.67 29.3165 7.958C29.2152 8.246 29.1645 8.57667 29.1645 8.95C29.1645 9.32333 29.2152 9.654 29.3165 9.942C29.4232 10.2247 29.5698 10.4487 29.7565 10.614C29.9485 10.774 30.1645 10.854 30.4045 10.854Z" fill="black"/>
</svg>
