<svg width="310" height="304" viewBox="0 0 310 304" fill="none" xmlns="http://www.w3.org/2000/svg">
<g filter="url(#filter0_n_1881_7504)">
<path d="M131.5 204.499C93.6414 185.358 25.384 189.015 5.85299 190.533C2.78892 190.771 0.5 193.335 0.5 196.408V297.499C0.5 300.813 3.18629 303.499 6.5 303.499H190.432C191.01 303.499 191.468 303.03 191.421 302.454C190.971 296.942 188.458 270.862 180 253.5C171.547 236.149 150.708 214.211 131.5 204.499Z" fill="#B39985"/>
<path d="M131.5 204.499C93.6414 185.358 25.384 189.015 5.85299 190.533C2.78892 190.771 0.5 193.335 0.5 196.408V297.499C0.5 300.813 3.18629 303.499 6.5 303.499H190.432C191.01 303.499 191.468 303.03 191.421 302.454C190.971 296.942 188.458 270.862 180 253.5C171.547 236.149 150.708 214.211 131.5 204.499Z" stroke="black" stroke-linejoin="round"/>
</g>
<path d="M300.5 86.0002H286V89.0002H300.5V86.0002Z" fill="#E5E5E5" stroke="black" stroke-linejoin="round"/>
<path d="M300.5 95.5002H286V98.5002H300.5V95.5002Z" fill="#E5E5E5" stroke="black" stroke-linejoin="round"/>
<path d="M287 81.0002H274L286 86.0002H300.5L287 81.0002Z" fill="#E5E5E5" stroke="black" stroke-linejoin="round"/>
<mask id="path-5-inside-1_1881_7504" fill="white">
<path fill-rule="evenodd" clip-rule="evenodd" d="M273.725 80.5833C273.865 80.4908 274.043 80.4742 274.197 80.5403L277.697 82.0403C277.7 82.0414 277.702 82.0432 277.704 82.0442L286.19 85.5384C286.378 85.6156 286.5 85.7978 286.5 86.0003V89.0003C286.5 89.167 286.417 89.3225 286.278 89.4153C286.14 89.5082 285.964 89.5257 285.81 89.4622L278 86.2464V88.3167L283.264 94.5374L286.082 95.0071C286.323 95.0473 286.5 95.2559 286.5 95.5003V98.5003C286.5 98.6425 286.439 98.7785 286.333 98.8733C286.227 98.9679 286.085 99.0131 285.944 98.9974L283.694 98.7474L280.955 98.4983C280.813 98.4854 280.682 98.4121 280.598 98.2972L273.598 88.7972C273.595 88.7941 273.594 88.7905 273.592 88.7874C273.585 88.7779 273.579 88.768 273.573 88.7581C273.564 88.7434 273.556 88.7286 273.549 88.7132C273.545 88.7041 273.54 88.6952 273.536 88.6858C273.526 88.6594 273.517 88.6324 273.511 88.6048C273.51 88.6035 273.51 88.6022 273.51 88.6009L273.502 88.5423C273.501 88.5335 273.501 88.5247 273.501 88.5159C273.501 88.5107 273.5 88.5055 273.5 88.5003V81.0003C273.5 80.8324 273.585 80.6758 273.725 80.5833Z"/>
</mask>
<path fill-rule="evenodd" clip-rule="evenodd" d="M273.725 80.5833C273.865 80.4908 274.043 80.4742 274.197 80.5403L277.697 82.0403C277.7 82.0414 277.702 82.0432 277.704 82.0442L286.19 85.5384C286.378 85.6156 286.5 85.7978 286.5 86.0003V89.0003C286.5 89.167 286.417 89.3225 286.278 89.4153C286.14 89.5082 285.964 89.5257 285.81 89.4622L278 86.2464V88.3167L283.264 94.5374L286.082 95.0071C286.323 95.0473 286.5 95.2559 286.5 95.5003V98.5003C286.5 98.6425 286.439 98.7785 286.333 98.8733C286.227 98.9679 286.085 99.0131 285.944 98.9974L283.694 98.7474L280.955 98.4983C280.813 98.4854 280.682 98.4121 280.598 98.2972L273.598 88.7972C273.595 88.7941 273.594 88.7905 273.592 88.7874C273.585 88.7779 273.579 88.768 273.573 88.7581C273.564 88.7434 273.556 88.7286 273.549 88.7132C273.545 88.7041 273.54 88.6952 273.536 88.6858C273.526 88.6594 273.517 88.6324 273.511 88.6048C273.51 88.6035 273.51 88.6022 273.51 88.6009L273.502 88.5423C273.501 88.5335 273.501 88.5247 273.501 88.5159C273.501 88.5107 273.5 88.5055 273.5 88.5003V81.0003C273.5 80.8324 273.585 80.6758 273.725 80.5833Z" fill="#BCBCBC"/>
<path d="M273.725 80.5833L273.174 79.7484L273.174 79.7489L273.725 80.5833ZM274.197 80.5403L274.591 79.6212L274.591 79.6211L274.197 80.5403ZM277.697 82.0403L278.091 81.1213L278.091 81.1212L277.697 82.0403ZM277.704 82.0442L277.294 82.9561C277.303 82.9605 277.313 82.9648 277.323 82.9689L277.704 82.0442ZM286.19 85.5384L286.572 84.6139L286.571 84.6137L286.19 85.5384ZM286.5 86.0003H287.5V85.9999L286.5 86.0003ZM286.278 89.4153L286.835 90.2462L286.835 90.2458L286.278 89.4153ZM285.81 89.4622L285.429 90.3869L285.429 90.3869L285.81 89.4622ZM278 86.2464L278.381 85.3217C278.072 85.1947 277.721 85.2299 277.444 85.4155C277.166 85.6011 277 85.9128 277 86.2464H278ZM278 88.3167H277C277 88.5532 277.084 88.7821 277.237 88.9626L278 88.3167ZM283.264 94.5374L282.5 95.1833C282.653 95.3642 282.866 95.4849 283.099 95.5238L283.264 94.5374ZM286.082 95.0071L285.918 95.9935H285.918L286.082 95.0071ZM286.333 98.8733L286.999 99.6194L287 99.6185L286.333 98.8733ZM285.944 98.9974L286.055 98.0035H286.055L285.944 98.9974ZM283.694 98.7474L283.805 97.7535C283.798 97.7527 283.792 97.7521 283.785 97.7515L283.694 98.7474ZM280.955 98.4983L281.046 97.5025H281.046L280.955 98.4983ZM280.598 98.2972L279.793 98.8904L279.793 98.8909L280.598 98.2972ZM273.598 88.7972L274.403 88.204L274.403 88.204L273.598 88.7972ZM273.592 88.7874L274.41 88.2126L274.409 88.2115L273.592 88.7874ZM273.573 88.7581L272.717 89.2748L272.718 89.2759L273.573 88.7581ZM273.549 88.7132L274.453 88.2869L274.453 88.2859L273.549 88.7132ZM273.536 88.6858L272.607 89.0568L272.608 89.0574L273.536 88.6858ZM273.511 88.6048L272.533 88.8125L272.533 88.8135L273.511 88.6048ZM273.51 88.6009L272.519 88.733C272.522 88.7557 272.525 88.7783 272.53 88.8007L273.51 88.6009ZM273.502 88.5423L272.506 88.6266C272.507 88.6426 272.509 88.6585 272.511 88.6745L273.502 88.5423ZM273.501 88.5159L272.501 88.5465L272.501 88.5477L273.501 88.5159ZM273.5 81.0003L272.5 80.9999V81.0003H273.5ZM273.725 80.5833L274.275 81.4183C274.138 81.5087 273.961 81.5271 273.803 81.4595L274.197 80.5403L274.591 79.6211C274.124 79.4212 273.592 79.473 273.174 79.7484L273.725 80.5833ZM274.197 80.5403L273.803 81.4595L277.303 82.9595L277.697 82.0403L278.091 81.1212L274.591 79.6212L274.197 80.5403ZM277.697 82.0403L277.303 82.9594C277.279 82.9488 277.257 82.9385 277.239 82.9294C277.222 82.9202 277.207 82.9119 277.195 82.9052C277.184 82.8986 277.175 82.8931 277.17 82.8896C277.167 82.8878 277.164 82.8863 277.163 82.8854C277.162 82.8845 277.16 82.8838 277.16 82.8838C277.16 82.8835 277.161 82.8842 277.162 82.8847C277.163 82.8854 277.165 82.8867 277.168 82.8883C277.172 82.8913 277.181 82.8965 277.191 82.9028C277.202 82.9091 277.216 82.9172 277.233 82.9262C277.249 82.9352 277.27 82.9455 277.294 82.9561L277.704 82.0442L278.115 81.1324C278.138 81.1428 278.158 81.1528 278.174 81.1615C278.19 81.1701 278.204 81.1779 278.214 81.1839C278.224 81.1898 278.231 81.1947 278.236 81.1973C278.238 81.1987 278.239 81.1998 278.24 81.2003C278.241 81.2007 278.242 81.2013 278.241 81.2008C278.241 81.2006 278.236 81.1975 278.23 81.1939C278.224 81.1901 278.214 81.1842 278.203 81.1772C278.191 81.1703 278.175 81.1616 278.157 81.1522C278.139 81.1427 278.117 81.1321 278.091 81.1213L277.697 82.0403ZM277.704 82.0442L277.323 82.9689L285.81 86.4631L286.19 85.5384L286.571 84.6137L278.085 81.1196L277.704 82.0442ZM286.19 85.5384L285.809 86.4629C285.623 86.3861 285.5 86.204 285.5 86.0007L286.5 86.0003L287.5 85.9999C287.5 85.3917 287.132 84.845 286.572 84.6139L286.19 85.5384ZM286.5 86.0003H285.5V89.0003H286.5H287.5V86.0003H286.5ZM286.5 89.0003H285.5C285.5 88.8322 285.584 88.677 285.721 88.5849L286.278 89.4153L286.835 90.2458C287.249 89.968 287.5 89.5017 287.5 89.0003H286.5ZM286.278 89.4153L285.722 88.5844C285.861 88.4915 286.036 88.4741 286.19 88.5375L285.81 89.4622L285.429 90.3869C285.891 90.5774 286.419 90.5248 286.835 90.2462L286.278 89.4153ZM285.81 89.4622L286.19 88.5375L278.381 85.3217L278 86.2464L277.619 87.1711L285.429 90.3869L285.81 89.4622ZM278 86.2464H277V88.3167H278H279V86.2464H278ZM278 88.3167L277.237 88.9626L282.5 95.1833L283.264 94.5374L284.027 93.8915L278.763 87.6708L278 88.3167ZM283.264 94.5374L283.099 95.5238L285.918 95.9935L286.082 95.0071L286.246 94.0207L283.428 93.551L283.264 94.5374ZM286.082 95.0071L285.918 95.9935C285.677 95.9534 285.5 95.7453 285.5 95.5003H286.5H287.5C287.5 94.7665 286.969 94.1412 286.246 94.0207L286.082 95.0071ZM286.5 95.5003H285.5V98.5003H286.5H287.5V95.5003H286.5ZM286.5 98.5003H285.5C285.5 98.3569 285.561 98.2223 285.666 98.1282L286.333 98.8733L287 99.6185C287.317 99.3347 287.5 98.9281 287.5 98.5003H286.5ZM286.333 98.8733L285.667 98.1273C285.773 98.0326 285.914 97.9878 286.055 98.0035L285.944 98.9974L285.834 99.9913C286.257 100.038 286.681 99.9032 286.999 99.6194L286.333 98.8733ZM285.944 98.9974L286.055 98.0035L283.805 97.7535L283.694 98.7474L283.584 99.7413L285.834 99.9913L285.944 98.9974ZM283.694 98.7474L283.785 97.7515L281.046 97.5025L280.955 98.4983L280.865 99.4942L283.604 99.7433L283.694 98.7474ZM280.955 98.4983L281.046 97.5025C281.187 97.5153 281.317 97.5881 281.402 97.7034L280.598 98.2972L279.793 98.8909C280.048 99.2362 280.438 99.4555 280.865 99.4942L280.955 98.4983ZM280.598 98.2972L281.403 97.704L274.403 88.204L273.598 88.7972L272.793 89.3904L279.793 98.8904L280.598 98.2972ZM273.598 88.7972L274.403 88.204C274.415 88.221 274.426 88.2366 274.435 88.25C274.443 88.2634 274.451 88.2751 274.456 88.2843C274.461 88.2935 274.466 88.301 274.468 88.3057C274.47 88.3081 274.471 88.3101 274.471 88.3114C274.472 88.3126 274.473 88.3136 274.473 88.3137C274.473 88.3144 274.472 88.313 274.472 88.3126C274.472 88.3118 274.471 88.3101 274.47 88.3082C274.468 88.3043 274.464 88.2975 274.459 88.2891C274.454 88.2807 274.448 88.2697 274.44 88.257C274.432 88.2443 274.422 88.2292 274.41 88.2126L273.592 88.7874L272.774 89.3622C272.752 89.3311 272.736 89.3051 272.728 89.2905C272.723 89.283 272.72 89.277 272.718 89.2739C272.717 89.2716 272.715 89.2688 272.717 89.2709C272.717 89.2717 272.719 89.2761 272.722 89.2814C272.726 89.287 272.73 89.2953 272.736 89.3053C272.748 89.3248 272.767 89.3552 272.793 89.3904L273.598 88.7972ZM273.592 88.7874L274.409 88.2115C274.421 88.2274 274.428 88.2396 274.431 88.244C274.432 88.2463 274.433 88.2476 274.433 88.2468C274.432 88.2464 274.432 88.2459 274.431 88.2447C274.431 88.2438 274.43 88.242 274.429 88.2403L273.573 88.7581L272.718 89.2759C272.718 89.2767 272.719 89.2774 272.72 89.279C272.72 89.2803 272.722 89.2822 272.723 89.2843C272.725 89.2885 272.729 89.2947 272.734 89.3019C272.742 89.3161 272.756 89.3379 272.774 89.3633L273.592 88.7874ZM273.573 88.7581L274.429 88.2414C274.431 88.2447 274.441 88.2614 274.453 88.2869L273.549 88.7132L272.644 89.1395C272.671 89.1958 272.697 89.2421 272.717 89.2748L273.573 88.7581ZM273.549 88.7132L274.453 88.2859C274.449 88.2781 274.446 88.2713 274.445 88.2688C274.443 88.2649 274.444 88.2664 274.444 88.2678C274.445 88.2699 274.448 88.2753 274.451 88.2828C274.455 88.2904 274.459 88.3012 274.465 88.3143L273.536 88.6858L272.608 89.0574C272.622 89.0919 272.634 89.1191 272.64 89.1315C272.643 89.1374 272.646 89.1434 272.646 89.144C272.647 89.146 272.646 89.1438 272.645 89.1404L273.549 88.7132ZM273.536 88.6858L274.465 88.3149C274.469 88.3244 274.48 88.3532 274.489 88.3961L273.511 88.6048L272.533 88.8135C272.554 88.9116 272.583 88.9944 272.607 89.0568L273.536 88.6858ZM273.511 88.6048L274.489 88.397C274.485 88.3783 274.481 88.3633 274.479 88.3545C274.478 88.35 274.477 88.3463 274.476 88.3442C274.476 88.3424 274.475 88.3405 274.475 88.3411C274.475 88.3412 274.476 88.3416 274.476 88.3423C274.476 88.3429 274.476 88.3439 274.476 88.3452C274.477 88.3477 274.478 88.3516 274.479 88.3565C274.482 88.366 274.486 88.3816 274.49 88.401L273.51 88.6009L272.53 88.8007C272.534 88.8208 272.538 88.837 272.541 88.8472C272.542 88.8524 272.543 88.8567 272.544 88.8595C272.544 88.8621 272.545 88.8643 272.545 88.8646C272.545 88.8655 272.545 88.8639 272.545 88.8624C272.544 88.8606 272.543 88.8573 272.542 88.8531C272.54 88.8449 272.536 88.8306 272.533 88.8125L273.511 88.6048ZM273.51 88.6009L274.501 88.4687L274.493 88.4101L273.502 88.5423L272.511 88.6745L272.519 88.733L273.51 88.6009ZM273.502 88.5423L274.498 88.458C274.499 88.4705 274.5 88.4809 274.5 88.4882C274.501 88.4954 274.501 88.5007 274.501 88.5026C274.501 88.5038 274.501 88.5054 274.501 88.5013C274.501 88.4987 274.501 88.492 274.5 88.4841L273.501 88.5159L272.501 88.5477C272.501 88.5442 272.501 88.5419 272.501 88.5438C272.501 88.5441 272.501 88.55 272.502 88.5556C272.502 88.5673 272.503 88.5939 272.506 88.6266L273.502 88.5423ZM273.501 88.5159L274.501 88.4853C274.5 88.4635 274.499 88.4459 274.498 88.4361C274.497 88.4311 274.497 88.427 274.497 88.4249C274.497 88.4238 274.497 88.4229 274.497 88.4226C274.497 88.422 274.497 88.4222 274.497 88.4224C274.497 88.4229 274.497 88.4253 274.497 88.4287C274.498 88.4321 274.498 88.4373 274.498 88.4436C274.499 88.4561 274.5 88.4759 274.5 88.5003H273.5H272.5C272.5 88.5273 272.501 88.5497 272.502 88.5648C272.503 88.5793 272.504 88.591 272.504 88.5938C272.504 88.5947 272.504 88.5955 272.504 88.5956C272.504 88.5959 272.504 88.5957 272.504 88.5953C272.504 88.5945 272.504 88.5917 272.504 88.5879C272.503 88.5807 272.502 88.5658 272.501 88.5465L273.501 88.5159ZM273.5 88.5003H274.5V81.0003H273.5H272.5V88.5003H273.5ZM273.5 81.0003L274.5 81.0007C274.5 81.1693 274.415 81.3256 274.276 81.4178L273.725 80.5833L273.174 79.7489C272.754 80.026 272.5 80.4956 272.5 80.9999L273.5 81.0003Z" fill="black" mask="url(#path-5-inside-1_1881_7504)"/>
<path d="M286.5 95.5002V89.0002H300V95.5002H286.5Z" fill="#E5E5E5" stroke="black" stroke-linejoin="round"/>
<path d="M277.5 85.5002L286.5 89.0002V95.5002L283 95.0002L277.5 88.5002V85.5002Z" fill="#BCBCBC" stroke="black" stroke-linejoin="round"/>
<path d="M81.5 254.5H53.5V243.5L57.5 240.5H84.5V251.5L81.5 254.5Z" fill="#4D4D4D"/>
<path d="M53.5 243.5H81.5M53.5 243.5V254.5H81.5M53.5 243.5L57.5 240.5H84.5M81.5 243.5V254.5M81.5 243.5L84.5 240.5M81.5 254.5L84.5 251.5V240.5" stroke="black" stroke-linejoin="round"/>
<path d="M47.5 155V85.5002L50.5 96.5002V166.5L47.5 155Z" fill="#0276D4" stroke="black" stroke-linejoin="round"/>
<path d="M58 91.5002L62 102.5H47L44.5 91.5002H58Z" fill="#ECE8EB" stroke="black" stroke-linejoin="round"/>
<path d="M193.5 78.0002L189.5 80.0002L191 83.5002L195.5 81.0002L193.5 78.0002Z" fill="#0276D4" stroke="black" stroke-linecap="round" stroke-linejoin="round"/>
<path d="M81.1364 123.5L77 125.5L78.5 129L83 127L81.1364 123.5Z" fill="#0276D4" stroke="black" stroke-linecap="round" stroke-linejoin="round"/>
<path d="M74.5 14.5002H64.5V234.5H74.5V14.5002Z" fill="#42AAFF" stroke="black"/>
<path d="M302 75.5002V69.5002H74.5001V75.5002H302Z" fill="#42AAFF" stroke="black" stroke-linejoin="round"/>
<path d="M108.5 31.2153L30.5 11.8161L48.6865 0.5L103.65 14.241L108.5 31.2153Z" fill="#0276D4" stroke="black" stroke-linejoin="round"/>
<path d="M30.5 15.4533V11.8159L108.5 31.215V34.8524L30.5 15.4533Z" fill="#848486" stroke="black" stroke-linejoin="round"/>
<path d="M74.5 40.0002C70.6269 40.6928 68.4374 40.6922 64.5 40.0002L64 39.5002H58.5V45.5002H64L64.5 45.0002C68.4305 45.6145 70.6017 45.7438 74.5 45.0002L75 45.5002H80.5V39.5002H75L74.5 40.0002Z" fill="#0276D4" stroke="black" stroke-linejoin="round"/>
<path d="M61.4447 41.6108L61.0447 42.4108C61.0166 42.4671 61.0166 42.5334 61.0447 42.5897L61.4447 43.3897C61.4786 43.4574 61.5479 43.5002 61.6236 43.5002H62.3764C62.4521 43.5002 62.5214 43.4574 62.5553 43.3897L62.9553 42.5897C62.9834 42.5334 62.9834 42.4671 62.9553 42.4108L62.5553 41.6108C62.5214 41.543 62.4521 41.5002 62.3764 41.5002H61.6236C61.5479 41.5002 61.4786 41.543 61.4447 41.6108Z" fill="#9A9A9A"/>
<path d="M76.9447 41.6108L76.5447 42.4108C76.5166 42.4671 76.5166 42.5334 76.5447 42.5897L76.9447 43.3897C76.9786 43.4574 77.0479 43.5002 77.1236 43.5002H77.8764C77.9521 43.5002 78.0214 43.4574 78.0553 43.3897L78.4553 42.5897C78.4834 42.5334 78.4834 42.4671 78.4553 42.4108L78.0553 41.6108C78.0214 41.543 77.9521 41.5002 77.8764 41.5002H77.1236C77.0479 41.5002 76.9786 41.543 76.9447 41.6108Z" fill="#9A9A9A"/>
<path d="M74.5 51.0002C70.6269 51.6928 68.4374 51.6922 64.5 51.0002L64 50.5002V56.5002L64.5 56.0002C68.4305 56.6145 70.6017 56.7438 74.5 56.0002L75 56.5002V50.5002L74.5 51.0002Z" fill="#0276D4" stroke="black" stroke-linejoin="round"/>
<path d="M68.5 54.0002L56 58.5002L49 67.0002" stroke="#0276D4" stroke-width="1.5" stroke-linecap="round" stroke-linejoin="round"/>
<path d="M68.5 54.0002L53 56.5002L43 64.5002" stroke="#0276D4" stroke-width="1.5" stroke-linecap="round" stroke-linejoin="round"/>
<path d="M68.5 54.0002H51L38 62.0002" stroke="#0276D4" stroke-width="1.5" stroke-linecap="round" stroke-linejoin="round"/>
<path d="M72 54.0002L84.5 58.5002L91.5 67.0002" stroke="#0276D4" stroke-width="1.5" stroke-linecap="round" stroke-linejoin="round"/>
<path d="M72 54.0002L87.5 56.5002L97.5 64.5002" stroke="#0276D4" stroke-width="1.5" stroke-linecap="round" stroke-linejoin="round"/>
<path d="M72 54.0002H89.5L102.5 62.0002" stroke="#0276D4" stroke-width="1.5" stroke-linecap="round" stroke-linejoin="round"/>
<path d="M70 66.5002C71.7568 66.756 72.744 66.7334 74.5 66.5002V78.5002C72.7058 78.7217 71.7143 78.762 70 78.5002V66.5002Z" fill="#0276D4" stroke="black" stroke-linecap="round" stroke-linejoin="round"/>
<path d="M70 121.5C71.7568 121.756 72.744 121.733 74.5 121.5V133.5C72.7058 133.722 71.7143 133.762 70 133.5V121.5Z" fill="#0276D4" stroke="black" stroke-linecap="round" stroke-linejoin="round"/>
<path d="M77.5 125.1C78.8255 125.1 79.9004 126.175 79.9004 127.5C79.9004 128.826 78.8255 129.901 77.5 129.901H75C74.7791 129.901 74.5996 129.721 74.5996 129.5V125.5C74.5996 125.279 74.7791 125.1 75 125.1H77.5Z" fill="#0276D4" stroke="black" stroke-width="0.8" stroke-linejoin="round"/>
<path d="M197.9 78.5002C197.9 79.8257 196.825 80.9006 195.5 80.9006C194.175 80.9006 193.1 79.8257 193.1 78.5002V76.0002C193.1 75.7793 193.279 75.5999 193.5 75.5999H197.5C197.721 75.5999 197.9 75.7793 197.9 76.0002V78.5002Z" fill="#0276D4" stroke="black" stroke-width="0.8" stroke-linejoin="round"/>
<path d="M192.419 83.5247L190.548 78.8879L80.5001 123.295L82.3711 127.931L192.419 83.5247Z" fill="#42AAFF" stroke="black" stroke-linejoin="round"/>
<path d="M62.5 158V103C62.5 102.724 62.2761 102.5 62 102.5H48C47.7239 102.5 47.5 102.724 47.5 103V158C47.5 158.276 47.7239 158.5 48 158.5H62C62.2761 158.5 62.5 158.276 62.5 158Z" fill="#ECE8EB" stroke="black" stroke-linejoin="round"/>
<path d="M45 102.5H47C47.2761 102.5 47.5 102.724 47.5 103V158C47.5 158.276 47.2761 158.5 47 158.5H45C44.7239 158.5 44.5 158.276 44.5 158V103C44.5 102.724 44.7239 102.5 45 102.5Z" fill="#ECE8EB" stroke="black" stroke-linejoin="round"/>
<path d="M36 8.50024L107 27.0002M41 5.50024L105.5 22.0002M45.5 3.00024L104.5 17.5002M38 13.5002L54.5 2.00024M45 15.5002L59 3.00024M52 17.5002L64 4.50024M59 19.0002L68.5 5.50024M65 20.5002L73 6.50024M71.5 22.5002L76.5 8.00024M77 23.5002L80.5 8.50024M82 25.0002L84.5 9.50024M87.5 26.0002L89 11.0002M93 27.5002V11.5002M98.5 28.5002L98 13.0002" stroke="black" stroke-linejoin="round"/>
<path d="M47.5 102.5H44.5L42.5 91.5002H45L47.5 102.5Z" fill="#ECE8EB" stroke="black" stroke-linejoin="round"/>
<path d="M42.5 150.5V91.5002L44.5 102.5V158.5L42.5 150.5Z" fill="#ECE8EB" stroke="black" stroke-linejoin="round"/>
<path d="M64 96.5002C64.2761 96.5002 64.5 96.7241 64.5 97.0002V166C64.5 166.276 64.2761 166.5 64 166.5H51C50.7239 166.5 50.5 166.276 50.5 166V97.0002C50.5 96.7241 50.7239 96.5002 51 96.5002H64ZM53 98.5002C52.7239 98.5002 52.5 98.7241 52.5 99.0002V164C52.5 164.276 52.7239 164.5 53 164.5H62C62.2761 164.5 62.5 164.276 62.5 164V99.0002C62.5 98.7241 62.2761 98.5002 62 98.5002H53Z" fill="#0276D4"/>
<path d="M64 96.5002V97.0002H64.5H65C65 96.448 64.5523 96.0002 64 96.0002V96.5002ZM64.5 97.0002H64V166H64.5H65V97.0002H64.5ZM64.5 166H64V166.5V167C64.5523 167 65 166.553 65 166H64.5ZM64 166.5V166H51V166.5V167H64V166.5ZM51 166.5V166H50.5H50C50 166.553 50.4477 167 51 167V166.5ZM50.5 166H51V97.0002H50.5H50V166H50.5ZM50.5 97.0002H51V96.5002V96.0002C50.4477 96.0002 50 96.448 50 97.0002H50.5ZM51 96.5002V97.0002H64V96.5002V96.0002H51V96.5002ZM53 98.5002V98.0002C52.4477 98.0002 52 98.448 52 99.0002H52.5H53V98.5002ZM52.5 99.0002H52V164H52.5H53V99.0002H52.5ZM52.5 164H52C52 164.553 52.4477 165 53 165V164.5V164H52.5ZM53 164.5V165H62V164.5V164H53V164.5ZM62 164.5V165C62.5523 165 63 164.553 63 164H62.5H62V164.5ZM62.5 164H63V99.0002H62.5H62V164H62.5ZM62.5 99.0002H63C63 98.448 62.5523 98.0002 62 98.0002V98.5002V99.0002H62.5ZM62 98.5002V98.0002H53V98.5002V99.0002H62V98.5002Z" fill="black"/>
<path d="M64.5 96.5002H50.5L47.5 85.5002H60L64.5 96.5002ZM52 95.0002H62L59 87.0002H49.5L52 95.0002Z" fill="#0276D4"/>
<path d="M64.5 96.5002V97.0002C64.6666 97.0002 64.8223 96.9173 64.9151 96.7789C65.008 96.6406 65.0259 96.4651 64.9628 96.3109L64.5 96.5002ZM50.5 96.5002L50.0176 96.6318C50.0769 96.8493 50.2745 97.0002 50.5 97.0002V96.5002ZM47.5 85.5002V85.0002C47.3442 85.0002 47.1972 85.0729 47.1026 85.1967C47.0081 85.3206 46.9766 85.4815 47.0176 85.6318L47.5 85.5002ZM60 85.5002L60.4628 85.3109C60.3859 85.123 60.203 85.0002 60 85.0002V85.5002ZM52 95.0002L51.5228 95.1494C51.588 95.3581 51.7813 95.5002 52 95.5002V95.0002ZM62 95.0002V95.5002C62.164 95.5002 62.3176 95.4198 62.411 95.285C62.5044 95.1503 62.5257 94.9782 62.4682 94.8247L62 95.0002ZM59 87.0002L59.4682 86.8247C59.395 86.6295 59.2084 86.5002 59 86.5002V87.0002ZM49.5 87.0002V86.5002C49.3409 86.5002 49.1914 86.5759 49.0972 86.7041C49.0029 86.8322 48.9753 86.9976 49.0228 87.1494L49.5 87.0002ZM64.5 96.5002V96.0002H50.5V96.5002V97.0002H64.5V96.5002ZM50.5 96.5002L50.9824 96.3687L47.9824 85.3687L47.5 85.5002L47.0176 85.6318L50.0176 96.6318L50.5 96.5002ZM47.5 85.5002V86.0002H60V85.5002V85.0002H47.5V85.5002ZM60 85.5002L59.5372 85.6896L64.0372 96.6896L64.5 96.5002L64.9628 96.3109L60.4628 85.3109L60 85.5002ZM52 95.0002V95.5002H62V95.0002V94.5002H52V95.0002ZM62 95.0002L62.4682 94.8247L59.4682 86.8247L59 87.0002L58.5318 87.1758L61.5318 95.1758L62 95.0002ZM59 87.0002V86.5002H49.5V87.0002V87.5002H59V87.0002ZM49.5 87.0002L49.0228 87.1494L51.5228 95.1494L52 95.0002L52.4772 94.8511L49.9772 86.8511L49.5 87.0002Z" fill="black"/>
<path d="M74 234H65C61.3636 236.022 60.2464 237.922 58.5 241.5C67.015 242.62 71.8411 242.539 80.5 241.5C78.6188 237.459 77.2578 235.724 74 234Z" fill="#0276D4" stroke="black" stroke-linejoin="round"/>
<path d="M302 75.5002V69.5002C302 68.3957 302.895 67.5002 304 67.5002H307.5C308.605 67.5002 309.5 68.3957 309.5 69.5002V75.5002C309.5 76.6048 308.605 77.5002 307.5 77.5002H304C302.895 77.5002 302 76.6048 302 75.5002Z" fill="#0276D4" stroke="black" stroke-linejoin="round"/>
<path d="M281.5 72.5002V76.0002H292.5V72.5002H281.5Z" fill="#404040" stroke="black" stroke-linejoin="round"/>
<path d="M285 76.0002H289.5V78.2502C289.5 79.4929 288.493 80.5002 287.25 80.5002C286.007 80.5002 285 79.4929 285 78.2502V76.0002Z" fill="#404040" stroke="black"/>
<path d="M285 83.5002H289.5V81.2502C289.5 80.0076 288.493 79.0002 287.25 79.0002C286.007 79.0002 285 80.0076 285 81.2502V83.5002Z" fill="#404040" stroke="black" stroke-linejoin="round"/>
<circle cx="288" cy="91.0002" r="0.5" fill="#404040"/>
<circle cx="288" cy="94.0002" r="0.5" fill="#404040"/>
<path d="M299 94.0002C299 94.2764 298.776 94.5002 298.5 94.5002C298.224 94.5002 298 94.2764 298 94.0002C298 93.7241 298.224 93.5002 298.5 93.5002C298.776 93.5002 299 93.7241 299 94.0002Z" fill="#404040"/>
<path d="M299 91.0002C299 91.2764 298.776 91.5002 298.5 91.5002C298.224 91.5002 298 91.2764 298 91.0002C298 90.7241 298.224 90.5002 298.5 90.5002C298.776 90.5002 299 90.7241 299 91.0002Z" fill="#404040"/>
<circle cx="293.5" cy="92.5002" r="2" fill="#1D1D1D"/>
<path d="M68.5 118V66.5002C68.5 65.948 68.9477 65.5002 69.5 65.5002H296.856C297.408 65.5002 297.856 65.948 297.856 66.5002V92.5002C297.856 93.0525 297.408 93.5002 296.856 93.5002H294C293.724 93.5002 293.5 93.2764 293.5 93.0002V91.5002C293.5 91.2241 293.724 91.0002 294 91.0002H294.5C295.052 91.0002 295.5 90.5525 295.5 90.0002V69.0002C295.5 68.448 295.052 68.0002 294.5 68.0002H72.5C71.9477 68.0002 71.5 68.448 71.5 69.0002V121.114C71.5 121.666 71.0523 122.114 70.5 122.114H64.5L64.5 119H67.5C68.0523 119 68.5 118.553 68.5 118Z" fill="black"/>
<defs>
<filter id="filter0_n_1881_7504" x="0" y="188.722" width="191.924" height="115.278" filterUnits="userSpaceOnUse" color-interpolation-filters="sRGB">
<feFlood flood-opacity="0" result="BackgroundImageFix"/>
<feBlend mode="normal" in="SourceGraphic" in2="BackgroundImageFix" result="shape"/>
<feTurbulence type="fractalNoise" baseFrequency="2 2" stitchTiles="stitch" numOctaves="3" result="noise" seed="1257" />
<feColorMatrix in="noise" type="luminanceToAlpha" result="alphaNoise" />
<feComponentTransfer in="alphaNoise" result="coloredNoise1">
<feFuncA type="discrete" tableValues="1 1 1 1 1 1 1 1 1 1 1 1 1 1 1 1 1 1 1 1 1 1 1 1 1 1 1 1 1 1 1 1 1 1 1 1 1 1 1 1 1 1 1 1 1 1 1 1 1 1 1 0 0 0 0 0 0 0 0 0 0 0 0 0 0 0 0 0 0 0 0 0 0 0 0 0 0 0 0 0 0 0 0 0 0 0 0 0 0 0 0 0 0 0 0 0 0 0 0 0 "/>
</feComponentTransfer>
<feComposite operator="in" in2="shape" in="coloredNoise1" result="noise1Clipped" />
<feFlood flood-color="rgba(0, 0, 0, 0.25)" result="color1Flood" />
<feComposite operator="in" in2="noise1Clipped" in="color1Flood" result="color1" />
<feMerge result="effect1_noise_1881_7504">
<feMergeNode in="shape" />
<feMergeNode in="color1" />
</feMerge>
</filter>
</defs>
</svg>
