<svg width="276" height="255" viewBox="0 0 276 255" fill="none" xmlns="http://www.w3.org/2000/svg">
<path d="M78.5 31.2153L0.5 11.8161L18.6865 0.5L73.6503 14.241L78.5 31.2153Z" fill="#0276D4" stroke="black" stroke-linejoin="round"/>
<path d="M51.5 254.5H23.5V243.5L27.5 240.5H54.5V251.5L51.5 254.5Z" fill="#4D4D4D"/>
<path d="M23.5 243.5H51.5M23.5 243.5V254.5H51.5M23.5 243.5L27.5 240.5H54.5M51.5 243.5V254.5M51.5 243.5L54.5 240.5M51.5 254.5L54.5 251.5V240.5" stroke="black" stroke-linejoin="round"/>
<path d="M17.5 155V85.5L20.5 96.5V166.5L17.5 155Z" fill="#0276D4" stroke="black" stroke-linejoin="round"/>
<path d="M28 91.5L32 102.5H17L14.5 91.5H28Z" fill="#ECE8EB" stroke="black" stroke-linejoin="round"/>
<path d="M264 83.8752V67.1231C266.93 67.1229 268.204 67.1233 271 67.1233V83.8752C268.5 84.375 266.5 84.375 264 83.8752Z" fill="#C0C0C0" stroke="black" stroke-linecap="round" stroke-linejoin="round"/>
<path d="M163.5 78L159.5 80L161 83.5L165.5 81L163.5 78Z" fill="#0276D4" stroke="black" stroke-linecap="round" stroke-linejoin="round"/>
<path d="M51.1364 123.5L47 125.5L48.5 129L53 127L51.1364 123.5Z" fill="#0276D4" stroke="black" stroke-linecap="round" stroke-linejoin="round"/>
<path d="M44.5 14.5H34.5V234.5H44.5V14.5Z" fill="#42AAFF" stroke="black"/>
<path d="M263.5 75.5V69.5H44.5V75.5H263.5Z" fill="#42AAFF" stroke="black" stroke-linejoin="round"/>
<path d="M0.5 15.4528V11.8154L78.5 31.2145V34.8519L0.5 15.4528Z" fill="#848486" stroke="black" stroke-linejoin="round"/>
<path d="M44.5 40C40.6269 40.6925 38.4374 40.692 34.5 40L34 39.5H28.5V45.5H34L34.5 45C38.4305 45.6143 40.6017 45.7436 44.5 45L45 45.5H50.5V39.5H45L44.5 40Z" fill="#0276D4" stroke="black" stroke-linejoin="round"/>
<path d="M31.4447 41.6106L31.0447 42.4106C31.0166 42.4669 31.0166 42.5331 31.0447 42.5894L31.4447 43.3894C31.4786 43.4572 31.5479 43.5 31.6236 43.5H32.3764C32.4521 43.5 32.5214 43.4572 32.5553 43.3894L32.9553 42.5894C32.9834 42.5331 32.9834 42.4669 32.9553 42.4106L32.5553 41.6106C32.5214 41.5428 32.4521 41.5 32.3764 41.5H31.6236C31.5479 41.5 31.4786 41.5428 31.4447 41.6106Z" fill="#9A9A9A"/>
<path d="M46.9447 41.6106L46.5447 42.4106C46.5166 42.4669 46.5166 42.5331 46.5447 42.5894L46.9447 43.3894C46.9786 43.4572 47.0479 43.5 47.1236 43.5H47.8764C47.9521 43.5 48.0214 43.4572 48.0553 43.3894L48.4553 42.5894C48.4834 42.5331 48.4834 42.4669 48.4553 42.4106L48.0553 41.6106C48.0214 41.5428 47.9521 41.5 47.8764 41.5H47.1236C47.0479 41.5 46.9786 41.5428 46.9447 41.6106Z" fill="#9A9A9A"/>
<path d="M44.5 51C40.6269 51.6925 38.4374 51.692 34.5 51L34 50.5V56.5L34.5 56C38.4305 56.6143 40.6017 56.7436 44.5 56L45 56.5V50.5L44.5 51Z" fill="#0276D4" stroke="black" stroke-linejoin="round"/>
<path d="M38.5 54L26 58.5L19 67" stroke="#0276D4" stroke-width="1.5" stroke-linecap="round" stroke-linejoin="round"/>
<path d="M38.5 54L23 56.5L13 64.5" stroke="#0276D4" stroke-width="1.5" stroke-linecap="round" stroke-linejoin="round"/>
<path d="M38.5 54H21L8 62" stroke="#0276D4" stroke-width="1.5" stroke-linecap="round" stroke-linejoin="round"/>
<path d="M42 54L54.5 58.5L61.5 67" stroke="#0276D4" stroke-width="1.5" stroke-linecap="round" stroke-linejoin="round"/>
<path d="M42 54L57.5 56.5L67.5 64.5" stroke="#0276D4" stroke-width="1.5" stroke-linecap="round" stroke-linejoin="round"/>
<path d="M42 54H59.5L72.5 62" stroke="#0276D4" stroke-width="1.5" stroke-linecap="round" stroke-linejoin="round"/>
<path d="M40 66.5C41.7568 66.7557 42.744 66.7331 44.5 66.5V78.5C42.7058 78.7215 41.7143 78.7617 40 78.5V66.5Z" fill="#0276D4" stroke="black" stroke-linecap="round" stroke-linejoin="round"/>
<path d="M40 121.5C41.7568 121.756 42.744 121.733 44.5 121.5V133.5C42.7058 133.721 41.7143 133.762 40 133.5V121.5Z" fill="#0276D4" stroke="black" stroke-linecap="round" stroke-linejoin="round"/>
<path d="M47.5 125.1C48.8255 125.1 49.9004 126.175 49.9004 127.5C49.9004 128.825 48.8255 129.9 47.5 129.9H45C44.7791 129.9 44.5996 129.721 44.5996 129.5V125.5C44.5996 125.279 44.7791 125.1 45 125.1H47.5Z" fill="#0276D4" stroke="black" stroke-width="0.8" stroke-linejoin="round"/>
<path d="M167.9 78.5C167.9 79.8255 166.825 80.9004 165.5 80.9004C164.175 80.9004 163.1 79.8255 163.1 78.5V76C163.1 75.7791 163.279 75.5996 163.5 75.5996H167.5C167.721 75.5996 167.9 75.7791 167.9 76V78.5Z" fill="#0276D4" stroke="black" stroke-width="0.8" stroke-linejoin="round"/>
<path d="M162.419 83.5244L160.548 78.8877L50.5001 123.294L52.3711 127.931L162.419 83.5244Z" fill="#42AAFF" stroke="black" stroke-linejoin="round"/>
<path d="M263.5 81.875V69.375H271.5V70.875H275V80.875H271.5V81.875H263.5Z" fill="#0276D4" stroke="black" stroke-linecap="round" stroke-linejoin="round"/>
<path d="M260 59C260 57.5 260 56.5 261.5 56.5H267.5C269 56.5 269 57.5 269 59V60.5H266.5V59.5C266.5 59.2239 266.276 59 266 59H263C262.724 59 262.5 59.2216 262.5 59.4977V66.5C262.5 67 262.5 68 261.5 68H260H42.5C41.9477 68 41.5 68.4477 41.5 69V121.114C41.5 121.666 41.0523 122.114 40.5 122.114H34.5L34.5 119H37.5C38.0523 119 38.5 118.552 38.5 118V66.5C38.5 65.9477 38.9477 65.5 39.5 65.5H259.5C259.776 65.5 260 65.2776 260 65.0014V59Z" fill="black"/>
<path d="M264 60.875V63.375C266.5 62.875 268.5 62.875 271 63.375V60.875C268.5 60.375 266.5 60.3746 264 60.875Z" fill="#C0C0C0" stroke="black" stroke-linecap="round" stroke-linejoin="round"/>
<path d="M263.5 66.875V63.375C266.62 62.8437 268.366 62.8832 271.5 63.375V66.875C268.5 67.375 266.5 67.375 263.5 66.875Z" fill="#A4A4A4" stroke="black" stroke-linecap="round" stroke-linejoin="round"/>
<path d="M32.5 158V103C32.5 102.724 32.2761 102.5 32 102.5H18C17.7239 102.5 17.5 102.724 17.5 103V158C17.5 158.276 17.7239 158.5 18 158.5H32C32.2761 158.5 32.5 158.276 32.5 158Z" fill="#ECE8EB" stroke="black" stroke-linejoin="round"/>
<path d="M15 102.5H17C17.2761 102.5 17.5 102.724 17.5 103V158C17.5 158.276 17.2761 158.5 17 158.5H15C14.7239 158.5 14.5 158.276 14.5 158V103C14.5 102.724 14.7239 102.5 15 102.5Z" fill="#ECE8EB" stroke="black" stroke-linejoin="round"/>
<path d="M6 8.5L77 27M11 5.5L75.5 22M15.5 3L74.5 17.5M8 13.5L24.5 2M15 15.5L29 3M22 17.5L34 4.5M29 19L38.5 5.5M35 20.5L43 6.5M41.5 22.5L46.5 8M47 23.5L50.5 8.5M52 25L54.5 9.5M57.5 26L59 11M63 27.5V11.5M68.5 28.5L68 13" stroke="black" stroke-linejoin="round"/>
<path d="M17.5 102.5H14.5L12.5 91.5H15L17.5 102.5Z" fill="#ECE8EB" stroke="black" stroke-linejoin="round"/>
<path d="M12.5 150.5V91.5L14.5 102.5V158.5L12.5 150.5Z" fill="#ECE8EB" stroke="black" stroke-linejoin="round"/>
<path d="M34 96.5C34.2761 96.5 34.5 96.7239 34.5 97V166C34.5 166.276 34.2761 166.5 34 166.5H21C20.7239 166.5 20.5 166.276 20.5 166V97C20.5 96.7239 20.7239 96.5 21 96.5H34ZM23 98.5C22.7239 98.5 22.5 98.7239 22.5 99V164C22.5 164.276 22.7239 164.5 23 164.5H32C32.2761 164.5 32.5 164.276 32.5 164V99C32.5 98.7239 32.2761 98.5 32 98.5H23Z" fill="#0276D4"/>
<path d="M34 96.5V97H34.5H35C35 96.4477 34.5523 96 34 96V96.5ZM34.5 97H34V166H34.5H35V97H34.5ZM34.5 166H34V166.5V167C34.5523 167 35 166.552 35 166H34.5ZM34 166.5V166H21V166.5V167H34V166.5ZM21 166.5V166H20.5H20C20 166.552 20.4477 167 21 167V166.5ZM20.5 166H21V97H20.5H20V166H20.5ZM20.5 97H21V96.5V96C20.4477 96 20 96.4477 20 97H20.5ZM21 96.5V97H34V96.5V96H21V96.5ZM23 98.5V98C22.4477 98 22 98.4477 22 99H22.5H23V98.5ZM22.5 99H22V164H22.5H23V99H22.5ZM22.5 164H22C22 164.552 22.4477 165 23 165V164.5V164H22.5ZM23 164.5V165H32V164.5V164H23V164.5ZM32 164.5V165C32.5523 165 33 164.552 33 164H32.5H32V164.5ZM32.5 164H33V99H32.5H32V164H32.5ZM32.5 99H33C33 98.4477 32.5523 98 32 98V98.5V99H32.5ZM32 98.5V98H23V98.5V99H32V98.5Z" fill="black"/>
<path d="M34.5 96.5H20.5L17.5 85.5H30L34.5 96.5ZM22 95H32L29 87H19.5L22 95Z" fill="#0276D4"/>
<path d="M34.5 96.5V97C34.6666 97 34.8223 96.917 34.9151 96.7787C35.008 96.6404 35.0259 96.4649 34.9628 96.3107L34.5 96.5ZM20.5 96.5L20.0176 96.6316C20.0769 96.8491 20.2745 97 20.5 97V96.5ZM17.5 85.5V85C17.3442 85 17.1972 85.0727 17.1026 85.1965C17.0081 85.3203 16.9766 85.4812 17.0176 85.6316L17.5 85.5ZM30 85.5L30.4628 85.3107C30.3859 85.1228 30.203 85 30 85V85.5ZM22 95L21.5228 95.1491C21.588 95.3579 21.7813 95.5 22 95.5V95ZM32 95V95.5C32.164 95.5 32.3176 95.4196 32.411 95.2848C32.5044 95.15 32.5257 94.978 32.4682 94.8244L32 95ZM29 87L29.4682 86.8244C29.395 86.6293 29.2084 86.5 29 86.5V87ZM19.5 87V86.5C19.3409 86.5 19.1914 86.5757 19.0972 86.7038C19.0029 86.832 18.9753 86.9973 19.0228 87.1491L19.5 87ZM34.5 96.5V96H20.5V96.5V97H34.5V96.5ZM20.5 96.5L20.9824 96.3684L17.9824 85.3684L17.5 85.5L17.0176 85.6316L20.0176 96.6316L20.5 96.5ZM17.5 85.5V86H30V85.5V85H17.5V85.5ZM30 85.5L29.5372 85.6893L34.0372 96.6893L34.5 96.5L34.9628 96.3107L30.4628 85.3107L30 85.5ZM22 95V95.5H32V95V94.5H22V95ZM32 95L32.4682 94.8244L29.4682 86.8244L29 87L28.5318 87.1756L31.5318 95.1756L32 95ZM29 87V86.5H19.5V87V87.5H29V87ZM19.5 87L19.0228 87.1491L21.5228 95.1491L22 95L22.4772 94.8509L19.9772 86.8509L19.5 87Z" fill="black"/>
<path d="M44 234H35C31.3636 236.022 30.2464 237.922 28.5 241.5C37.015 242.619 41.8411 242.539 50.5 241.5C48.6188 237.459 47.2578 235.724 44 234Z" fill="#0276D4" stroke="black" stroke-linejoin="round"/>
</svg>
