<svg width="306" height="304" viewBox="0 0 306 304" fill="none" xmlns="http://www.w3.org/2000/svg">
<g filter="url(#filter0_n_1859_24817)">
<path d="M131.5 204.499C93.6414 185.357 25.384 189.015 5.85299 190.533C2.78892 190.771 0.5 193.334 0.5 196.408V297.499C0.5 300.813 3.18629 303.499 6.5 303.499H190.432C191.01 303.499 191.468 303.03 191.421 302.454C190.971 296.942 188.458 270.861 180 253.5C171.547 236.149 150.708 214.211 131.5 204.499Z" fill="#B39985"/>
<path d="M131.5 204.499C93.6414 185.357 25.384 189.015 5.85299 190.533C2.78892 190.771 0.5 193.334 0.5 196.408V297.499C0.5 300.813 3.18629 303.499 6.5 303.499H190.432C191.01 303.499 191.468 303.03 191.421 302.454C190.971 296.942 188.458 270.861 180 253.5C171.547 236.149 150.708 214.211 131.5 204.499Z" stroke="black" stroke-linejoin="round"/>
</g>
<path d="M108.5 31.2153L30.5 11.8161L48.6865 0.500002L103.65 14.241L108.5 31.2153Z" fill="#0276D4" stroke="black" stroke-linejoin="round"/>
<path d="M81.5 254.5H53.5V243.5L57.5 240.5H84.5V251.5L81.5 254.5Z" fill="#4D4D4D"/>
<path d="M53.5 243.5H81.5M53.5 243.5V254.5H81.5M53.5 243.5L57.5 240.5H84.5M81.5 243.5V254.5M81.5 243.5L84.5 240.5M81.5 254.5L84.5 251.5V240.5" stroke="black" stroke-linejoin="round"/>
<path d="M47.5 155V85.5L50.5 96.5V166.5L47.5 155Z" fill="#0276D4" stroke="black" stroke-linejoin="round"/>
<path d="M58 91.5L62 102.5H47L44.5 91.5H58Z" fill="#ECE8EB" stroke="black" stroke-linejoin="round"/>
<path d="M294 83.8752V67.1231C296.93 67.1229 298.204 67.1233 301 67.1233V83.8752C298.5 84.375 296.5 84.375 294 83.8752Z" fill="#C0C0C0" stroke="black" stroke-linecap="round" stroke-linejoin="round"/>
<path d="M193.5 78L189.5 80L191 83.5L195.5 81L193.5 78Z" fill="#0276D4" stroke="black" stroke-linecap="round" stroke-linejoin="round"/>
<path d="M81.1364 123.5L77 125.5L78.5 129L83 127L81.1364 123.5Z" fill="#0276D4" stroke="black" stroke-linecap="round" stroke-linejoin="round"/>
<path d="M74.5 14.5H64.5V234.5H74.5V14.5Z" fill="#42AAFF" stroke="black"/>
<path d="M293.5 75.5V69.5H74.5V75.5H293.5Z" fill="#42AAFF" stroke="black" stroke-linejoin="round"/>
<path d="M30.5 15.4528V11.8154L108.5 31.2145V34.8519L30.5 15.4528Z" fill="#848486" stroke="black" stroke-linejoin="round"/>
<path d="M74.5 40C70.6269 40.6926 68.4374 40.692 64.5 40L64 39.5H58.5V45.5H64L64.5 45C68.4305 45.6143 70.6017 45.7436 74.5 45L75 45.5H80.5V39.5H75L74.5 40Z" fill="#0276D4" stroke="black" stroke-linejoin="round"/>
<path d="M61.4447 41.6106L61.0447 42.4106C61.0166 42.4669 61.0166 42.5331 61.0447 42.5894L61.4447 43.3894C61.4786 43.4572 61.5479 43.5 61.6236 43.5H62.3764C62.4521 43.5 62.5214 43.4572 62.5553 43.3894L62.9553 42.5894C62.9834 42.5331 62.9834 42.4669 62.9553 42.4106L62.5553 41.6106C62.5214 41.5428 62.4521 41.5 62.3764 41.5H61.6236C61.5479 41.5 61.4786 41.5428 61.4447 41.6106Z" fill="#9A9A9A"/>
<path d="M76.9447 41.6106L76.5447 42.4106C76.5166 42.4669 76.5166 42.5331 76.5447 42.5894L76.9447 43.3894C76.9786 43.4572 77.0479 43.5 77.1236 43.5H77.8764C77.9521 43.5 78.0214 43.4572 78.0553 43.3894L78.4553 42.5894C78.4834 42.5331 78.4834 42.4669 78.4553 42.4106L78.0553 41.6106C78.0214 41.5428 77.9521 41.5 77.8764 41.5H77.1236C77.0479 41.5 76.9786 41.5428 76.9447 41.6106Z" fill="#9A9A9A"/>
<path d="M74.5 51C70.6269 51.6926 68.4374 51.692 64.5 51L64 50.5V56.5L64.5 56C68.4305 56.6143 70.6017 56.7436 74.5 56L75 56.5V50.5L74.5 51Z" fill="#0276D4" stroke="black" stroke-linejoin="round"/>
<path d="M68.5 54L56 58.5L49 67" stroke="#0276D4" stroke-width="1.5" stroke-linecap="round" stroke-linejoin="round"/>
<path d="M68.5 54L53 56.5L43 64.5" stroke="#0276D4" stroke-width="1.5" stroke-linecap="round" stroke-linejoin="round"/>
<path d="M68.5 54H51L38 62" stroke="#0276D4" stroke-width="1.5" stroke-linecap="round" stroke-linejoin="round"/>
<path d="M72 54L84.5 58.5L91.5 67" stroke="#0276D4" stroke-width="1.5" stroke-linecap="round" stroke-linejoin="round"/>
<path d="M72 54L87.5 56.5L97.5 64.5" stroke="#0276D4" stroke-width="1.5" stroke-linecap="round" stroke-linejoin="round"/>
<path d="M72 54H89.5L102.5 62" stroke="#0276D4" stroke-width="1.5" stroke-linecap="round" stroke-linejoin="round"/>
<path d="M70 66.5C71.7568 66.7557 72.744 66.7331 74.5 66.5V78.5C72.7058 78.7215 71.7143 78.7617 70 78.5V66.5Z" fill="#0276D4" stroke="black" stroke-linecap="round" stroke-linejoin="round"/>
<path d="M70 121.5C71.7568 121.756 72.744 121.733 74.5 121.5V133.5C72.7058 133.721 71.7143 133.762 70 133.5V121.5Z" fill="#0276D4" stroke="black" stroke-linecap="round" stroke-linejoin="round"/>
<path d="M77.5 125.1C78.8255 125.1 79.9004 126.175 79.9004 127.5C79.9004 128.825 78.8255 129.9 77.5 129.9H75C74.7791 129.9 74.5996 129.721 74.5996 129.5V125.5C74.5996 125.279 74.7791 125.1 75 125.1H77.5Z" fill="#0276D4" stroke="black" stroke-width="0.8" stroke-linejoin="round"/>
<path d="M197.9 78.5C197.9 79.8255 196.825 80.9004 195.5 80.9004C194.175 80.9004 193.1 79.8255 193.1 78.5V76C193.1 75.7791 193.279 75.5996 193.5 75.5996H197.5C197.721 75.5996 197.9 75.7791 197.9 76V78.5Z" fill="#0276D4" stroke="black" stroke-width="0.8" stroke-linejoin="round"/>
<path d="M192.419 83.5244L190.548 78.8877L80.5001 123.294L82.3711 127.931L192.419 83.5244Z" fill="#42AAFF" stroke="black" stroke-linejoin="round"/>
<path d="M293.5 81.875V69.375H301.5V70.875H305V80.875H301.5V81.875H293.5Z" fill="#0276D4" stroke="black" stroke-linecap="round" stroke-linejoin="round"/>
<path d="M290 59C290 57.5 290 56.5 291.5 56.5H297.5C299 56.5 299 57.5 299 59V60.5H296.5V59.5C296.5 59.2239 296.276 59 296 59H293C292.724 59 292.5 59.2216 292.5 59.4977V66.5C292.5 67 292.5 68 291.5 68H290H72.5C71.9477 68 71.5 68.4477 71.5 69V121.114C71.5 121.666 71.0523 122.114 70.5 122.114H64.5L64.5 119H67.5C68.0523 119 68.5 118.552 68.5 118V66.5C68.5 65.9477 68.9477 65.5 69.5 65.5H289.5C289.776 65.5 290 65.2776 290 65.0014V59Z" fill="black"/>
<path d="M294 60.875V63.375C296.5 62.875 298.5 62.875 301 63.375V60.875C298.5 60.375 296.5 60.3746 294 60.875Z" fill="#C0C0C0" stroke="black" stroke-linecap="round" stroke-linejoin="round"/>
<path d="M293.5 66.875V63.375C296.62 62.8437 298.366 62.8832 301.5 63.375V66.875C298.5 67.375 296.5 67.375 293.5 66.875Z" fill="#A4A4A4" stroke="black" stroke-linecap="round" stroke-linejoin="round"/>
<path d="M62.5 158V103C62.5 102.724 62.2761 102.5 62 102.5H48C47.7239 102.5 47.5 102.724 47.5 103V158C47.5 158.276 47.7239 158.5 48 158.5H62C62.2761 158.5 62.5 158.276 62.5 158Z" fill="#ECE8EB" stroke="black" stroke-linejoin="round"/>
<path d="M45 102.5H47C47.2761 102.5 47.5 102.724 47.5 103V158C47.5 158.276 47.2761 158.5 47 158.5H45C44.7239 158.5 44.5 158.276 44.5 158V103C44.5 102.724 44.7239 102.5 45 102.5Z" fill="#ECE8EB" stroke="black" stroke-linejoin="round"/>
<path d="M36 8.5L107 27M41 5.5L105.5 22M45.5 3L104.5 17.5M38 13.5L54.5 2M45 15.5L59 3M52 17.5L64 4.5M59 19L68.5 5.5M65 20.5L73 6.5M71.5 22.5L76.5 8M77 23.5L80.5 8.5M82 25L84.5 9.5M87.5 26L89 11M93 27.5V11.5M98.5 28.5L98 13" stroke="black" stroke-linejoin="round"/>
<path d="M47.5 102.5H44.5L42.5 91.5H45L47.5 102.5Z" fill="#ECE8EB" stroke="black" stroke-linejoin="round"/>
<path d="M42.5 150.5V91.5L44.5 102.5V158.5L42.5 150.5Z" fill="#ECE8EB" stroke="black" stroke-linejoin="round"/>
<path d="M64 96.5C64.2761 96.5 64.5 96.7239 64.5 97V166C64.5 166.276 64.2761 166.5 64 166.5H51C50.7239 166.5 50.5 166.276 50.5 166V97C50.5 96.7239 50.7239 96.5 51 96.5H64ZM53 98.5C52.7239 98.5 52.5 98.7239 52.5 99V164C52.5 164.276 52.7239 164.5 53 164.5H62C62.2761 164.5 62.5 164.276 62.5 164V99C62.5 98.7239 62.2761 98.5 62 98.5H53Z" fill="#0276D4"/>
<path d="M64 96.5V97H64.5H65C65 96.4477 64.5523 96 64 96V96.5ZM64.5 97H64V166H64.5H65V97H64.5ZM64.5 166H64V166.5V167C64.5523 167 65 166.552 65 166H64.5ZM64 166.5V166H51V166.5V167H64V166.5ZM51 166.5V166H50.5H50C50 166.552 50.4477 167 51 167V166.5ZM50.5 166H51V97H50.5H50V166H50.5ZM50.5 97H51V96.5V96C50.4477 96 50 96.4477 50 97H50.5ZM51 96.5V97H64V96.5V96H51V96.5ZM53 98.5V98C52.4477 98 52 98.4477 52 99H52.5H53V98.5ZM52.5 99H52V164H52.5H53V99H52.5ZM52.5 164H52C52 164.552 52.4477 165 53 165V164.5V164H52.5ZM53 164.5V165H62V164.5V164H53V164.5ZM62 164.5V165C62.5523 165 63 164.552 63 164H62.5H62V164.5ZM62.5 164H63V99H62.5H62V164H62.5ZM62.5 99H63C63 98.4477 62.5523 98 62 98V98.5V99H62.5ZM62 98.5V98H53V98.5V99H62V98.5Z" fill="black"/>
<path d="M64.5 96.5H50.5L47.5 85.5H60L64.5 96.5ZM52 95H62L59 87H49.5L52 95Z" fill="#0276D4"/>
<path d="M64.5 96.5V97C64.6666 97 64.8223 96.917 64.9151 96.7787C65.008 96.6404 65.0259 96.4649 64.9628 96.3107L64.5 96.5ZM50.5 96.5L50.0176 96.6316C50.0769 96.8491 50.2745 97 50.5 97V96.5ZM47.5 85.5V85C47.3442 85 47.1972 85.0727 47.1026 85.1965C47.0081 85.3203 46.9766 85.4812 47.0176 85.6316L47.5 85.5ZM60 85.5L60.4628 85.3107C60.3859 85.1228 60.203 85 60 85V85.5ZM52 95L51.5228 95.1491C51.588 95.3579 51.7813 95.5 52 95.5V95ZM62 95V95.5C62.164 95.5 62.3176 95.4196 62.411 95.2848C62.5044 95.15 62.5257 94.978 62.4682 94.8244L62 95ZM59 87L59.4682 86.8244C59.395 86.6293 59.2084 86.5 59 86.5V87ZM49.5 87V86.5C49.3409 86.5 49.1914 86.5757 49.0972 86.7038C49.0029 86.832 48.9753 86.9973 49.0228 87.1491L49.5 87ZM64.5 96.5V96H50.5V96.5V97H64.5V96.5ZM50.5 96.5L50.9824 96.3684L47.9824 85.3684L47.5 85.5L47.0176 85.6316L50.0176 96.6316L50.5 96.5ZM47.5 85.5V86H60V85.5V85H47.5V85.5ZM60 85.5L59.5372 85.6893L64.0372 96.6893L64.5 96.5L64.9628 96.3107L60.4628 85.3107L60 85.5ZM52 95V95.5H62V95V94.5H52V95ZM62 95L62.4682 94.8244L59.4682 86.8244L59 87L58.5318 87.1756L61.5318 95.1756L62 95ZM59 87V86.5H49.5V87V87.5H59V87ZM49.5 87L49.0228 87.1491L51.5228 95.1491L52 95L52.4772 94.8509L49.9772 86.8509L49.5 87Z" fill="black"/>
<path d="M74 234H65C61.3636 236.022 60.2464 237.922 58.5 241.5C67.015 242.619 71.8411 242.539 80.5 241.5C78.6188 237.459 77.2578 235.724 74 234Z" fill="#0276D4" stroke="black" stroke-linejoin="round"/>
<defs>
<filter id="filter0_n_1859_24817" x="0" y="188.722" width="191.924" height="115.278" filterUnits="userSpaceOnUse" color-interpolation-filters="sRGB">
<feFlood flood-opacity="0" result="BackgroundImageFix"/>
<feBlend mode="normal" in="SourceGraphic" in2="BackgroundImageFix" result="shape"/>
<feTurbulence type="fractalNoise" baseFrequency="2 2" stitchTiles="stitch" numOctaves="3" result="noise" seed="1257" />
<feColorMatrix in="noise" type="luminanceToAlpha" result="alphaNoise" />
<feComponentTransfer in="alphaNoise" result="coloredNoise1">
<feFuncA type="discrete" tableValues="1 1 1 1 1 1 1 1 1 1 1 1 1 1 1 1 1 1 1 1 1 1 1 1 1 1 1 1 1 1 1 1 1 1 1 1 1 1 1 1 1 1 1 1 1 1 1 1 1 1 1 0 0 0 0 0 0 0 0 0 0 0 0 0 0 0 0 0 0 0 0 0 0 0 0 0 0 0 0 0 0 0 0 0 0 0 0 0 0 0 0 0 0 0 0 0 0 0 0 0 "/>
</feComponentTransfer>
<feComposite operator="in" in2="shape" in="coloredNoise1" result="noise1Clipped" />
<feFlood flood-color="rgba(0, 0, 0, 0.25)" result="color1Flood" />
<feComposite operator="in" in2="noise1Clipped" in="color1Flood" result="color1" />
<feMerge result="effect1_noise_1859_24817">
<feMergeNode in="shape" />
<feMergeNode in="color1" />
</feMerge>
</filter>
</defs>
</svg>
