<svg width="60" height="123" viewBox="0 0 60 123" fill="none" xmlns="http://www.w3.org/2000/svg">
<path d="M54 0H6C2.68629 0 0 2.68629 0 6V117C0 120.314 2.68629 123 6 123H54C57.3137 123 60 120.314 60 117V6C60 2.68629 57.3137 0 54 0Z" fill="#404040"/>
<path d="M54 0H6C2.68629 0 0 2.68629 0 6V117C0 120.314 2.68629 123 6 123H54C57.3137 123 60 120.314 60 117V6C60 2.68629 57.3137 0 54 0Z" fill="black" fill-opacity="0.2"/>
<path d="M54 0H6C2.68629 0 0 2.68629 0 6V117C0 120.314 2.68629 123 6 123H54C57.3137 123 60 120.314 60 117V6C60 2.68629 57.3137 0 54 0Z" fill="black" fill-opacity="0.2"/>
<path d="M54 0H6C2.68629 0 0 2.68629 0 6V117C0 120.314 2.68629 123 6 123H54C57.3137 123 60 120.314 60 117V6C60 2.68629 57.3137 0 54 0Z" fill="black" fill-opacity="0.2"/>
<path d="M54 0H6C2.68629 0 0 2.68629 0 6V117C0 120.314 2.68629 123 6 123H54C57.3137 123 60 120.314 60 117V6C60 2.68629 57.3137 0 54 0Z" fill="black" fill-opacity="0.2"/>
</svg>
