<svg width="60" height="50" viewBox="0 0 60 50" fill="none" xmlns="http://www.w3.org/2000/svg">
<g filter="url(#filter0_i_1749_8872)">
<circle cx="11" cy="32" r="5" fill="url(#paint0_linear_1749_8872)"/>
</g>
<circle cx="11" cy="32" r="5.25" stroke="black" stroke-width="0.5"/>
<path d="M59.75 0.25V48C59.75 48.9665 58.9665 49.75 58 49.75H15.7285C14.7622 49.7498 13.9785 48.9664 13.9785 48V14.2451C13.9785 13.0025 12.9712 11.9951 11.7285 11.9951H10.1357C8.8931 11.9951 7.88574 13.0025 7.88574 14.2451V48C7.88574 48.9664 7.10217 49.7499 6.13574 49.75H2C1.0335 49.75 0.25 48.9665 0.25 48V0.25H59.75Z" fill="url(#paint1_linear_1749_8872)" stroke="black" stroke-width="0.5" stroke-linejoin="round"/>
<defs>
<filter id="filter0_i_1749_8872" x="5.5" y="26.5" width="13" height="13" filterUnits="userSpaceOnUse" color-interpolation-filters="sRGB">
<feFlood flood-opacity="0" result="BackgroundImageFix"/>
<feBlend mode="normal" in="SourceGraphic" in2="BackgroundImageFix" result="shape"/>
<feColorMatrix in="SourceAlpha" type="matrix" values="0 0 0 0 0 0 0 0 0 0 0 0 0 0 0 0 0 0 127 0" result="hardAlpha"/>
<feOffset dx="2" dy="2"/>
<feGaussianBlur stdDeviation="1"/>
<feComposite in2="hardAlpha" operator="arithmetic" k2="-1" k3="1"/>
<feColorMatrix type="matrix" values="0 0 0 0 0 0 0 0 0 0 0 0 0 0 0 0 0 0 0.25 0"/>
<feBlend mode="normal" in2="shape" result="effect1_innerShadow_1749_8872"/>
</filter>
<linearGradient id="paint0_linear_1749_8872" x1="16" y1="32" x2="6" y2="32" gradientUnits="userSpaceOnUse">
<stop stop-color="#DFDFDF"/>
<stop offset="1" stop-color="#D2C79D"/>
</linearGradient>
<linearGradient id="paint1_linear_1749_8872" x1="60" y1="24.5" x2="1.5" y2="24.5" gradientUnits="userSpaceOnUse">
<stop stop-color="#EAE28F"/>
<stop offset="1" stop-color="#D3C42C"/>
</linearGradient>
</defs>
</svg>
